<mxfile host="Electron" modified="2023-10-04T05:33:27.719Z" agent="Mozilla/5.0 (X11; Linux x86_64) AppleWebKit/537.36 (KHTML, like Gecko) draw.io/21.6.8 Chrome/114.0.5735.289 Electron/25.5.0 Safari/537.36" etag="SwpPB3gjHXrcGC-iSEdF" version="21.6.8" type="device">
  <diagram id="oLzqKdJuvVrDAu1Prfd-" name="Page-1">
    <mxGraphModel dx="318" dy="205" grid="0" gridSize="10" guides="1" tooltips="1" connect="1" arrows="1" fold="1" page="1" pageScale="1" pageWidth="827" pageHeight="1169" background="#ffffff" math="1" shadow="0">
      <root>
        <mxCell id="0" />
        <mxCell id="1" parent="0" />
        <mxCell id="FEMFrTbNhc8YpFnRi8aE-107" value="" style="rounded=1;whiteSpace=wrap;html=1;strokeWidth=2;shadow=0;" parent="1" vertex="1">
          <mxGeometry x="50" y="851" width="447" height="108" as="geometry" />
        </mxCell>
        <mxCell id="FEMFrTbNhc8YpFnRi8aE-1" value="Discrete?" style="rounded=1;whiteSpace=wrap;html=1;fillColor=#f5f5f5;fontColor=#333333;strokeColor=#666666;" parent="1" vertex="1">
          <mxGeometry x="503" y="104" width="120" height="60" as="geometry" />
        </mxCell>
        <mxCell id="FEMFrTbNhc8YpFnRi8aE-2" value="" style="endArrow=classic;html=1;rounded=0;exitX=0.25;exitY=1;exitDx=0;exitDy=0;entryX=0.75;entryY=0;entryDx=0;entryDy=0;" parent="1" source="FEMFrTbNhc8YpFnRi8aE-1" target="FEMFrTbNhc8YpFnRi8aE-4" edge="1">
          <mxGeometry width="50" height="50" relative="1" as="geometry">
            <mxPoint x="413" y="1054" as="sourcePoint" />
            <mxPoint x="263" y="304" as="targetPoint" />
          </mxGeometry>
        </mxCell>
        <mxCell id="FEMFrTbNhc8YpFnRi8aE-3" value="" style="endArrow=classic;html=1;rounded=0;exitX=0.75;exitY=1;exitDx=0;exitDy=0;entryX=0.5;entryY=0;entryDx=0;entryDy=0;" parent="1" source="FEMFrTbNhc8YpFnRi8aE-1" target="FEMFrTbNhc8YpFnRi8aE-11" edge="1">
          <mxGeometry width="50" height="50" relative="1" as="geometry">
            <mxPoint x="353" y="234" as="sourcePoint" />
            <mxPoint x="873" y="264" as="targetPoint" />
          </mxGeometry>
        </mxCell>
        <mxCell id="FEMFrTbNhc8YpFnRi8aE-4" value="Unbounded support?&lt;br&gt;$$X = 0,1,2, \ldots$$" style="rounded=1;whiteSpace=wrap;html=1;fillColor=#f5f5f5;fontColor=#333333;strokeColor=#666666;" parent="1" vertex="1">
          <mxGeometry x="183" y="264" width="120" height="60" as="geometry" />
        </mxCell>
        <mxCell id="FEMFrTbNhc8YpFnRi8aE-6" value="" style="endArrow=classic;html=1;rounded=0;exitX=0.25;exitY=1;exitDx=0;exitDy=0;" parent="1" source="FEMFrTbNhc8YpFnRi8aE-4" edge="1">
          <mxGeometry width="50" height="50" relative="1" as="geometry">
            <mxPoint x="413" y="1054" as="sourcePoint" />
            <mxPoint x="143" y="464" as="targetPoint" />
          </mxGeometry>
        </mxCell>
        <mxCell id="FEMFrTbNhc8YpFnRi8aE-7" value="Monotonically decreasing probabilities?" style="rounded=1;whiteSpace=wrap;html=1;fillColor=#f5f5f5;fontColor=#333333;strokeColor=#666666;" parent="1" vertex="1">
          <mxGeometry x="83" y="424" width="120" height="60" as="geometry" />
        </mxCell>
        <mxCell id="FEMFrTbNhc8YpFnRi8aE-8" value="Equal probabilities?" style="rounded=1;whiteSpace=wrap;html=1;fillColor=#f5f5f5;fontColor=#333333;strokeColor=#666666;" parent="1" vertex="1">
          <mxGeometry x="317" y="424" width="120" height="60" as="geometry" />
        </mxCell>
        <mxCell id="FEMFrTbNhc8YpFnRi8aE-9" value="" style="endArrow=classic;html=1;rounded=0;exitX=0.692;exitY=1.017;exitDx=0;exitDy=0;entryX=0.5;entryY=0;entryDx=0;entryDy=0;exitPerimeter=0;" parent="1" source="FEMFrTbNhc8YpFnRi8aE-4" target="FEMFrTbNhc8YpFnRi8aE-8" edge="1">
          <mxGeometry width="50" height="50" relative="1" as="geometry">
            <mxPoint x="243" y="374" as="sourcePoint" />
            <mxPoint x="153" y="474" as="targetPoint" />
          </mxGeometry>
        </mxCell>
        <mxCell id="FEMFrTbNhc8YpFnRi8aE-11" value="Unbounded support?&lt;br&gt;$$-\infty&amp;lt;X&amp;lt;\infty$$" style="rounded=1;whiteSpace=wrap;html=1;fillColor=#f5f5f5;fontColor=#333333;strokeColor=#666666;" parent="1" vertex="1">
          <mxGeometry x="773" y="264" width="120" height="60" as="geometry" />
        </mxCell>
        <mxCell id="FEMFrTbNhc8YpFnRi8aE-16" value="Negative Binomial" style="rounded=1;whiteSpace=wrap;html=1;fillColor=#d5e8d4;strokeColor=#82b366;" parent="1" vertex="1">
          <mxGeometry x="213" y="674" width="80" height="60" as="geometry" />
        </mxCell>
        <mxCell id="FEMFrTbNhc8YpFnRi8aE-17" value="Poisson" style="rounded=1;whiteSpace=wrap;html=1;fillColor=#ffe6cc;strokeColor=#d79b00;" parent="1" vertex="1">
          <mxGeometry x="112" y="674" width="80" height="60" as="geometry" />
        </mxCell>
        <mxCell id="FEMFrTbNhc8YpFnRi8aE-18" value="Geometric" style="rounded=1;whiteSpace=wrap;html=1;fillColor=#ffe6cc;strokeColor=#d79b00;" parent="1" vertex="1">
          <mxGeometry x="33" y="541" width="80" height="60" as="geometry" />
        </mxCell>
        <mxCell id="FEMFrTbNhc8YpFnRi8aE-19" value="Discrete&lt;br&gt;Uniform" style="rounded=1;whiteSpace=wrap;html=1;fillColor=#ffe6cc;strokeColor=#d79b00;" parent="1" vertex="1">
          <mxGeometry x="293" y="541" width="80" height="60" as="geometry" />
        </mxCell>
        <mxCell id="FEMFrTbNhc8YpFnRi8aE-20" value="Binomial" style="rounded=1;whiteSpace=wrap;html=1;fillColor=#ffe6cc;strokeColor=#d79b00;" parent="1" vertex="1">
          <mxGeometry x="395" y="541" width="80" height="60" as="geometry" />
        </mxCell>
        <mxCell id="FEMFrTbNhc8YpFnRi8aE-21" value="" style="endArrow=classic;html=1;rounded=0;exitX=0.25;exitY=1;exitDx=0;exitDy=0;entryX=0.5;entryY=0;entryDx=0;entryDy=0;" parent="1" source="FEMFrTbNhc8YpFnRi8aE-7" target="FEMFrTbNhc8YpFnRi8aE-18" edge="1">
          <mxGeometry width="50" height="50" relative="1" as="geometry">
            <mxPoint x="413" y="974" as="sourcePoint" />
            <mxPoint x="463" y="924" as="targetPoint" />
          </mxGeometry>
        </mxCell>
        <mxCell id="FEMFrTbNhc8YpFnRi8aE-24" value="" style="endArrow=classic;html=1;rounded=0;exitX=0.375;exitY=1;exitDx=0;exitDy=0;entryX=0.5;entryY=0;entryDx=0;entryDy=0;exitPerimeter=0;" parent="1" source="FEMFrTbNhc8YpFnRi8aE-8" target="FEMFrTbNhc8YpFnRi8aE-19" edge="1">
          <mxGeometry width="50" height="50" relative="1" as="geometry">
            <mxPoint x="210" y="494" as="sourcePoint" />
            <mxPoint x="290" y="554" as="targetPoint" />
          </mxGeometry>
        </mxCell>
        <mxCell id="FEMFrTbNhc8YpFnRi8aE-25" value="" style="endArrow=classic;html=1;rounded=0;exitX=0.75;exitY=1;exitDx=0;exitDy=0;entryX=1;entryY=1;entryDx=0;entryDy=0;" parent="1" source="FEMFrTbNhc8YpFnRi8aE-8" edge="1">
          <mxGeometry width="50" height="50" relative="1" as="geometry">
            <mxPoint x="333" y="494" as="sourcePoint" />
            <mxPoint x="483" y="518" as="targetPoint" />
          </mxGeometry>
        </mxCell>
        <mxCell id="FEMFrTbNhc8YpFnRi8aE-27" value="" style="endArrow=classic;html=1;rounded=0;exitX=0.25;exitY=1;exitDx=0;exitDy=0;entryX=0.5;entryY=0;entryDx=0;entryDy=0;" parent="1" source="FEMFrTbNhc8YpFnRi8aE-11" target="FEMFrTbNhc8YpFnRi8aE-28" edge="1">
          <mxGeometry width="50" height="50" relative="1" as="geometry">
            <mxPoint x="487" y="334" as="sourcePoint" />
            <mxPoint x="763" y="384" as="targetPoint" />
          </mxGeometry>
        </mxCell>
        <mxCell id="FEMFrTbNhc8YpFnRi8aE-28" value="Outliers?" style="rounded=1;whiteSpace=wrap;html=1;fillColor=#f5f5f5;fontColor=#333333;strokeColor=#666666;" parent="1" vertex="1">
          <mxGeometry x="698" y="421" width="120" height="60" as="geometry" />
        </mxCell>
        <mxCell id="FEMFrTbNhc8YpFnRi8aE-33" value="" style="endArrow=classic;html=1;rounded=0;exitX=0.25;exitY=1;exitDx=0;exitDy=0;entryX=0.5;entryY=0;entryDx=0;entryDy=0;" parent="1" source="FEMFrTbNhc8YpFnRi8aE-28" target="FEMFrTbNhc8YpFnRi8aE-34" edge="1">
          <mxGeometry width="50" height="50" relative="1" as="geometry">
            <mxPoint x="785" y="497" as="sourcePoint" />
            <mxPoint x="765" y="557" as="targetPoint" />
          </mxGeometry>
        </mxCell>
        <mxCell id="FEMFrTbNhc8YpFnRi8aE-34" value="Student-t" style="rounded=1;whiteSpace=wrap;html=1;fillColor=#ffe6cc;strokeColor=#d79b00;" parent="1" vertex="1">
          <mxGeometry x="658" y="541" width="80" height="60" as="geometry" />
        </mxCell>
        <mxCell id="FEMFrTbNhc8YpFnRi8aE-35" value="Normal" style="rounded=1;whiteSpace=wrap;html=1;fillColor=#ffe6cc;strokeColor=#d79b00;" parent="1" vertex="1">
          <mxGeometry x="768" y="541" width="80" height="60" as="geometry" />
        </mxCell>
        <mxCell id="FEMFrTbNhc8YpFnRi8aE-36" value="" style="endArrow=classic;html=1;rounded=0;exitX=0.75;exitY=1;exitDx=0;exitDy=0;entryX=0.5;entryY=0;entryDx=0;entryDy=0;" parent="1" source="FEMFrTbNhc8YpFnRi8aE-28" target="FEMFrTbNhc8YpFnRi8aE-35" edge="1">
          <mxGeometry width="50" height="50" relative="1" as="geometry">
            <mxPoint x="827" y="571" as="sourcePoint" />
            <mxPoint x="827" y="661" as="targetPoint" />
          </mxGeometry>
        </mxCell>
        <mxCell id="FEMFrTbNhc8YpFnRi8aE-39" value="Yes" style="text;html=1;strokeColor=none;fillColor=none;align=center;verticalAlign=middle;whiteSpace=wrap;rounded=0;" parent="1" vertex="1">
          <mxGeometry x="363" y="184" width="60" height="30" as="geometry" />
        </mxCell>
        <mxCell id="FEMFrTbNhc8YpFnRi8aE-41" value="No" style="text;html=1;strokeColor=none;fillColor=none;align=center;verticalAlign=middle;whiteSpace=wrap;rounded=0;" parent="1" vertex="1">
          <mxGeometry x="654" y="174" width="60" height="30" as="geometry" />
        </mxCell>
        <mxCell id="FEMFrTbNhc8YpFnRi8aE-42" value="Yes" style="text;html=1;strokeColor=none;fillColor=none;align=center;verticalAlign=middle;whiteSpace=wrap;rounded=0;" parent="1" vertex="1">
          <mxGeometry x="141" y="354" width="60" height="30" as="geometry" />
        </mxCell>
        <mxCell id="FEMFrTbNhc8YpFnRi8aE-43" value="No" style="text;html=1;strokeColor=none;fillColor=none;align=center;verticalAlign=middle;whiteSpace=wrap;rounded=0;" parent="1" vertex="1">
          <mxGeometry x="309" y="354" width="60" height="30" as="geometry" />
        </mxCell>
        <mxCell id="FEMFrTbNhc8YpFnRi8aE-44" value="Yes" style="text;html=1;strokeColor=none;fillColor=none;align=center;verticalAlign=middle;whiteSpace=wrap;rounded=0;" parent="1" vertex="1">
          <mxGeometry x="52" y="494" width="60" height="30" as="geometry" />
        </mxCell>
        <mxCell id="FEMFrTbNhc8YpFnRi8aE-45" value="" style="endArrow=classic;html=1;rounded=0;entryX=0.5;entryY=0;entryDx=0;entryDy=0;exitX=0.25;exitY=1;exitDx=0;exitDy=0;" parent="1" source="FEMFrTbNhc8YpFnRi8aE-46" target="FEMFrTbNhc8YpFnRi8aE-17" edge="1">
          <mxGeometry width="50" height="50" relative="1" as="geometry">
            <mxPoint x="143" y="694" as="sourcePoint" />
            <mxPoint x="363" y="554" as="targetPoint" />
          </mxGeometry>
        </mxCell>
        <mxCell id="FEMFrTbNhc8YpFnRi8aE-46" value="Mean&amp;nbsp;= Variance?" style="rounded=1;whiteSpace=wrap;html=1;fillColor=#f5f5f5;fontColor=#333333;strokeColor=#666666;" parent="1" vertex="1">
          <mxGeometry x="143" y="541" width="120" height="60" as="geometry" />
        </mxCell>
        <mxCell id="FEMFrTbNhc8YpFnRi8aE-47" value="No" style="text;html=1;strokeColor=none;fillColor=none;align=center;verticalAlign=middle;whiteSpace=wrap;rounded=0;" parent="1" vertex="1">
          <mxGeometry x="163" y="494" width="60" height="30" as="geometry" />
        </mxCell>
        <mxCell id="FEMFrTbNhc8YpFnRi8aE-48" value="" style="endArrow=classic;html=1;rounded=0;exitX=0.75;exitY=1;exitDx=0;exitDy=0;entryX=0.5;entryY=0;entryDx=0;entryDy=0;" parent="1" target="FEMFrTbNhc8YpFnRi8aE-46" edge="1">
          <mxGeometry width="50" height="50" relative="1" as="geometry">
            <mxPoint x="157" y="484" as="sourcePoint" />
            <mxPoint x="193" y="544" as="targetPoint" />
          </mxGeometry>
        </mxCell>
        <mxCell id="FEMFrTbNhc8YpFnRi8aE-51" value="Yes" style="text;html=1;strokeColor=none;fillColor=none;align=center;verticalAlign=middle;whiteSpace=wrap;rounded=0;" parent="1" vertex="1">
          <mxGeometry x="116" y="623" width="60" height="30" as="geometry" />
        </mxCell>
        <mxCell id="FEMFrTbNhc8YpFnRi8aE-52" value="" style="endArrow=classic;html=1;rounded=0;exitX=0.75;exitY=1;exitDx=0;exitDy=0;" parent="1" source="FEMFrTbNhc8YpFnRi8aE-46" edge="1">
          <mxGeometry width="50" height="50" relative="1" as="geometry">
            <mxPoint x="212.99999999999997" y="604" as="sourcePoint" />
            <mxPoint x="253" y="664" as="targetPoint" />
          </mxGeometry>
        </mxCell>
        <mxCell id="FEMFrTbNhc8YpFnRi8aE-53" value="No" style="text;html=1;strokeColor=none;fillColor=none;align=center;verticalAlign=middle;whiteSpace=wrap;rounded=0;" parent="1" vertex="1">
          <mxGeometry x="231" y="624" width="60" height="30" as="geometry" />
        </mxCell>
        <mxCell id="FEMFrTbNhc8YpFnRi8aE-54" value="Yes" style="text;html=1;strokeColor=none;fillColor=none;align=center;verticalAlign=middle;whiteSpace=wrap;rounded=0;" parent="1" vertex="1">
          <mxGeometry x="303" y="494" width="60" height="30" as="geometry" />
        </mxCell>
        <mxCell id="FEMFrTbNhc8YpFnRi8aE-56" value="Yes" style="text;html=1;strokeColor=none;fillColor=none;align=center;verticalAlign=middle;whiteSpace=wrap;rounded=0;" parent="1" vertex="1">
          <mxGeometry x="703" y="353" width="60" height="30" as="geometry" />
        </mxCell>
        <mxCell id="FEMFrTbNhc8YpFnRi8aE-57" value="No" style="text;html=1;strokeColor=none;fillColor=none;align=center;verticalAlign=middle;whiteSpace=wrap;rounded=0;" parent="1" vertex="1">
          <mxGeometry x="889" y="353" width="60" height="30" as="geometry" />
        </mxCell>
        <mxCell id="FEMFrTbNhc8YpFnRi8aE-58" value="" style="endArrow=classic;html=1;rounded=0;exitX=0.608;exitY=1;exitDx=0;exitDy=0;entryX=0.5;entryY=0;entryDx=0;entryDy=0;exitPerimeter=0;" parent="1" source="FEMFrTbNhc8YpFnRi8aE-11" target="FEMFrTbNhc8YpFnRi8aE-62" edge="1">
          <mxGeometry width="50" height="50" relative="1" as="geometry">
            <mxPoint x="853" y="344" as="sourcePoint" />
            <mxPoint x="883" y="404" as="targetPoint" />
          </mxGeometry>
        </mxCell>
        <mxCell id="FEMFrTbNhc8YpFnRi8aE-60" value="Yes" style="text;html=1;strokeColor=none;fillColor=none;align=center;verticalAlign=middle;whiteSpace=wrap;rounded=0;" parent="1" vertex="1">
          <mxGeometry x="667" y="500" width="60" height="30" as="geometry" />
        </mxCell>
        <mxCell id="FEMFrTbNhc8YpFnRi8aE-61" value="No" style="text;html=1;strokeColor=none;fillColor=none;align=center;verticalAlign=middle;whiteSpace=wrap;rounded=0;" parent="1" vertex="1">
          <mxGeometry x="784" y="500" width="60" height="30" as="geometry" />
        </mxCell>
        <mxCell id="FEMFrTbNhc8YpFnRi8aE-62" value="Positive support?&lt;br&gt;$$X&amp;gt;0$$" style="rounded=1;whiteSpace=wrap;html=1;fillColor=#f5f5f5;fontColor=#333333;strokeColor=#666666;" parent="1" vertex="1">
          <mxGeometry x="878" y="421" width="120" height="60" as="geometry" />
        </mxCell>
        <mxCell id="FEMFrTbNhc8YpFnRi8aE-66" value="" style="endArrow=classic;html=1;rounded=0;exitX=0.5;exitY=1;exitDx=0;exitDy=0;" parent="1" source="FEMFrTbNhc8YpFnRi8aE-62" edge="1">
          <mxGeometry width="50" height="50" relative="1" as="geometry">
            <mxPoint x="548" y="851" as="sourcePoint" />
            <mxPoint x="908" y="631" as="targetPoint" />
          </mxGeometry>
        </mxCell>
        <mxCell id="FEMFrTbNhc8YpFnRi8aE-67" value="Yes" style="text;html=1;strokeColor=none;fillColor=none;align=center;verticalAlign=middle;whiteSpace=wrap;rounded=0;" parent="1" vertex="1">
          <mxGeometry x="888" y="501" width="60" height="30" as="geometry" />
        </mxCell>
        <mxCell id="FEMFrTbNhc8YpFnRi8aE-68" value="Chi-2" style="rounded=1;whiteSpace=wrap;html=1;fillColor=#FFE6CC;strokeColor=#d6b656;gradientColor=#DAE8FC;" parent="1" vertex="1">
          <mxGeometry x="859" y="860" width="80" height="60" as="geometry" />
        </mxCell>
        <mxCell id="FEMFrTbNhc8YpFnRi8aE-69" value="Gamma" style="rounded=1;whiteSpace=wrap;html=1;fillColor=#d5e8d4;strokeColor=#82b366;" parent="1" vertex="1">
          <mxGeometry x="1040" y="860" width="80" height="60" as="geometry" />
        </mxCell>
        <mxCell id="FEMFrTbNhc8YpFnRi8aE-73" value="" style="endArrow=classic;html=1;rounded=0;exitX=0.75;exitY=1;exitDx=0;exitDy=0;entryX=0.25;entryY=0;entryDx=0;entryDy=0;" parent="1" source="FEMFrTbNhc8YpFnRi8aE-62" target="FEMFrTbNhc8YpFnRi8aE-78" edge="1">
          <mxGeometry width="50" height="50" relative="1" as="geometry">
            <mxPoint x="933.96" y="491" as="sourcePoint" />
            <mxPoint x="998" y="531" as="targetPoint" />
          </mxGeometry>
        </mxCell>
        <mxCell id="FEMFrTbNhc8YpFnRi8aE-74" value="Beta" style="rounded=1;whiteSpace=wrap;html=1;fillColor=#d5e8d4;strokeColor=#82b366;" parent="1" vertex="1">
          <mxGeometry x="1029" y="696" width="80" height="60" as="geometry" />
        </mxCell>
        <mxCell id="FEMFrTbNhc8YpFnRi8aE-75" value="Uniform" style="rounded=1;whiteSpace=wrap;html=1;fillColor=#ffe6cc;strokeColor=#d79b00;" parent="1" vertex="1">
          <mxGeometry x="1134" y="695" width="80" height="60" as="geometry" />
        </mxCell>
        <mxCell id="FEMFrTbNhc8YpFnRi8aE-76" value="" style="endArrow=classic;html=1;rounded=0;entryX=0.5;entryY=0;entryDx=0;entryDy=0;" parent="1" target="FEMFrTbNhc8YpFnRi8aE-74" edge="1">
          <mxGeometry width="50" height="50" relative="1" as="geometry">
            <mxPoint x="1094" y="599" as="sourcePoint" />
            <mxPoint x="1064" y="695" as="targetPoint" />
          </mxGeometry>
        </mxCell>
        <mxCell id="FEMFrTbNhc8YpFnRi8aE-77" value="" style="endArrow=classic;html=1;rounded=0;exitX=0.75;exitY=1;exitDx=0;exitDy=0;entryX=0.5;entryY=0;entryDx=0;entryDy=0;" parent="1" source="FEMFrTbNhc8YpFnRi8aE-78" target="FEMFrTbNhc8YpFnRi8aE-75" edge="1">
          <mxGeometry width="50" height="50" relative="1" as="geometry">
            <mxPoint x="1174" y="571" as="sourcePoint" />
            <mxPoint x="1264" y="631" as="targetPoint" />
          </mxGeometry>
        </mxCell>
        <mxCell id="FEMFrTbNhc8YpFnRi8aE-78" value="Support unit interval?&lt;br&gt;$$0&amp;nbsp; \leq X\leq 1$$" style="rounded=1;whiteSpace=wrap;html=1;fillColor=#f5f5f5;fontColor=#333333;strokeColor=#666666;" parent="1" vertex="1">
          <mxGeometry x="1044" y="541" width="120" height="60" as="geometry" />
        </mxCell>
        <mxCell id="FEMFrTbNhc8YpFnRi8aE-79" value="No" style="text;html=1;strokeColor=none;fillColor=none;align=center;verticalAlign=middle;whiteSpace=wrap;rounded=0;" parent="1" vertex="1">
          <mxGeometry x="998" y="487" width="60" height="30" as="geometry" />
        </mxCell>
        <mxCell id="FEMFrTbNhc8YpFnRi8aE-81" value="" style="shape=curlyBracket;whiteSpace=wrap;html=1;rounded=1;labelPosition=left;verticalLabelPosition=middle;align=right;verticalAlign=middle;rotation=90;" parent="1" vertex="1">
          <mxGeometry x="929" y="661" width="20" height="370" as="geometry" />
        </mxCell>
        <mxCell id="FEMFrTbNhc8YpFnRi8aE-84" value="No" style="text;html=1;strokeColor=none;fillColor=none;align=center;verticalAlign=middle;whiteSpace=wrap;rounded=0;" parent="1" vertex="1">
          <mxGeometry x="1139" y="622" width="60" height="30" as="geometry" />
        </mxCell>
        <mxCell id="FEMFrTbNhc8YpFnRi8aE-85" value="Yes" style="text;html=1;strokeColor=none;fillColor=none;align=center;verticalAlign=middle;whiteSpace=wrap;rounded=0;" parent="1" vertex="1">
          <mxGeometry x="1037" y="622" width="60" height="30" as="geometry" />
        </mxCell>
        <mxCell id="FEMFrTbNhc8YpFnRi8aE-86" value="SDA1" style="rounded=1;whiteSpace=wrap;html=1;fillColor=#FFE6CC;strokeColor=#d79b00;" parent="1" vertex="1">
          <mxGeometry x="75" y="877" width="80" height="60" as="geometry" />
        </mxCell>
        <mxCell id="FEMFrTbNhc8YpFnRi8aE-87" value="F" style="rounded=1;whiteSpace=wrap;html=1;fillColor=#dae8fc;strokeColor=#6c8ebf;" parent="1" vertex="1">
          <mxGeometry x="949" y="860" width="80" height="60" as="geometry" />
        </mxCell>
        <mxCell id="FEMFrTbNhc8YpFnRi8aE-88" value="SDA2" style="rounded=1;whiteSpace=wrap;html=1;fillColor=#dae8fc;strokeColor=#6c8ebf;" parent="1" vertex="1">
          <mxGeometry x="286" y="877" width="80" height="60" as="geometry" />
        </mxCell>
        <mxCell id="FEMFrTbNhc8YpFnRi8aE-89" value="SDA3" style="rounded=1;whiteSpace=wrap;html=1;fillColor=#d5e8d4;strokeColor=#82b366;" parent="1" vertex="1">
          <mxGeometry x="392" y="877" width="80" height="60" as="geometry" />
        </mxCell>
        <mxCell id="FEMFrTbNhc8YpFnRi8aE-90" value="Log-normal" style="rounded=1;whiteSpace=wrap;html=1;fillColor=#FFE6CC;strokeColor=#d6b656;gradientColor=#DAE8FC;" parent="1" vertex="1">
          <mxGeometry x="768" y="860" width="80" height="60" as="geometry" />
        </mxCell>
        <mxCell id="FEMFrTbNhc8YpFnRi8aE-91" value="SDA1 &lt;br&gt;+ &lt;br&gt;SDA2" style="rounded=1;whiteSpace=wrap;html=1;fillColor=#FFE6CC;strokeColor=#d6b656;gradientColor=#DAE8FC;" parent="1" vertex="1">
          <mxGeometry x="181" y="877" width="80" height="60" as="geometry" />
        </mxCell>
        <mxCell id="FEMFrTbNhc8YpFnRi8aE-93" value="data as proportions" style="whiteSpace=wrap;html=1;shape=mxgraph.basic.rectCallout;dx=30;dy=15;boundedLbl=1;flipV=1;" parent="1" vertex="1">
          <mxGeometry x="1064" y="755" width="100" height="60" as="geometry" />
        </mxCell>
        <mxCell id="FEMFrTbNhc8YpFnRi8aE-94" value="Flexible two-parameter model" style="whiteSpace=wrap;html=1;shape=mxgraph.basic.rectCallout;dx=30;dy=15;boundedLbl=1;flipV=1;" parent="1" vertex="1">
          <mxGeometry x="1059" y="920" width="100" height="60" as="geometry" />
        </mxCell>
        <mxCell id="FEMFrTbNhc8YpFnRi8aE-95" value="Squared normal data" style="whiteSpace=wrap;html=1;shape=mxgraph.basic.rectCallout;dx=30;dy=15;boundedLbl=1;flipV=1;" parent="1" vertex="1">
          <mxGeometry x="889" y="920" width="100" height="60" as="geometry" />
        </mxCell>
        <mxCell id="FEMFrTbNhc8YpFnRi8aE-97" value="log of data is normal" style="whiteSpace=wrap;html=1;shape=mxgraph.basic.rectCallout;dx=30;dy=15;boundedLbl=1;flipV=1;flipH=1;" parent="1" vertex="1">
          <mxGeometry x="728" y="920" width="100" height="60" as="geometry" />
        </mxCell>
        <mxCell id="FEMFrTbNhc8YpFnRi8aE-98" value="like Poisson but with one more parameter" style="whiteSpace=wrap;html=1;shape=mxgraph.basic.rectCallout;dx=30;dy=15;boundedLbl=1;flipV=1;flipH=0;" parent="1" vertex="1">
          <mxGeometry x="243" y="734" width="100" height="60" as="geometry" />
        </mxCell>
        <mxCell id="FEMFrTbNhc8YpFnRi8aE-99" value="numbers of successes in Bernoulli trials" style="whiteSpace=wrap;html=1;shape=mxgraph.basic.rectCallout;dx=30;dy=15;boundedLbl=1;flipV=1;flipH=0;" parent="1" vertex="1">
          <mxGeometry x="403" y="601" width="100" height="60" as="geometry" />
        </mxCell>
        <mxCell id="FEMFrTbNhc8YpFnRi8aE-100" value="Monotonically decreasing density?" style="rounded=1;whiteSpace=wrap;html=1;fillColor=#f5f5f5;fontColor=#333333;strokeColor=#666666;" parent="1" vertex="1">
          <mxGeometry x="848" y="631" width="120" height="60" as="geometry" />
        </mxCell>
        <mxCell id="FEMFrTbNhc8YpFnRi8aE-101" value="Yes" style="text;html=1;strokeColor=none;fillColor=none;align=center;verticalAlign=middle;whiteSpace=wrap;rounded=0;" parent="1" vertex="1">
          <mxGeometry x="789" y="696" width="60" height="30" as="geometry" />
        </mxCell>
        <mxCell id="FEMFrTbNhc8YpFnRi8aE-103" value="" style="endArrow=classic;html=1;rounded=0;exitX=0.067;exitY=0.983;exitDx=0;exitDy=0;exitPerimeter=0;entryX=0.5;entryY=0;entryDx=0;entryDy=0;" parent="1" source="FEMFrTbNhc8YpFnRi8aE-100" target="FEMFrTbNhc8YpFnRi8aE-104" edge="1">
          <mxGeometry width="50" height="50" relative="1" as="geometry">
            <mxPoint x="408" y="1041" as="sourcePoint" />
            <mxPoint x="458" y="991" as="targetPoint" />
          </mxGeometry>
        </mxCell>
        <mxCell id="FEMFrTbNhc8YpFnRi8aE-104" value="Exponential" style="rounded=1;whiteSpace=wrap;html=1;fillColor=#ffe6cc;strokeColor=#d79b00;" parent="1" vertex="1">
          <mxGeometry x="765" y="741" width="80" height="60" as="geometry" />
        </mxCell>
        <mxCell id="FEMFrTbNhc8YpFnRi8aE-105" value="" style="endArrow=classic;html=1;rounded=0;exitX=0.5;exitY=1;exitDx=0;exitDy=0;" parent="1" source="FEMFrTbNhc8YpFnRi8aE-100" edge="1">
          <mxGeometry width="50" height="50" relative="1" as="geometry">
            <mxPoint x="408" y="1051" as="sourcePoint" />
            <mxPoint x="938" y="831" as="targetPoint" />
          </mxGeometry>
        </mxCell>
        <mxCell id="FEMFrTbNhc8YpFnRi8aE-106" value="No" style="text;html=1;strokeColor=none;fillColor=none;align=center;verticalAlign=middle;whiteSpace=wrap;rounded=0;" parent="1" vertex="1">
          <mxGeometry x="904" y="725" width="60" height="30" as="geometry" />
        </mxCell>
        <mxCell id="FEMFrTbNhc8YpFnRi8aE-108" value="Course" style="text;html=1;strokeColor=none;fillColor=none;align=center;verticalAlign=middle;whiteSpace=wrap;rounded=0;shadow=1;strokeWidth=2;fontStyle=1" parent="1" vertex="1">
          <mxGeometry x="223" y="849" width="99.5" height="30" as="geometry" />
        </mxCell>
        <mxCell id="FEMFrTbNhc8YpFnRi8aE-113" value="" style="group" parent="1" vertex="1" connectable="0">
          <mxGeometry x="851" y="96" width="355" height="300" as="geometry" />
        </mxCell>
        <mxCell id="FEMFrTbNhc8YpFnRi8aE-112" value="" style="shape=image;aspect=fixed;image=data:image/jpg,/9j/4AAQSkZJRgABAQAAAQABAAD/4SIQRXhpZgAASUkqAAgAAAAKAAsAAgAOAAAAhgAAAAABCQABAAAAkAEAAAEBCQABAAAAkAEAABIBCQABAAAAAQAAABoBCQABAAAASAAAABsBCQABAAAASAAAACgBCQABAAAAAgAAADIBAgAUAAAAlAAAABMCCQABAAAAAQAAAGmHBAABAAAAqAAAAPYAAABnVGh1bWIgMy4xMi4wADIwMjM6MTA6MDIgMjM6Mjk6NTAABgAAkAcABAAAADAyMjEBkQcABAAAAAECAwAAoAcABAAAADAxMDABoAkAAQAAAAEAAAACoAkAAQAAAJABAAADoAkAAQAAAJABAAAAAAAABgADAQMAAQAAAAYAAAAaAQkAAQAAAEgAAAAbAQkAAQAAAEgAAAAoAQkAAQAAAAIAAAABAgQAAQAAAEQBAAACAgQAAQAAAMMgAAAAAAAA/9j/4AAQSkZJRgABAQAAAQABAAD/2wBDAAEBAQEBAQEBAQEBAQEBAQEBAQEBAQEBAQEBAQEBAQEBAQEBAQEBAQEBAQEBAQEBAQEBAQEBAQEBAQEBAQEBAQH/2wBDAQEBAQEBAQEBAQEBAQEBAQEBAQEBAQEBAQEBAQEBAQEBAQEBAQEBAQEBAQEBAQEBAQEBAQEBAQEBAQEBAQEBAQH/wAARCACAAIADASIAAhEBAxEB/8QAHgABAAEEAwEBAAAAAAAAAAAAAAkGBwgKAQILBQT/xAA2EAABBAEEAgEDAwIEBQUAAAACAQMEBQYABxESCBMJFCEiFTFBI1EKMmFxFxgkQoElM3KRsf/EABwBAAIDAAMBAAAAAAAAAAAAAAAHBQYIAwQJAf/EAC8RAAICAgIBAwQABgEFAAAAAAECAwQFEQASBgcTIRQiMUEVFiMyQlEIJDNSYYH/2gAMAwEAAhEDEQA/AN/DTTTUPw40000cONNNUzmmV1eCYhlObXn1KUuH45e5TcLDYKTMSqx2qmXNisSMCocmUkKE/wDTsCqE870bRU7cp8JABJOgAST/AKAGyf8A4OfQCxCqCWYgKB+SSdAD/wBk/HKm01CLtX85vjpln66e5+324+zsWLDizsWkyGY2enlbMl5G1hJAxyPHsaW4aacYlGxOjO1DjSvtx7t15oG3rqRvmi8ITfaZm5BuXUg5z7JNjtncKzHROeVeGBLnyE6qnBC3HeNOUUgQeSSN/jeG2QMrjyR+vq4Afz1/DOp/Ox86+QR+eTp8W8kUbODyhXegy0p3Vj8b6sqFW/1tSwJ/B+eSzaawCxr5SPAPKIEyfF8n9uKhuvjHLls5fItcLltstj3NWo2T1dac00T7euvWW4RfgIKf46y9223X2z3jxiLmm1Gf4fuPicwyZj5FhWQ1mSVBSAbB12I5MqpMluPMZBxsn4Un0y2EMVdZBFTntQ3Kdk9a9urYbRbrBYhmYKCFLFY3ZgoYhSSNAnRO/jkdZxuQpL2uULlRewXtZqzwL2I7Be0qKNlfuA3sr8j4+eXA00012edLjTTTRw40000cONNNNHDjTTTRw4VeEVV/ZPuutfX5TPM2/scgznxi24vpuM43g9fUR97LyvdmQbrKLfLKNb2r28qZ8dofpcUiUbkORmk2JNbkXdlax8VUmoNbex7GfLIL6jxiktshyW4rMfx+kr5dpd3tzYRKqppqqEwcidZ2dnPeYh18CFHA35MyU80ww0CmZoia84XyO8pMXsvMHzRznZ2VkOfUfkPvpbZPFdnTJ8fHUpaN6VS43IxmslRmHaSFksBlm3knIa/VbFXQJGozRiCrj1Qzhw/jkscM8kNq8SiCLQZ60TRm0Hl7KYIWR1SWUfDKWr9laYaa/o946ue8sgeaCGarQUysZ2AjSy3xW6IVYT2AwZ4oQCUZPqCOsJ5+emrskyw7CzdrJMaOcpwooPC7HNISq76V5IU6tIzwTfVTJ2Ijj/VvkA1QOStksOdXE/2JpFJOrxl7G23EAmfeKK8gSGRdBAVttR5BS6r1QrtY/tT5W+RmNR8rwrcSp2JSjsHEo6Sjw6rt5ax3A4KXJtrq2jyZr8l2PJ90ZYor0c6C5HQWx1mRiHx85pkm3cmZurvVm+VZrXxZjjWTW9Fg1FWyHBEZgwWKbH6j6lqpZRpwRdssjt7H3OnIV+OiDFHN92xm8liq93x2dJZ1E3vUEp5ZJo2SQgyQ3Pov4Y8caxM2zdBcsVT3JNK2rKFvEYnMWKHlFYR11aMQ3vr8VNXYt0ISWmt4ZP8Aql9DdAoir2cqB2EXWK1sjDqOfT4PfEVnZyYp427bvvtLEqPYjjtPKfFVcjnW8ywfcjR1fsiYjk8670VG77ePvnh5DfHzu9hG4m213Sx6feKhgnuls+60zKw7LJuMS1eiyb+OwRFS38qtmS4rV1WrDySlWSQmUmC4kOTTW6+ztvhUG4x+fBcbmQpoy6uYHZTblgSi09HdUR7sGIf9SSEXdpwgVsz54xDtttL28usfvbSzubxKNla+srrexclxqqPNcKRIhV7RETjbCzCckKJuvKrry9iAeGgruK9XLS1imTk+gyePecx5GKOWC5POsEioCVYRIZJWiMkmhHIElWQHsA81nfSTFSENiAlzFZGSss9Cd4pqscH1CTMwDFZJooozKIohIJou8axOhBkX04/FvyR2+8s9jsE3121kmWPZpVo9IqpTrLlti9/DL6XIcSvRYImwuMetAegyTDhiY0MexidoU2M4eQetGT4c/OVzw232a213UyBzHNgN45kbHcgW2dX9FwjPybBjEM6L2SEZp6x98kxjL7BsAa/Sp1bb2irEx0H295htwHgFxshMDESEgITEhIUISEhVRISEkICFVEwITFVEkVdeenPm9Tzvx2DJxMiXoOlbKVgUBitBARMkasSte2A00H+I1LErN7LHmIfUjwa74F5HYxcyu9CfvYxdsglZqxcj2mf5Rp6xIjmCsToxykKsyDnfTTTV95QONNNNHDjTTTRw40000cOagH+K03Z82MW2/wBjNutmaPIWvF/KWb283myPEIxu2V3nlZZR42H4hlD/AEcJnD6utOTkLcCOBt2uQvwJdmPppK/WuD8fjpQsdyLJtzJeKw7s7qMdOr9oKTIDLkQycsb2mjvPpaOEikgE3CP6dUR43PcQovqSX+OUGV1UuiyekqcipZ7atTai8rodtWS21/7JMCey/FeT+3dpVFfuKiv31rQ/Kb8c/ijtpM23zTavZrA9sw3Dusko8shYljkCpppV3BjM5FWXCQ46gkB+ayVnWzGawIsSRxFddjqYGTlV8qxdK7jLEtynXuKhiJWRUSUqjokSLM+1CiWQfb9u+7aBYk8unh+XuUsjWgpWp6cjCfTxNI0ZPtl5XaGMhi7RRsN/cNKAOo/EA+O+Z1xV7kVG3O0dXe5u0VzaPZjf19a1Hpcahmy1+lVlnNSLGrxf9rLr0g2ZBWQsusjJjNSyeaKcnEstyd/EI9jYrXtRziI99PKGU/ZtoXVFbkw22Rbbi+slMiF914C4VxhGSVW8OdrNmsF23bYCDEhSHGZBSI8dyvjxo1eKIqkkSOww20sgzNTOY6Jvk4XsM1P76u9nG6lfj1RKNAIejKN8NN9zXlRA09nsHlPsqmIi2PPBEq/kmk5lckPHMZKtj6bGYyKtJIxZ1BJ91piGfSxoRsR+2AS/wWYk8c2Gx/8AM2UWxAbWRyE1iNIyVfZ0oj6lSWl0EUsWYgA60FHxywfkXY47Mi2Uawrq9X/UcoZTYBCXs4rhOADpFwJKiA0AsOMuttGiIS9ewxQ3t+7XThkOR47FVVGSx2BdYBySgEjjUYiJPqCix3OX5D7rfR8BZAOwC52u1vNvBIvrGVHrYsuIgyX0dWUguiik8rnCSUbI22lH+gMRgRZNtTUjRzq4OMDtXd5TOZ6/VrHN1FlSZAOMLLVPYTcdpsz7pFZUPyMjbE0EgQ3F/bHHkGdqeQ3pbcVWtj8aAweTSqbCqw1KFTQ2676O3ZgxVgi/3DbninheRw1KGO3LauWJFR1R1YrD3I2oaRWCog+dLrYJLNrYP1HELJyk2E0HSZkPo6LJE4Y8OqfpFz3l0CO6wCNtMC0JE0JASCRca2SfiB+TrLMHyfDvFzyCy+VfbX5G7ExHaHM8oklJutvshRGIdBhtldyJBSJu3NqQLTUL1okmbh1m7UVqzkx+YjVVADV40/AihIOC66j5CxKaEk9qg2gtif8AVMXSBO3dUXoZAiqokJCuqU3AyB7EacBiPJHvJhINQ3HjpCfhOtOtn9a2oPG9/wBGTTfrmsyPYzIXlo2iXhZH068uznjWer5nB2ZUrQ2I4ZqTysKeRqBkNirajHbvEyb9uw4LRS9Z43WRRytepviOF8pxVnx7J1opZWSR61xI0ksY62FZIbNWVQjK6Sjbxhis6Bopg0bFT6fCKi/sv3/lP5RU+yoqfwqL9l/sv21zrXC+Ij5oo/kUuK+MnlCbVRv3HZiY/iO5rZxmce3dfZi8QIN/HQm0xzcicxHMURgXKLLZoGUMqy4lM1UrY8RUVOUXlF/lNek3j3keI8oxsWUw9pbFd9LKhIE9Wf20d61mMEmOaMOp1sq8bRzRlo5EY+Z3kvjGZ8Syk2JzdVq1hNvC420FusWZI7VWXQEsMhRhsfKOrxSBZY3RedNNNTvK/wAaaaaOHGmmmjhxqI/5XUiS8b2VrTkAMwcpyu2ajrwfdmPRQoJuOMqqiTPeZ6/YoqrbhIQccGupcNQv/K01IC+2Zk8Ikf8ARs1BokUUcclM2FE64y2SqnT+g8KmSqgqC8KqIuupeFZqlgW1LV/bDOqgliVmiZev+mDhWU/GmVWJGuSuFM65Os1Zis4932yNnZaJ1YEAEkFCwOv8SR++RdxKlpydFc9fqYP1EQI4qJwQISl1QkJBFU5FS7IoqooqL99Upuht7WZDWviDbrklEIWPSaH7FMCRTeJxG3UEOUBOhKTY/dEXgSSpai1ZksNfTPI3IbVRRkyAlBRQUJgl7KLZkiKoKRcq2v4/dPtUTtrH9BjIR32cmjfSP70QkQSUSeFRFQ5REXrz+/BL/GkF5zjqGfxN/ETxtJXu9ishjWRKx2A2gfb7SkgMAW6kqARr45ojwPIXsLkKOVicw2KLHUKv7ZsIXUgkqrMia+1/hWB2fj88j2Z8VmJ8v6mwYbYYaJECI2ghHJEJGyNwTT2E65wIIpudF/JSFVUl12ttn8Gwltx9kob7ikLxK8jaK2Qi4JiyypGbjzaAXLBq2Z9kNrnsjS5nWNbZW6yQG6WvYUyQWwYVqT6hT82jIyJD9hivKNKH48KpKqqhWVu9mYFhKbfekyHhdVXXXVIWXX1ccI3lUy9hGiGSiqmYj0L1oPDbYpluT0rrUl+noYO/eKts38rZCRIQ21KVYiw6fkkEMDtTs6+NSQeq+Tv/ANTJ+QQ0Y/bCihi6k0kkgZQArzyFQuzodg3Y7OwORx7rZSlYDsbHqcZ00BcFp8EejQK8JBGTDM4Di/UGrSn2KMron9/YBxvWp6wSyiUtRIm5DksxbS1lOtNND7OVfeVBaYr4cfjsPqcDlWAX/KiuOOGQqTkjXktHosIsmaGlaSNMdZR6QwgKRIAOOi79QaGrfZ5B+5i02KoqGKkDoqcbOUV7mSZdSNet1YlbPScYe/qw48y0RCSAqC2itofr9fJGiKfT8vyOApmWPKXKFwQQVaQcWXrDp7iwIG9hGchljaQCMMoAO2OvtB5ca0Vc42DI1u0li6Ekj94ksBISPdIBKghCHZf2w+G/XLkbSx7SjfbzJLCTVX7MyHdV1jXPg1NqrSA+3ZVsuveX1dJ1VYRoU2FIRRGPNitKIOInC+hP8Ynm/T+dvi/j+5Lr8FnczELKVtzvNSRHI4rX7gY/Him9cswmS7wqjNqmVX5dTsm0AR27OVVtm8dU+evPTynJ1xujlOxxQpIx2Y7DYGCmRPdxAyZaBUUv3EOpNtJ91dcJQ41In/h4/IfKNlvkSx/bR20lJhXlNjuS4VlNUcg1gnl2PUthmmCXixDcBpbSul1VxRMykbQxrcjmR2uzRAAu70B8iv4/ye99VJ1xfkUlWglQEGJbUZP0lhB+vZ9wwF97aKZwdkJ1Qn/IbxitnPE4r0MSDJePJPkUsHZlek/RbtV2UAakCrYVWA6yVwU695O3oVaa4RUVEVP2VEVP9l++udbd5gjjTTTRw40000cOP9v3VURP91XhOf8ATn99axfnx5GrutnF7cgYx8QwKzPG8TV7lFVpu3GmmzHlRFEEu56lLPsvcACE24SpFbTWzp/r+/CovH9+F54/88a1HfPPZnKNmcvzDC7yJO/RbvNam/xG7IAJrJMTsM1hzWpcZ1rhsZlTImNQLiMatvRZcQiIPRLivu1fzS7Nj/F85ZgBM0WKvzQEHWrMEPv113+uzxn52BtQOw383LwKrWueUYavZk6JNk8fC/8A5fTz2UhslB+3Eb6A+ftZjo65jjSZnKg3jTsyB6IchtxAsCaI+SRUFv7B1IAB1OnLqg4iuISN/wCZFvLJyv0o1JcVXFfFUZJv7tul1ElTlPxEUHheVJP3RURS+y27rsW4rJLbjir9Ix7W3nxVRFT7E0y7154DqPHZTU1BUXuXPYrDQt66J67sMdq7mBKlU76Bc1s7+tJgijyRuxI24RhHNxHEYeEVDlowMVMh6ovFZKezi0TIiWI2iZoJpEG42PXYZQwWRT2bqSQdA/J3sv7IY6GllWGMMciV19mZTIx+O5BILKWUuoTt+NkDWieZTOZcyROE4rKIiEb5CikggBga8D3HlRMxU14H8UXn8ftq0W6W89NisWY2xMaWyZi9vp+OUVxfwBlt9CMmTfI0OO60hL9mnHGybV1NU2WR1Ny4/WV0tgrCXFek1/VxUjS0ZBHpDaNtmI+/sKExHBVVxoEJVVRVNYC7qtWTWQzVmqcjs8+5JbAidIngIvW0rZOIY8kwpIDS+vv+Li+zqSqT1E8tyvint0YWSw+VMohuGNQqIqHsBplYyBSoXR0W0TsDYcHp54tjvKJJLU59tcf7bSwKw2z9uyd2IcNCWXRJVCw+P0SbG5hlcibIsLCc7Ilz5pS35Eh4kkvqqOuNq4aoTaiwPKArbXqBAaBwEQCRNWzxNWXTftpquvA4BdHRRp18nAadROgyCROOqqnA8g506IIl1FKf3WzE6GSzUA0ne0PkZTpH6mmzFFUHTIR9BPqatgiqX2BSXqP56/C1mNJAqGQVxJRjGRgW0FSBkyNENt00VRVQUB7GH5vIiGid3CLSxx2HsyY4W5I3LZN/cVyS7yoGBdmZf7fu+NMwLaOx++MXMeSwVMl/DKvxDSjMcr6ULA6JtEXatv4C/IBVe3wfjXKrnwSsYspx4WEklHLq45ykZhxSIAIRaBtFcY7IfH2QEVQ/zIQ6yQ+J+iWL8ofhIyLxTJTe9ov/AFDHYwcGPh2XvyiJRFBQAYF1f+wEbThARCFEwYscgvJTbTbL7TbMghVAFEQHwFT47cKLh8iSD1M/yQBNUUkJUlU+Crbu53G+Urx/eZbeSu2srNxt1L9xrs6EevqMDuccgOO9kP1hKyDKaWChEor2fFBRSJD0zvTijND5Z4/BA+xJmMe7RKxLBI7EQcr9pKqoDMwH2gAkkfPFh53mpLXh3kj3DGUhwWRV3dECiWaGVYAAuiWZvbjTY+59BRv8+i83/wC2H/wH/wDE131wKcIif2RE/wDpNc63vzz540000cONfEyPJKDEaWfkWUXFdQUVYz77C2tZbUKDEb7IAq6+8QghOOELTTY9nXnTBpoDcMRX7esafLLxmx/y02esNosizrcfbiNJvsdyaFlm117Fosmg2uMzlnwGHVsK61q7iinmRw73H7SC9Ct4DzkcyYdRp9vjmMwikNeNZZwjGGN2KJJIAeiM4BKqzaBbXwDvnLAsLzxLYkeKu0iiaSNO8iRlh2ZE2OxA2db5h/vB8tGxe3bFkWJY3k+4/wBC8sVuzjPQMbx+Q6S8NSW5VmT1s5XEvYgfap1feBsnGoysqLywTeTPyIWPmhnGL4xb45jmOstH9Lg9FX2T9jLgR2rSryC/yB1yWLM2xkPxqFlo5DEKKxGjNMxxYRXXXDkvc+IPwt2eyS5zTyY8rN0s1q7vIHMxew7dDcLbrbrFmnWo8SK3W0cXEcex3La7GY8KA9HGlo7uOEj6mYrr7hyXlcx/8wNxPBhnC9tNnfCPFNro7WO7hBk+eZLtrgzdVXpV0eM5DVwqWZn0iti2mU2060yBmc62FtbNNxYTsmylgZMA8mPUW1n4PG8xLlM3iMXElKSNcbFJHJavyzhYViGwHAYzaQiWUkJ2MQ1x2endbBSeTYeLDYPKZew1yJjkZo5Yq9BICJnmLKTHsLCdh40VmcR9/kA4NZ/kjOObdZpYe36dwIbCNCDZE4+/IYNiNHZaVUQTOSqtCgKXRQRFLjtqBDAbDM5++L2Rbe0mYW2RTZj4ZwUcZJ41Ep0MWDq7OTPYap4z49HHIbaE5LQlN5pRcJ1CkV37zHJchkVu2uMvlYTckuYcqPFjKUe046i3K6iHDrVdHdiwHYswhb6/WGHtQjLnJfbPYlzAqCLWy2WGnlabfsURGBEZj6AUjuoGSGqOh6/aZE45xw5x2MVo/irrmYaMp7rXp1I0kQrpQxPX227a7Bl6nbE/IDfkcv8A5SZsZZt10WKW1PYfXVyvtjuA8jOOzaHXpobLAgqPyRZ2ux+eE7G7RcflRig29ZLMmQaMY6BOZOYDpRnnW1EWyMJLietXB7KqCHKLQ29UGAzkF9MbFmOiy3GwaN32mCgiJ+BuIX9R90leNCNB4RB5U2x5y/vJ2KULTUYpjTMmVMjV8QEd4EpUp0I7TQgK/wBR154hREFf3NV5URRNYA+R+QG6lyYCDKi8+HLYIX1bxl1AwQXVeVF5QAFFEwIUJBBEVNKv19x+Pk/lutD/AE5LN+dlijIJQRLXVQSocosnuMdkKGZWOwCNtf0LsZKCDyOayQ5hqVwXPZVPd5n0ytv3XRUVVYLsKRoAs3IwvJp2OtbTSjfUfrcgcb6tOD7DYiwDFFBfcTitewycL+nwJkAJwiImqDxiTCWjR6YjDLTEdDbdRxoUdFleVE1FRVVXsJIvZVJD4Uuycaqzcmj3S3NzXBtitpNvMh3Q3FvYqz4OF4Hj0nLMntnjeRkP0+mo4suwGOyZkEqzlBHgsk2qPSxBs3Ans+P/APwz/kvvFCocs82Lr/ln20flRZlhtdjr1Ve78ZLWtmLr1fJnQ5Fnh+1kaxEzEpkt/KsojgKqmPVclWn27j456f5fLYDD0qMEgQMjvZJVIIkkbszmUMqLpdgDbM+tBd/ipeSeb4XE38heyF+CNy8hirgmW1OQHAVKyguWY7HYhUQ/LlRyE3x52X3n8wd0aDajxn23yXdzOHQbk2tZRRWQocKrpLyxhyPOsrnuwccwihZNF/8AVMgsYIy3EVipatJppEL0EfiU+LDHvjz28tckzSdSZt5Nbm1cGHuVmtKL5UGPUMOV+oV+2+COzo8ae5jsCZ0n3V1MjRZuWXjTM1+LDr66ohRs9fGDxH8dPDTbWFtL417U4vtZhcYm5M6LRRCctsltW20aLIMzySc5KyDMcieBEF26yOysJyAgsMOMRgbYDI/WgPEfTXCeKzQ5Adr2WijeNLUuvarCX/uCtH1U9yCUM0vaQqSFC7PM4eYepmW8nhsY2Afw/DzSRtLAumsXfZbvF9XKPtEaOBKteMdBIFLtIUUhppppjcWnGmmmjhxqBj5pvLLerbBvaLxv2XyPLtoP+MUS7yrcXfuhxeTPfxzGsUtqhul2/wAWvZFpTVNdc57ZjPiZfNbmu3NNiLLMOthFLyyNLizz6tFvxsnhHkVtBuJsruJGkyMR3JxG/wAQuHq9xqPcVsa/q5VYdvQTnmZCVd/WDKWZU2jTSvw5jLToKqCorGZinbv4y5To3DQtWIjHHaWMSlASC6qpZerSqDEJNt7Ydm6P/byUwtypj8pTu3qa361eTvJVduiOdEKzfa3dY21J7f2iQoFLqCTzS7ucflZ7IYsMxubCddy5dfNm3ttcOXWQWotMtM9EkX1hbQav6dn2NuqASJLb/slBXsdlBfp5JMxLGKZqs2ywq43JzUpkTGcA2ewYmncmyvJ7iRHj11PTAbwyLB9wHnrCwnuA6qRWJL8lxtpfczOLY/Ax43S6Ta7G4m/3ltV022DkIobELcXB25dq3BiyGmRctB2zCyqnPqJBuI5XySbYiuOwY0dptWHI+cHib8dnjR4dnKudvKC+zLcicU0Jm8+8F9/xF3cWsmqSHjtXlk+DDDFcVbaL0jjWHVuPUz6Irs+LNkuOvmmG9JbmXtRDPTUnqRzpNMwkls2LIXoyqAeoUqS677JGraYKwAXjsHq3jcTVmkwcF5L80ckUaFVq14Qzdf8ABj1Qr1IES+5rQDqw2LReNnxS+Ju1lXS5xuFsxhu42/lxUxpWe51mSTcubavJsRgrCjxaqtpj+PUWMUDyFV0EerqIz30sdZ8iQ/PnS5LuQWUeAfiHl0Z2LZ7J47DB4epOY5ZZNijwJzzy05jl3W9FRf24Hjj8eOv21mJqmc0tb6ixDKrrFsbLMcmqMbvrXHsSCxZpzyi9rqqXMp8cG3ktPx6or2xYjVQ2Uhl5iAstJTrTgNEBOevhsRUpx0ocbRWrFEkQiFOBuyRqqgv/AEy0jkKCzHbO22JJPEtNnMzauvckyl76ueYyGYXJkKyPIWHVjIBGgZvtGwqD8aA5CP5n/FD4M4RsnuTvtS7f5xV51tBir2d4fOZ3o3amVsXJsWks2lO5Lx6zyuwo7YZMwAjSYM+vkMT47xx1ZVw23A1BPJmdNTG5uXxO7ceE4lktarCA621G9r8x14WxEXmXUAQV1Q7ccIR/j0GZXyizr5X91KzDch8ifFPyl/UM5yT0M7NbW4bKzLbnB2p5E6yxCZ2+ucnV+VW0gL6pGXrHuJ0uJL9j8aQbiDQm0Px6eXfmlW3uKL48XGzm2Ns3aYjZ7n+R2JWu283HSVh2HYzsa25yaNF3OzlQbddStkwqujx5+0jow/kDDTX1KYx9SMd5R5t5vg28c9N89jsXhppKEomx0NGO7/1CyS5JyEStViaFkWJp7De9AgburMsS7W9ObXjvhHg2b/mf1K8fyOSy6RXFaHKyZCSgPYEUdGJhLJZtSLIsjSCCELFLtVVte42zN8ZvhDsj4beOOBx9u8OoWNydxsNxPM96N0krmFzLcnNsgoq64tZNteOidmmOVkuSsDFcWbkNUtDVR2AjQkmuzpcqRhERE4RERE/ZEThE/wDCapDb3FnsHwPCsMkWZXb+JYljWMPXJRBgFbu4/RwKdy0OAL8oYJWBwlllDGVKGKrysDIfQEcKsNbbrQRVa8FWFFihrwxwxRoAFRIkVFAA+PgKNkfk/OzvfMNW7Etu1YtTSvNLYmlmeVyxeRpHLFiW+7538A60NDQA1xppprm51+NNNNHDjTTTRw40000cONNNNHDjTTTRw51QRT9kQf4XqnHKf2XjjlP9F5T/AE124/n+V/dV+6r/ALqv3Xj+P7fsmmmjZ/G/j/XDjTTTRw40000cONNNNHDn/9kA/+0AaFBob3Rvc2hvcCAzLjAAOEJJTQQEAAAAAABMHAFaAAMbJUccAnQAOMKpIEZ1bGxIRGVuaSAtIGh0dHA6Ly93d3cucmVkYnViYmxlLmNvbS9wZW9wbGUvZnVsbGxoZGVuHAIAAAIAAP/bAEMAAQEBAQEBAQEBAQEBAQEBAQEBAQEBAQEBAQEBAQEBAQEBAQEBAQEBAQEBAQEBAQEBAQEBAQEBAQEBAQEBAQEBAf/bAEMBAQEBAQEBAQEBAQEBAQEBAQEBAQEBAQEBAQEBAQEBAQEBAQEBAQEBAQEBAQEBAQEBAQEBAQEBAQEBAQEBAQEBAf/AABEIAZABkAMBIgACEQEDEQH/xAAfAAEAAQMFAQEAAAAAAAAAAAAACAUGBwIDBAkKAQv/xABFEAACAQMDAwMCBAMGBAQFBAMBAgMEBREABhIHEyEIIjEUQQkjMlEVQmEKFlJxgaEkM5HwQ8HR4RclNLHxGTVignKi0v/EAB0BAQACAgMBAQAAAAAAAAAAAAAGBwUIAQMEAgn/xAA+EQABAwMDAgQEBAUDAwMFAAABAgMRAAQhBRIxBkETIlFhBzJxgRSRofAVI0KxwQhS0TNi4SRy8RZDY3OS/9oADAMBAAIRAxEAPwD34aaaaw9KaaaaUpppppSmmmmlKaaaaUpppppSmmmmlKaaaaUpppppSmmmmlKaaaaUpppppSmmmmlKaaaaUpppppSmmmmlKaaaaUpppppSmmmmlKaaaaUpppppSmmmmlKaaaaUpppppSmmmmlKaaaaUpppppSmmmmlKaaaaUpppppSmmmmlKaaaaUpppppSmmmmlOaaa0lsY8eT9s/GvufJGPjHn9//wAa5II5x9ePz4/WgyVAZKeQMn9Oft719018Jx9s/wD4J/8Ab/XXwuB8+PP3+4z8/wDf/wBvOgE4BBPoFJP+a43Ac47eYFI/MgD9f7Vq01t9xf3X/qf/APnWsEH/AM8ecf8Af7/H9dIPtzHI5984+9ciFYSpCjzAUkn9D+4+k/dNNNIIzj/+kn07Az3/AL+hpB9D+Rj84immmmuKU0000pTTTTSlNNNNKU0000pTTTTSlNNNNKU0000pTTTTSlNNNNKU0000pTTTTSlNNNNKU0000pTTTTSlNNNNKU0000pTTTTSlNNNNKU0000pTXw5AJGPAJ8/t/5+SNfdbcpAXJPEKGZm+cIqlmwPliQMAAH7n9gfpABUASAPfAnsJ9z/AMUiQqOQkkR7CqHftx2Lator9xbmu1usdhtVNLWXO8XashoLdb6WEqJKirq6l4qeCBS4DPLKnuKqqsWPGFrfib+hiK9mxT+onY8NSsXdkqWkub2yIgpHJDNdI7c1vjqI5nCNE1SOSMksbOpYJ1a/j/8AWPeFksXQLoPZTcoNr9R6vfG8d4tbnK/xSl2RT2Sms9nqY45ozV2+St3BUXGtopFdKmSio48KF7uvOHQWi+3+iWSCjjtVDJNBPLUXenpoo5IxGjL/AMAtOkEk6yCQrJJSsKeNkjZJiwcRu76ostPcuWbyElgp3JUlSVEFaUp2CJUJInZMZKsYqZ6T0Zc6lptpeWqit64ccSoIEpbSE48RXAJM/MRBgAGZP6J+0d7bS39Y6Xc2ydxWbdW3q6PuUd6sNypLpbqjAjZo1qKGaoVZwkqN2HCzjlxeNDjNyFuRI4r4PtPMe4H5HHw6uowWV1AAZOLMSwTwyejf1fdWPRBet3S7CrLVvDbW8YFluvT6/wA9ZBs2nvdOag0W4bbDTzvPQ3FTV1H1wpPpIK4LTq0cawgGR25vxkPW9uWSShsG5Om+0GqG4xJZtlQXWaA5Aj7tZda+pd2HwjBYy3u5lsLx8DvXGitAeVQWflAQ4QeDztgYnmayw+GXUjhlLbBagSt11sJAkcpSSqZwMDMZAkj2G+3zkqBjPkScs/fK48DHwc+fP7edLSKnwVwQ2GLcBlRjBDkNnJH6Q3j5x4DeM+D8UD1907du79c7aKlYzIEh6d7dVZgPIXPJgpGfBOfknHzrY/8A1X/XGgYS9Y6Zm5IwU7E2/Go4luSiaJlID5UsWQkYGAPJ12o610Rxs79yZjlLmMj/ALQPQc+p9a8zvw16jQZ22u0AmWj58EcKOOecQRXs6JyR4B8Bs8sDic8iPueIxnIA9w8jJA+cxkBRkHycFmIB+DhVce73Y5FckHGfOPIpt38az1e7YNJS3xOme8IYWSZ5LlYbjbq6sj/mhaptt4WFP5eUn0rgZHFF8gyB23+Pjv6FYhuv0/bUu7c3aV9ubyqbZMsI8hFjvMDU7Pgng3fIJB5Kpxy+2urdAUrDwaHd1YWEp4+YkYBOAfevK58P+qUIC27FdwlUhKG1NqdXESUthfiGIJPlMAEmBXpvz/Q/5/v/AOfj75A010i9NPx3vSXuaOjh6jWDqL0ouMxlSta4WaHc1hoXiKKpN229LPUSics3bCW5wOByw1IHdP4xP4eO0bBQX+5+oOyzi5d80tjt9ov1XuRhTpGzmWzi3JNS8u7GIRVvAZsydrmYZAuTa13R3k7kalZ7Rypb7baRxyVqSBM4msO70t1GysNuaJqYWTASmzfWTicbEK7fvIns5011+dDfxR/Q16hZbZb+n3XrasO4bu0yUW193vUbPvrmF+GGhv0VJRFpMgwxx18kkpIWNGchTPqKpSdFkhKzRusbxvEwMckcgLLLFISI5YmXDJJG7K4PtPxr2293bXYKrV1FwlMSpk+IkTgeZMiPoexrFXNnd2Sw3eWtxarMwm5ZcYOP/wBiU1ydNbauST7QR4KlSSCp+CcqADkEFcnGASfPjWDkn+n9Qf8A8a9EiY5/9vmAn1KZA+5FeUEGe0eoIJ+gMT9v+K+6aaa5rmmmmmlKaaaaUpppppSmmmmlKaaaaUpppppSmmmmlKaaaaUpppppSmmmmlKaaaaUpppppSmmmmlKaaaaUpppppSmmmmuCQASeBk/sUAnFaSwGM+B9yfAAyB84xkkjAJGfOPjVr7v3ZYNkbfu27N2Xi37d2zt+3Vl0vV7ulVDSUdrpKSnknmqKmeUlEjWNCoVFmkkkkjWKFzkGr3W40Vpoqq6XOqp6C222mq66urayVYKGlpKKmlq6mqrah17VNS0tPBLUTVMrpFEsWWbJGPJN68vW7dvWl1DuexNg3ySH0xbDvS01mqbXNVRUnVu9U1KI6jeVwmMFHJUbehrTU023rRIs8MtNEbrUzO1yWjo431V1HbdN6Yq7dh24dSPwduDKnnFKABJGEBElzzlPywMkCpT0j0rd9W6miyYUpi1aUF3t4QdrDafNERK1OkBtIQD8xJISCRYH4knrG2f6zeqWwbrsHZFyg2x0di3hT7X3Xclakum7abdDWRpb3T0ixlKG0tJZMUEM71k1RCPqHFL3lhHWNfdz1AmWblOsYiKsQQ9QtRwjRyDxVI1BQEL2Gzn5GPOdd3Utu2xaYHaSCgEERpaSpo2cvUtxQf/ADKORgBPNgL9REY4VjRUSlTgzPBe4bjke+VclXO8NHDNUc3EisiPlMnieAlBwOGCnnkB/XXq51PUdadN9qrpU+6s+GlvCWWxkBcYVPy4kyZ7E1ttpmk6XolijTtOtg1b26EBS1+dV24SkKUJkpMyo7oBggRxV5tV1dV33eWeWdg0mSQGlQHPGZwUEZX+QrE3LLZAI87cd8qKSmDUOIZXKtVBHInTt+EPNozy48pcFQM+ckeDqk0s8ctDHV1WXFS0phGGhkmiUx9qRGVpEQHmchv6cSfIFe7UKq8iwNXzPTwhqWhmFTPRoRIDJUiSGljiVwcrxlmL9p8hCoL9hvEhsheQ2n54JIj25yPQete/wkKSJTtQYwBPJATgSeY/ua2X3Wao05+uvc0xYiokL/kgLgBWypKgZbyD7gD4GNKy5VUkcxjronpVHL8syRze/wA8ZGYMJCpXwV44ycjyNURo0jWeOjMzBvfGvBFWaUZLU4nkljjp3TOGMxAYkdvnxfGh56hkhjcSvTyDtmBnjU0kvjvL3oo5IqgHKYZHOOOCBzGcSvX7MJJDpW3wUhLidxSeBKZwczjjnsMg3pF04Eoatv8AqAbXVbYAiT8xEEgED3xzNWRuLfdzho7mtuq2inhopFhDxd5+ccchUo7FPJI9wC+MgknxqNOwOq+6LmZ/7wbgeGameWeaN5GWdYTMyr2oiDG4VYyW7sUmMqF45Ytn64UdPRbmdJmaek5RGRpHVkSKUSLNlePgLlc5JDfumDnGnVTo3DaLhbN5bXWJaSpU0tyMblYhSTvA/wBSygMMriUdrj5yT3BrLaD1Rodyr+HX3hMm6Kgyt5DjiCWkFyFbEqInbieCRUf6r6R6htbFrVtI3upsYXcttuJYUErUG1EEqStUbySEBUgHABms6dPr/Jvy819JZLxV01ut9HC1ZuColnpHMhWQrS0SrKkKyVPblVzBGSO3GW+UAzJdKfphRJQw1+0YKy4hYzXV0tfPVXKsEilTUTSKI5pXhyzxLNUQiIyt2+XN+NhdOwaXbVFRWW0zU0EnddKunlgjlZljTNVDLNb5VnqGYk09GVXlmRu+AhDYQ6gb2bbF8+kt9RfnkUs9y/vMtNL/ABKpkIDxQTxR05aCmx4CxqIu+Fy5JIkdvp1s/wCKyWbN+3d+RKUup3gFJBBgbSFAEExwBjFQF24vnG7W6Xd3loVKw+1cLLyVpEqSlDgAIWBtVOIJgmKyzubpZFUd+9bRqWktlIqVce3L4BMkxiLvFUx1RqHrKdoebmIU8qurcWZ2Krx7V/wk/wAWfcPpn6l0Hp89SXUHdO7Ohm9zHQbU3BuO4T36t6U7oE8309LFV18stzbaleKtaedGqXS1x0EEscMhkZD079LurDVV3jslxpY83ciCkMJDw8yHCU6xs3KNcOxeTuPngPYuNRq9QFHuzZ290vscP0K267CtpHpVRu5SGOSUywO8ciAntcJUVW45QsxJAHUw7e9N6gwrT3bq3X5yi38YG0WkoIUhaFK7pKgiRhRGcGMjq7Gm9S6O7b6lblwoQgfi3Qg3AIWgpcCkTkRuOciRHav1ftubksm67RQ7h2zdrdfrHdqaGst1ytNZBW0NRBKikNT1EJ7bq2eS8irseQaNChzXYyp5cfscEg5+Pt/Qj7jyAfgn7fnT+hD8SHrV6X7rtXdOz9xV192vVKP7wdNb9cLjPta90ssTVE7xxVFXVm0XhIzUJbq6kj7CVEoR6UCSPj7yfSx6n+m3qy6O7V6v9Nbgk1sv1NHDc7NM4F12vuGKBZLlt28whFanrqJy3/MSNZYWgkjB7pVLS6S6ytOolv2AQnT9QtwS/auGVXGzJWhyCjAG6N0wIA7Chequhr/p1u21CVX+m3pUbW9QgpSyUiShxBhSTtASFlPmUSIT3knprajkLgniRj/Q/JBUg/DAggjyB++t3U0SoKBInBggiCPqDmMiDwe1QeQQD2JIH1HNNNNNfVc00000pTTTTSlNNNNKU0000pTTTTSlNNNNKU0000pTTTTSlNNNNKU0000pTTTTSlNNNNKU0000pTTTTSlNaHbhhicKMlj5wBj5IH7DP+X31r1sTkBfJYAq65THIEgeRkEAkAquRhnZEyCw0BjMEgAyB/tjzH7CTXBSVAgdvNMxASQZn7V57/x3PWVd+mmztjekfZkNYl19QVHWTdTr9b6w09TYOktLdrbbbpZ0amdasnfDzVltqo45aKaW2UNZDFNid2i6r3suw9o7NstNt2yNY4aGipYZO5KszVMsVIkqvUg8UheUZaPsxKuJTGYx9OGkgn+Ml696sfiE+oLp11m6YWK1S7Ql2TtXZ9/2TvNdyXfaP93rbQ19LPPcorLRR3BqyW7XO43vbklDa/pKqq+gFzqzRGqll5sDfFl6kdG9vb8pqOhu394LJQ1lMTCVWOje3pTxtPAJ5F+vE31Lu3IFyoUInHJ1/wDicw9sevLp0ot2yj+HpklLhLjaVAxJRAJPn2zxkxWy/wAKPw6E2llbISp67bLt+4BCm0bCpCpOVbnAhASmSAQYAzWAvUHf1baklRHHQxpJWUVNNDKGd0WeLmhUwoZFmly3ZVIXEnafLxBV5QJsFoq77cZzf6SWTbtNU1HO40lLI0DorQiOllYyrmohBLMhJY8sFQdTb3l9PcK2WxrVhYHKztWtF/x9I0aJGy0bHvxs8ThEMUihlEqhHGG5VTaWwZ7hRpbpLPJR0lBPHVyRRMiRXSqllWOOaogZEAnkiZqiskMhVuEaCMA81qO31pYa8JYSEkpSFggx5k5AEkzwI++Jq69QtGbd1rKtqkqKgUK/2kzxxPrkZrEe3tuVM9FNDT241VuWRYaColpmjgqKZFBpuUYaWWOReTrxQuCfLsMjVbfakUUssu5kqLFQRUpKTV3Gnt0s8Y/JpKVKZjPV1VSSRTpLJGE4NlTzOLl3ZvPbG17jR7ZS+1NplpKqpWqFJTTR1tNUUx5LLAQk0Qt0/gVjIk/bVYTyGfdkayQbb3lYIJrncKO+1lxpErVuFqepktdEokeP8w1EHEVUKhXmqo4+YZgsdKQCdZLV3L2008XbNq++l1s+GGWlvFZVAEJaCld5MiAJOAJrG6TcWd7e/hnL1i2R4mXH3EtJSEZgqXtCZI2iTycCoiXK10/fqJ6OOmkpYhHM8VRLJHdFdO52l+lUS005xzKxupZQRkgtq1XrKlmE0tLDFTwszFFQ00szuVwssamSKNlCfCQxn3Hlz9vGX9f0M23d6i4jb97qqevp4BNSyoKoQy1kYAFSytAVanHc/NmeoRnwmKZPOow7r2PftlXupt17dVWB/qq2pjeWRq3vKrU1SsMkMZSCcrKISrMo4SYZ8jFPO9QXjaS0/bOsLBXKXWltqyMQlYSTJ9icyavWw0yzftmkMX7FygBJLjBStPlCTBWklIBgD5hyKxzuVLbL3p0heGqlji4oJHlVshsxn8qP7ge7B+fjOrq25uWlvG3Kna99po0rKSOMW1Y4vFRHJ3C8VQrKMhRFFwl5HhyYlCX1bdzMvcmjqJmQSAVFJUKobCrk9sxkKc+UwRJ4/bJ1Q0krzUrV0rPPVxwnkX4RCSmBAnhQ+eNRIoXsjDFuLgYwSY8dUvF+C8la23mVKUMERIAOQYggkc/ecVJEWDLzJQ4whTSUltTUoUHUrARuOSJTu3Ce44rINPuCrsFXTS/U4s9OkWKV4/yrfNASsk0cSHlNwjleNX/Lz3O5j8vi3G/ujt3fe7a3cO8nt+6JrhGlHtTb234DSrbLUgb6ZblXzVLRTVkssry1NYaWBnEaxtEvbDniVdjqK2lprxbrrSxNNEsUdJOrT4kkVuVI6KeLTIRiVmC8S0eFbJGsYbS39eLFXXbblSklL9LWySzxN2Q86YnD9mpak7scKkqyxIPap4ljnxaPTPxOv7O22OIDoaKElZIKgCtKZiZIkkYGJBNVd1N8LtOu1eNbqDKW0rW20PKCpQyOwBgkicYxV+9FOkEt16j7ujpaW1U0W1qljSwVc5qJKViZu00FTE4hAmVJVeRyBEYlYd3kQnO9ZdptO19s0O3o3o7rcloaq5vVR1MU/BayCJDbKaoj7oY0zFneYuCeaL2I8FtUzbvVXackl1p6vc1dsm8vbJKGasskPbuNXBNULGrUESwNBJK8TyGrqatajsgQtEg7sg1hv1pb32HZRbdn9LWpLhaYrNbGvO7rzWVF13Deri8KSVIqZHgoaWjMckkqrFSRHj3G7pk4xcZlqHUd9r2oaX+Hac8NwhTjiEqKUBKd5BUAI+WAPsPes3dAt9IsNQ8YJc8MBAQpSZUCpCSUjdJKQZxyB96jf0p3DXvarfRVEspjt1VPyC+Z6illjEf8PZVPugWSGKWRgwZmSML2xyLd7X4UXrzvfo967U1VuC73ir6JdSpaSxdTtrtUp9JQzTOYaLfcNHKHf+I2IyTRmnpuw9bSVky1Vaqwor9AXTXuipYQqEiZI5oOyC78pBIZeUpIxkhCvs8e4DOpQbZmrYni7qsqy1EQbuxq7uUYtGGDRlpImPISxq8IZWC8j4KY3VdWe0bqAahZXabd5hTDimt4SXkoW2XQQSJlAVIIk8Adq7Lbpi56h6W/h9z4Z0q4SsMKITvDgy2lM+ZB3hI3mAMEqAzX6rdivNt3BabffbRWU9wtd5oqO6W+upZknpq2jrqWKopKqmljyktNU0kkFRBKjESxyh8DPmrDPnIx+3n5/wDTXmb/AAVvxINv3Kx7b9HXVapktm4KGaei6P3+sepkivFPMZ6wbErKqpkmH19JwqH2s3cjWe3AWYwxm2RVNX6ZAcj+v3HnwcA4BxhhgjyMjOR8g63A6a1+16n0m31q1W2VXbLbbrCVjeytsJUSpBhYkiJIj0xFaX9TaHddNatd6TetKacYcUUEwpK25ASUrbKkEkHICiQQZr7ppprOEEc1HwQeDTTTTXFc00000pTTTTSlNNNNKU0000pTTTTSlNNNNKU0000pTTTTSlNNNNKU0000pTTTTSlNNNNKU0001yASYEfcgfqSBT8h9SB+pprYn8BGD8CrE5JPBl4nuIygjkTHyZCfCSKrnIUq24zMCAqglgeBLhVZhg8CRyfJHIjijDCNyI8Zwb6i/UF019MXR/enWvq3fKawbL2Vaai41Ujywmtu1YEaOgsVkpHkjluF6vFUy0NDQw8md5Gld0ijkdel59LNvdPKcDKWrd9RdcBShJDSiMqgGTgR3IrsaQtx5plppT7j7iGkNtjcpRcUE9sQJkzAjvma/No/Ex9OlR6lvW36gutW2N4WiwWzfPVXcgr7ZX0MsbwPYLxX7f8Ar6apoIxC01dQ0sRninZDPU0zTRugldUlttnqNsrpV052P0k6e1xntu2rZDT1dXVxtHUyXaU85iw707yUtNJ3OyjtGHWRipXLAQo6kdeH3luPcl9WlrrJYLxuXc257VZIOailp73fa66QNMsbwyyzSrULFM85/KrKeshiiMcYnqMAVvUi6XeqkhtRltMbtHM9ZNg1FSVLZHcKoQI8n5YlRJ/Nnxpz1BrOs6+FW9y7usU3LwQ5wNjZK0wTHdIn1+tb3dD9O9O9PJsjakL1B3S7cXDSgrcy8SgqQSoAKIzJBKRwDg12UU/V/Y1juUj33cVJSSpXSVlQY4zO1RUclYpMhB+mjZuBROTg8XBzjItXqh61loLpabH0oi/i91rHmlv09fEaa0uJKYR05jqVSfi5LSMkSouTAF5e8FIDtab/AFcDvUZqZ6jFQ8nISGWKQqEaUdpu6R5K+6Ph7h7uXtzh0V6R11z3VTz3G2xVdBSmOpmMrtSxFYweJkUxzcyvdPbIcCLi2Qe4OFcu39lZFxaXVXK2D/0QlZJUCBztIwTIyJAwcValxpCdQYLbiUWxcb8jpIO0AAzAM5Ax7k1grq71t9b26jcJodr7ks236+lagirNp7Qp3uElvzHFUilu0tNVzRGsj5SLIkBaXtFfPAOIOXPc3W3bN1qLdU1vWCOkmKw2WG90V4o3RpOLw10VKwihRkmEyySwmVZPy2khGEU+wXZnR273radBNR3OCnp6ULDSvNKVTsxoQI6eNWQExCXHKQtxJVgvuOuS/Rne+2KuGpt+4LhWSJEgSpaGmq+3DE7PEojlVoKhqczSmEzxyBA7BVXm/K2un/iw9a6VaMv9JvPsokB5sNqcMDATuVjcQAqZkSDgVROufCayvLp5aOrmbVxZMtul0N8gmQhJmBJT/wB0RwK833pw9Onrv9R1xpKjbV83z0/6dQVcS7g39fX3FZLBGXEgkMCPFQVd6uMwp3eKnoo6mBnjUStRiSM1HcPbvQVveCisNrrPUFvHqBc4KU0d0vG5aKaR5o0KfTJRf8UJ4aenLTKtLW++FTGUnlLyCOf0Wzd83eppP4zfr3VUsQppu/EZLdOsicslqShmhoYmHwklPSxM45dznhCkttjbFp6OjFa7M2Y1PKZpXneUggySNJUF5JJPBkeUyAYHFEBPLxa7e3XXqgwjpm30lhwpm7Wy3+KBRCwUqRJG8gJImCFHB2iPX09bW/w+ZcI6luNWcTxbpeWLVW4hKgpLkHyzuEcEA/Xz4dQPS7vrp9dlFTWXO7WkTJFHWvC00LmMryUiCWZqMSdxcdwv3OHtB7bYsa4bPjpaiOGOKdSJAk00kcyRxqULTNGHEfcmg4p28MM9xv0+M+knqrsm2Xfa9RHPCWCLDIVeNGMbHmGnRaVIGnVMDuiaQdvKFDhnz1N9Wek62GuirAyLS1Fwi+nCCaaKWolSQwyhe5L2kU8hPESAeSDuHj4pTrPpq/6fWEGVNKTJgCVTAAxkZz+o9avjoXrSy1y1daICH1FICiowmClXzERwCBnvJ4xDqxCnp7SJBNG0qNMlBRUNPHBLLKGCxVVa0sspMwwSzBVzk8vOMYB6t2OoilodxpSTR1ElQ1NXzxMjoxlMXImRAOR9pDKUGM4DHPiUj7bhFdNT1dNHFAwqIzWzJJQRx3RWZgI5VabCDA9hUCfkMNHwPLDW76Cru0z2ghUp4IY5p5FElLA8qNIAVhZpRKSFz3BKnLwSo+NVtpN/dsXsONLLMrCgTtxtUPUDBMkd/SDVkXTbDzKUmHCoJ8qVATBSSN3AEc57H7RguG36LcYlgqY6uOdVkjgrrcJIaymXj7SZoz7VdlDOrKQ3b9pXB1hmq6RVYpLnDXVUt+4/mRTVFZK7rxaQkushl7bkdsEBj3Cg8Lx1MCz0NwoZZpqRM0rt9PJOw7KvgsrZDRyc+AbwwZcZzjz43f7orPVVUcbRyU8yGThHITI0jhi3JuIBAOPGPg/bViad1zqGlJ8K3ukBKthCVoUpTaZTuhe2E4kRM1A+pOjrHV0h5Df4cpgKSFp84UUpJIBg4Jx7flGzYVkpLJSUiPC5kLBeaR+5MHHF1LElVzhWyOXn2j4OfqaNchUkdGRA4KhcHn5XOQfK8T8N4yf6a4ibUEFUGaFoHQmMYYBCAcAmMgFj5/cfJ/pq5P4VWUUYVojKpBNOwUqWLY5cm9+f5QucY8kfPjE6vrzOqah+MuHFrdJQZBISSFJlMHttn0Jk4AGe3T9AastOVpqYDKGz4a/RSkgTAE4n0H51cuyN13bZu4rLuXb9RU0G47HcKa52O5UlY9PX0VxpKiKSGqppRNDiTnwgJUB44p5GSRBzWT9AH8Nn1fP6y/TLtzqderfS2zf1nrKvZfUa3UBjSli3TYYqaWpraGlNTNLT2+7Q3CG5UcMjP9OKp6JamrFIamT8960U1WlRJ9bT/Sui9yBmjSo8jOeHJAf2Bwy/yMc8QB2ofhQev+L0V+oKpsu+1r5+ifV9LPtrd8kaQxx7Su0F0MNm3sYZ5o1eit8Fxei3FJAFmajFPWOypTdh7o+DnWydD6hWxfXBZ0vVB4SPEWSzbLSgqbgAqjxHAlEgRkzHNa+/GboBrUunfxOn2vj6tpUulbaQXrporR4yZkElLRUsJySUgQTAr3pAkkjwMAeOWWGR/MMYX+mCc+fjGtWqVarrQ3e30d1tlXS3G2XOlhr7fcaSohno62hrA1RR1FLUQs8c8MtM8csciMUaOSN0Lc2C1QHPyPPz48jBzjB+/wAf0/yGt4GFpdZDqSFJWhC0LEbVpUQQWzwrBBO2SBk4zWjriShwApKSCpKgQQpKkiClYOUKBwQoAjuK+6aaa+qU0000pTTTTSlNNNNKU0000pTTTTSlNNNNKU0000pTTTTSlNNNNKU0000pTTTTSlNNNNKU1tSnivI4CjkWdjhIwqM5eRsHhGFQgv5wxRcYYsu7qzOoe+ds9Mdk7p6ibzukFj2nsmw3Pcu4rvU/8qgtFopmrK2YjkvOQRREQx5USSlF5A4zyCkEFWQM8xkZH61wRuxtKpxAwSDz+mawP6tfV90X9GXSy4dUusu5qax0Repte17EZE/j+99ytTiah25tujUmSpravKdyZZEShjcSVCElEb8/v1+fiP8AVj1nb6ue4uru4Pptj2O7Sy9Ouh236wybd27bSiimrKyCMJLddxtGIoqq81oMUCGup6SjV5WnhjX+K1+L71b9f/qLvG4tuVZ2z0E2JW3Lb/RfZlXRxVbQ2lJniqt7V7TIpO5NzvFTVX16RwtS2+Glt8SssAqJOpCTf+5YqisuVTcjLJWLAs1Q8EbfSpAjhI4HUI0FIrPJJ2HMrs8khM4wNQzqSw1HX0qY/FKYsMIetmwUqdTuTAKx5RCoPI4IHvPemLvT9BAuiwly7jc046CsMmACAAmZPc5yJkACJdVm5rhuK5tClvkphKKdleIlzKpZ1SF15JgRRBIkX29qKNA3dkaSVpRbe6M0tygttPHXW16qqWCsqlmmWGoipmGSiwdxy7O3IYDrkp5x4x14dNesdjrL5arZum01TVC1CNLcLHMYllowRCKupjMT4VTOrsVkPA5U8ufJe+zor0c6ebo2/Zd1Olxt1VRU01EK+4SKiG3QiKVbpUpLUU5dawzxx0McYkCCnndpsOq6pPq/o68sPDtLaWrRIkJBBU4pcDkKxkyd0Tkd6vXovri2Wtd7cfzLtWAraoIbEQBBT7kDnt6GqXsn051cVmuU1+WaK01NEkVBU0vCK4Kg5mHlTs8hCNkCJxKOQ5kjxg5+6W7Hk2xBJTLFO/dp+zTzXGmWr7CswGZCrx8zMFXwxXhwOC3nN0fxfjNV7PsSPd7pY7bHWRS1MklJbRSLzyKm91UcdpA4rG0avUq0fJwofJIsSivm/qneUm27nt63yWhbjEkd8pr9FU0rqsNNOipHammXjJJUSQ++pIH05aPmZHSKv2OiCkq8UBKnfMVrKSBEKznkgRJx9ZirJd6+8VByVAIIS2gKk4jBjEAzyMD6V2Q7QNLFbqayDEc9RS07vBGhSOMlXEk0Awe2AAGlALfKEnxk5MpaSgan4C4ieCnIhkKVZblLnCqjmIFOBUiReLZyvkY89c/UjqtW9N7lZ6Ka3WdbnUdmK1LFcbgJsqsfciqBOsStFMHhBIkJUK3tbPnIOw+tUt3niS5bd/gtwqXYTmx1bVVBWy0+O2KeOq7Qade8TKA0eTKuDJjK3T07pNpZaVZtrbYdg5UUJIwkAdvXvz71QHUOs319qDzjLj7SNyiYWR3EQJHoPpXZNYbdDPLTz1VRTlYY0WKADDSIQfMz5HIgKvH2eMtj51kxqujipxBHT0aOHjWPnyYlW5B+AVVGfC5JbweOATnUR9ubukepSKO4vHWvBDUNS3GOOKaKFOXLERqMGRQ4/LiaUvkcjGAvPN8W9II6NI0vFuqqyTsFKSOnkjrJQ/PkgjdHRcYPN+6BGSvh+Q4yK6/D2tqpxKWWjKCFJRMStH+0E8RzxB7c4a1Vdv3CEOKfd3bpClwDCf8A3RiJE5xiudvajrbjYqq0UVXUWyeaojnWamRZkqIITmemLF1IRuaA4I4hvKtj2xU6iWxqiikV7DMheOKmnECJOfyCvZqhC8aGJzmU8oyeZckkcByka28rYfqIYauODDKsscoJqKec5L8+TBSuQO3wYdzDghOIBxjue/UdyrmuVVUQQU0EYplm7hUO6eC7RRqxXngHzz/fl8g091rpDevoJRcoUuEgJ8NQ4UknJSBhI/xJ5q5Oi9VXokJVbLSkydxcSZMeyjE8Z457V11b92HVublX0tJTzoFmqIrWj9ypDRRoiPPTtEgEyl2aMq2SeeR4BMRNz7denp45LitZHTiBZ5CFVu40cn50LT+x4GQSriIQTY+CR4J7atzyWi7ziopacO8AVzPA0aB5kP5T98AtJGTyE0LwpnKe8+dQy6i2CK5XIzVlgENuulE1ZVyfxemokp6tJamAi2GaMc3Yok1TGkT8yYEPawrSUJrnRxsFFYeBAypO2JmO+PXmcnEVeuidbG8SGCyUrJ2pXuBKQACYHfgiQe59IqDlHZYrnXtbrTJUz0jVEgpBO6U6SM6RsRhg7DLDjyYDPHIHnA5Vfbquxlf+FWnlileAvLEro0gKBljkUjnxyORKgDkuB51fN/p7ft/6KqjgijNvidUu6ozuzRsCprolZY2dVbjEFkGSJGJORjHl13ZJJQT3OSoSWjmkziSDw9R5/NgUyMU5HBf5BATz41BrttsJUw35nCRCoIOCkmTgcTwTJ+tTe1W/ckPFZ2ZJTuGZiMEzyftB952JaCnNdAanMtRUfmTJTgS9vHAxgqCvHucmx8/p++NXvJT0a0QjnFNRRumB9UuZHKL4aMnjwK5936s8k85GdY12Z3rlcGv9fVJEsTFIoXf6cT8geBye4GEZUDHAY54yc51Xt8XH6229qYGOohmzHNFOCRFIVDARhAZMhFyeScT9iTgR4pLV0htSyVbsiFQCTnIEY4JwOQPfMFlxTJIEApAmR/uT2mc8VaZrqMz1fCpapSGQoJIJVAjC8gFYMpwHycEHxwPgg+MV3qWad5kkrKqenmll4RMlPKIleNoyQ7xO6ZVzG4UhJqdp4nXm8UkFz1CWmAx0cD1NRPIjSygRlByHE8WAf4bJwScAA+POtqoslRWpF2Kb6Uji4ByOY8E8jzIcrxBA8eWPznUpZvUs+F4k7IlJmCFQdixgkbVwoR6QDWPVpjZJcK0BwAgb0laQVCIUnIIM5HfHtXpB/BU/FZpdh/wb0f8AqT3VBDtXMVJ0a6ibgq5IqexPIJFj2BuKunEwp7XI3bfbt1qp46S2pFU0NaQstPOvrgoa2lraaGroamnraSqijqaappZ46iCajlTuQ1MEsTOk8MisGilhZ4pUYPG7AgD8vuCx0t1VLYtrieumRU7jl4Z5o0KvMkZUqOBZY+aSScJMJlTx8d1f4an4sHUn0m1MPSLrvW33f/Qpax6e3zTyT3PfHT5aphEr2isl7xrdt0XCE/wRmghooUknp5kPNJdpvhT8drRpmy6Y6pelplSGbDVlIdXt3iG23QhCl7SSEFRSEoJ3KISmRqT8XvgM6s3PVHSTY8Z3e/qWihTbfivA7nrxhbi0N+dO4hkK3qIASncYV7Zlfl9vGAQw8qclhgE4PIAAsCoxyAyfONerI6edQNo9U9m2DqFsC+UO6NnbttdNfLBfbXKs9HcLfURhUlSUEL3BLHLDJEPdFLDJHIFdSovYHPzgHAOMgsAfjkB+k/PjJ+D51tu24h5pt9paXGnUhba0HclaFAFKgRIKSCIUMe9afutOMuONPIU060pSHG1jatC0napCknIUkgykiRBkYr7pppr7rrpppppSmmmmlKaaaaUpppppSmmmmlKaaaaUpppppSmmmmlKaaaaUpppppSmmmmlKa6+PxTtk3rqL6EfUDsyz1FfTQ37aL0O4JLY5jrV2xLURLfJEYeVhpqMtV1hHkUdPOfAyR2D6p13tlDerZcbPdKKluNtulBWW+voK2FamjraOtp5KWppKqnchZ6eogmkimiYgSRM6EjlkdboUW1BM7oER9R612srDbiVkSAcg+n071+KF1q6V746BdQd4dP7/bbnao7Lf6+G3XWqppqeg3DZmlEdhu1nq6tjT1VDXWmOjqIPpqmbiZWByx92J46upldoKu9QwvIjLLDP3XxFJ/KYe2kjyHAwOIC49ruCcfpd/iD/AILF36oUtZd+jdLHu+02Kjq4tnbPmqdvR7jsUFVUT3Cex2uTcdIbZdqaGeSWOjSvullko7fT0FDT1DPE0mvJh11/DH62+nSnrrhZOhh33RSVdRX7mt9JbpLb1H2jcYpE+sM+1b8ZKmahjMjNLcLBX3u1VSwA0BCpiTzNOuNoWhxmQYIVKSZSQRxk5gevM4BqQDwn0hbbiZCRKDjnHf6n2weea6wOgnQ6a9Xmz3i61LQ7bmmhCzRpMLrdTDJ3hQW23KefYkZFWreWdFAenZUbDDXoz2jYL7Q2SCOO1XVbMi0lLBHcq+hhoKON6GOaloS8iGa5TydlzHaI4qR27LL9XycFelmxbl3pYLrHUUm3942uthSeiUDbMi09JhVRopWqfpkpKwthaZpUpWdknAD8fbNq0deepl3t1Ct+6Pb+rqSnipleqobdPQu8VLTiCK4LFcTTQS1eczSV9NKRF7BHJh+RjmooYvVLN2lKdh8pVBiCPbEfvtWc064dtkbGQrPJQCc+hKR6x3+tdlFGds1G3JdxS7kqK+03G0TUV5tFnoUoLfQ3yhnj4pcNjX2viubuoVk7n1JpJxzeCSVQyrGfc/WXp/L26vdlwskhsEU6pUS2mt2DUF6WTnRQpRWqaakkITEZqHqKr/lhgqdxg0Yt2dSJLilDLerX1EuZWkFDRPItBT3ERrzlelnudLWV9ROac9mJDUrK8XJuB/McCNt92F1x6/3evskdruW39iWiWOnhqq0VDzywNHGzLX1n03KVwvERtFFHjDlufNe3A9Wt7FSihJQWgBvKTkAEcZnkDgd/Sp/pFxfBhazvD5TDSVpJCgsQoknjyknJHHrWOOunqer9x78lr7LVXStcXGBbXGb1VV1pgFM5ELMZY2fEanKurQg+Q6yADj2V+nPcfU7e9hszV7UNTHS32KUVE0ktLNOaeGmqFqDMjEmBe+0awhV58CxlbIVMe9J/RLsnZNutbXG3Uu56iKveW4zzUcwSqjkiwtKDPIzKYmdiJwh5Yx2l5ZHZX0z6NCvloaaksqbZttPJCwNKzQIaWBESGMIEHdbijcpOSk8lyp+dY/UNdsrXT2bGwaJcSRvc2qlEKB5IzPAifpGa5s9Du3ro3l68AiSS3KTO4QMAngmePTjmpedPI6nd1fRuJRSvSRwRMAFaAVUiFZ5RWSQNJHG3aX8oZDY8vkDUi7V0jsljvVRuG33e5rWVMC/xullrmq7bXugc08dM8vuoJCZKgRrTQSCQviUgRpmy9n2QWWkjWgkghooo+MokYCSRoxgMcxgnJ5EefGT851fq3iGA0/GaSokRZGWZCy9kyFMoikMv5nEAuwJHAcAuSTj2tSuLm1Wl6QDtiTPCknMflx+lZ3+FsMFK0gbh8sCOcHIxx+Y7VR7o1iqUqEeiMVbRzRmS0yw4uMMZL9mWRead6OXhIwlDuSEPKNMjlj271VFG8zUFNTGVyryxKY1eSOIOGWHvkAPGHPdMaTEF4+QB45vDeMVHUCGokaRawq80ckTlasD2GRVnUcismF5K6sPA4BMtnB25NzwTQpQzS/RIxkCzOaKKoili4FWhllKydqXkTWNGQzcYcq2RiN6pftWCS4tQC0xCTOZKQe0cTUn0qwXfJCGkqIJAKh2iDwTJ+09/SRim8bho1r71Daqn+GV0AM/Kst1ZMKnlIHlgpjmGnrZYRFxAVqYxiYMBIG4rHnfNwuMdl+su8j3G2/UPNb5bbT96WCsnlLxw1FLV0rGgihc4qSamOMhkOZAmEvDee57TDLWTz3CpuED8oK6S2U9wqYYWpyO1UxwL2zDNTGRyZ4pSk3NiyntLqPm7dyXWWlhqaW4TUlSZYVW4WyWWZqq3x5FKK2Crj+kqmmVpVradqdZI8RjvkuCKX6t6lYfQ6CtCUjaFKEkpgp7ASc+WACZOat3pjpl+22PLQqeUhXfeAkk5/wC72yMDFYn3VFcVq6iKueChS7QfVi11dWrJLJSrkTJJEr0wjqBULxWBmKcCHH6NYQkorzdqwQyUbJRQSJ3TDL3qWLJIiCR9uJTzCPyYMScDx8ZzFeKWjmkqq+pFJLI7rJNUVUjwEnz7KKgzNHSL5YyrDJxcmPK+0DWPa3clTBTzWumipkhaVXiqgpXthSxALeDkgjiTnyDgDzqnv4iu5U6LZCXBMeIoFO0kjzCSkkpBkczA8pyKuOy0hTLKVvEtggHbIIII7AE/T9M1wbzXS2yn/hcSoXDx4PbZGQN+koAGxjHuYMcgA+CNWfcbjJxRRWtLWiRVlUy8440GMEAleRxnKj7gZOcZ3bxcK7uNVS10olCFA4EdSi5GB7SYWQN54klicfbHmm7ZtOIqy4VFbQ1NWlTTrBBVI8lTKKwzdxoYwwUdnsRlwxfPcTDJglspb2zSbdT7u3e3tO0pkqKtoiSkApBIx9CQeKySWEKG0LO0fMcwMjMDkzHA9eKu6hSleKO4yz0tTMqtG+A0ZTIXiWGGxzAbAHL9DeRquNUPIqRwhOLgEESMGPbyfaeBIC8vcDjOQc/bXAt8rQ3aJpaWKAU00JeKaEyQSr7ixWGEHmz4BEbspBAAY8ji9Kylmnqp6y3zRokqmXsz29bRPFEo/NEFLUTyiQAFeLJIDJkFgnjOEulfzCVEgxDYJO2FDCSUiAU5OYniJzXDjDLaSreSR22qzkD/ADiqPT1UFGk9ZUyVJkaLhGI4KmdHnX/lqexCwi8tgs8sQcHxy4njWLXW0VVDwvK1s9VPD246GljWDt9wjgwqRLJNH3MBZRLAQ8YZBjJYUjLcqeClq45ZpplaSGoqHijCAjDFKWcozHL5jlzwwOBwz6vW21FRB3qWC10UtXLxSO4Q0hJUgMW7jPLn8vI7bF2J5MfbjLeuytluNK85aUY84WmSJHlSRlKlDyhRnzEGRUe1S4bSUpPnAKVBJSSJCgoFWIIBgqEZGBMxXe5+Dt6/qvoTuyxeknq/WGDpdvC8kdKrvV1CtS9PbrcO9ONt1tVKkMMFhulY6yUc8kkKUFYZYu3KKsunrep3EgLhuWQDg45DOfccMw4uArJxYjiQQSCNfmbrUVkVxWtrXq557fIGeUVvNYpIXWanlRI1iaAwTxRzJ+a55QgBlAYn23fhHerys9S3p0isu8but06kdKp027uKsqJ0NZdLLHCosV7qRxDLLPDDUU0yl5yv0qO1QxkIXdr4BfEN/ULNvo/VrlKrqzSpOn3DiwtT1q2nxPwhX/SpoI8QrUQFbSEkkidI/j50C3b3p6w0u0Nva3BSb+3bSEoRcrKUG8ATgh0qCCgDcCpJIEGu2PTW0XcKDwBbPleYGB8ggn5B+Mj75/YgalYknK4A+DnOf31s4QRE4kEie4EcevM+4yK1lnCTnzcCDuECfOnlAyBKgMkDuK16aaa4rmmmmmlKaaaaUpppppSmmmmlKaaaaUpppppSmmmmlKaaaaUpppppSmmmmlKa0svL74Izgj5B+x/Yj5yCCDrVppAODx9J/SlbTRBiCSfCkeAoyTjkWOMkHiuUJ4Nj3qwAxZW6+muxN9wGn3jtOxbhT6ZaVXulupaqdIgHGI5WjwigtyEYTtZyCjKQovrXzB+5J/6D/v8Ap/nrmEgSkJUewKY+uTjAzmeMZNcyoZDqk+gE8niTE8//ADXVN18/CP8ASX1I25favY2xI+mnUOpjqa627i2rcbrTUdXcUieUUt225LcG29WUlxmWKOsJoIJIl/Np3i/NWTzAby6QT22tvu2LgtXm1TXKy3W2SokMlLWUNTNRzQF0hiqBS9ynd6ekaRgkTiRJMVGB702A8g5wQTkeOOAcYI+PHLz4x9teXL8TGw2jYHrLrKGkoxT0G/ti2fflWtNCFge7mvutmuruq+1TPBb7bKWP65TM/EliTEuqbJK7QvNr8JKykbgSBJWmB2jgj7gdqnXRepPF9VmtgXDm0rQg7QRsErO44iNpiTmfWK6LaPoltqCilFBZaalqYHq1DyCcxwzNxWOeCFqg+/JcyhpDzIQAoAc3TatqbsasprNbayWnpn7UrtEe2vMRwo7BE4giUQAkSM/DwFJyxacbbRtkuZ4I6V6ef81SyqrqJAreUz5zjB93nGrvs22LLFNDUmlpO5HGqJxQAnx5ZjknIIXAwfv86rFOiLK9zlwopJBEkkGSn0P7k8VYL/UpT/6dNqlsjClCPIEx3genbuSOKxpsrplTxUj1l87c9Q6GVgZGXk8SqFUg9xVKkk8lRQ3I5BwNSSstHSrSUVNSqkbpFG0XZQTcSmeYlYiPAHtx493u8DHmgvCFAii7MSZPNg4UkHBACFW5YAOTkYyPnPiqUk0lAIFgd2ZuY7qqOIX2+0geTnP3bPyNfGoaW3a7FtpDojzTHOJ5+ucds132N85ekLDn8sFO/mASRAiJMk9p9ZrJYkgWANXyKxaMxxCnVYh7R7+aDl5wUx58+fI+NcSovNDHTmOFVdgFjaMqqsuf0vyCkn7nGBj9/wB7JqLy3bkicxhkIdXB8gfMpYEfJwpA5efPkY1a1buu3BmkifMXEq9Q/wCWiyIMKrD3YySQp5ecEj9tYF+5t7dClPLSylIkjsOAJInvGJ9uYqZNNPLWwx4Slh0BKSMkwmexPPqYxNVzc17QO0ZqGaYKgGI1K48/lsDICA2cZX/CSVPgait1AiF0vE1OKWCWjCQtNEjYMxkyZCe5GzrLD2wY2hlTy7B1f28alu3qNRQz1DOA1RDNF2OLtIJTiTCo4VQitgcnKuE9ntOdRH3Z1ZrXr6iKeqqVpIaioq6r/wAGUBYysdJTSBGPAF2YzcWD8FAiUknWvnxB6ut/GWzaXaXFDBCN0zIwAByP7VfXQPSr6W23nbQkqgpBKMjGQN3YScxBma5m/d71W3J5aS2W9IawyRxiZo5pmqrdSfoSrQSrGqFJ5grKoL8W5lsLxjZf7/XPe3npI4lsFwC1Q7FQyKGIbuPBDKZfpwzkho1dgeA8+ABxL51Bpp7UrR1tbXXCpc071koZnjhikk4RMvu8mOoePn3By48seOOsS1a1NwVzTTOYbe8lRHHJIVEVISrSwnyO4wZeS+ATyYBRjzS7Kbu8cdXerWlC1KSkLC4OQOARBSqCN0gGZBIir1b05u2YQlVsEwEwUgE9o4n6cHv9aqN63A8gkio69JDJVlFjmj7rheXuJl54XjkAErhifsF1b17zTRrUS1fcqHMfGDkjRBkGQ/FGbKknyGAwB4J8458c1riZJEio0hqUDSnJLRsM8GkVgeLk88JyQnzknHi0quee8VrxW6ip1p8tAJY4WQTgeGkkkMr9sqccCEIPJs/HjPWVohoAJSENDzLdVtCpBSQlQgGSRABBI8xMdjjSngPmSQICQlXAgcZgROZ7gc1b8Mddf70z10Jc5RFalk4wRIgYhxGDh2OByXIwR8+7GspbetiGmlrIqetd4ZTTMXijAHgiJ435kxliHyMOfaPOqbt3a8NvLUiyRPOHaeonNTJIaeF8mTirRIGYYwqCT3kYLIR5v6ktMFKEmV6z+Gu2RFMxo56ph8TpChqvZk+3k4BDe0+CA1jU2lpLLRCA3CUbRt8QCDJSFGJAMSZ5PesjpmkqW0tZHyiSFEAcZ5Pb++J4FfbfZ4YahmakqDWLxl/MeWRw7ZKPlJUEh9pKkhe35wDyOL0p0muDRrU1Cd5M47sZqKskYEaPLLzSmjGCAh8S5PI/lgjkUNFHLbZKqm+pjqWkCNG8WZWjjLCPhM0g+QzZzEPsPPwKVUVtTaKmDnb0Iqm98lZb6qoA7JXDGemqolj/AOac92KTn/IF4tyiVsVandhha1JJJSDlR8qZIGTAkKAg4H0rEaoUWzS3uEAwDyN24CMZiee3eaqjGwWdVWvpzG/N5O3FHRVMz1TFeH50M0bxpKRlUkhHDBClstjZp9wxyxzqsTME5MrNIKd4h5DI0XA8yoCnIfyT8L4zvzzW24zCO42SCrhKK5q6ClWjMEig8HEs0kRmK5PgmQrgksnIFqm9IEpEktVstsscayGGe6TwSOpbh3gVikJUScUDF+fhRgH3DU1t7H8I0lCwp1JKMZEiU9+ARE85jjM1X1zcuvuKJhCROxZkxgcgCTMx/wCAas2vvNNZrDcJYprdNHWAvNUS0cktUBwlUxRwd9clTLkuJQcqPYMgjIPom/ER3b6I+ult35tMVG5dm3SWkoeo20Yo1t73bbjMkdTJEJ5a1frKHLSUTCAnvT8C8ZcPqOvU/fNfSEWpX2nEe1iSlp55HmhPtB4v9EoQy5+Pd5TGfGo1mBpZmmNOklRKzOzqYzGwLKywu0iqZaYsA8kaCMvJHA/NRGFabdMqXot7/FrMrt32yFsueIB6BQ+aQCklOQAZweBUd6gsmdd0oaVfhq4YeAafQ40VAIWUiRKY3JEKTjCgkngmv1KvTN6nukHqw6X2bqt0h3FHfLFc4U+vtsrwx3zbFzWKM1Vi3DbY5pZbfcqMkl4ZCxkj4vT95WbhIxCSzjGArYAOMkfIb2s2AcnAYhgMEqARn8xj0Zetfr36NOpMG9Omu7XttueRJdx7eudRHVbd3XT9wBqXc9BGUWeIq7QxXGljhuVAJgYZpC5Ovdx+H/8AiX9HfXDt1qO1g7K6t2i3RVm6em13lWOpihiHbq7rtaoaGnlvW3hL2mhZqcXCnWqhWpM6MJU3X6E+Jll1ZbMWWoPs22p26QhpsqJFyUtypSVwUAlAJCSoEnyiTIrSH4j/AApu+i7y4utOS7faM6Q4m4wq4Y3qSAi5SCVKSCoBK0CACN4ABVXZnprQrhiwA8oQG8g4YqH4nB/UFZWP8uGGGPnGvPz/AE+dWkk7huEx7iD27GCRnkSD2NVEcEA8nj8p/tTTTTXNKaaaaUpppppSmmmmlKaaaaUpppppSmmmmlKaaaaUpppppSmmmmlKaaaaUpppprkf4P6g1wRPHqD+RBP6VobHkn4C5x+/hvH+oz/38edr8Xm1mo9QHS6op6eIzSdLaqmq6kBe4Yk3LcJIUcfIVi0qp7vOG+R4HolceQR4OCMkZCggnOPv5wMZ/wDQ+eT8Vijqqj1A7VrO84o6fYNDRsEJbDJc7hWuSF/5eRXpGFPLPb58vJVIp1ey+9oDjVuCXkuMqwQNqQ+gqMkgHyzxnPvU16BcZb6iacfVtaLdyASCQSWFAAxkZH07+4609vTS1OY6qklEkblElCntJEoxGhTwGxxJ5cl+fjV0mnnVy6FcHOOLcc48eV8gEZ+3+2uVZGo6l0hDssaocAKQSzY5c2PHlkgY/wAPn5B1cFXa4qfj+vgQXMmDkBsY9mfd8Y/UuMHx+0TabCLFpUlR2jco/wC4RiPYxn74qY36EO3jiUp2ocUQFDnkR3nPcex71a8UdaZwxPONQWkDKSRjHEK2RjPnJxnwDj9qrGtbKqSwh19xQxh8qB4AJOPHxnGP3wcjOtMdPVtLindXh+5fEZcD4Hksf3yf6jV32m01zI8knbjjfjwQsCMjkSQ3j7lc+0a6gwLllzxiABgEkE8iMDJzHbjtWTs2BZIBbJKjCoiAYzknAiMHsf0x/d6a5wOPqVUU8pXEqe0/15/OcZAxkE5OMY84o3JXiDuxucCMse0BiKVVAw58+cZPjz8/OfOpLVNkrZpGhrHiaklR+PJ/OVwQU8H9PLyM+cjz41hLem3pGEyQ0LTZUxxSKxAULgOSQhB55X5wFCn5z4of4jMXtnaXhbQ4tAQkhKDKiA4giI9Ac+wParr+HlxZ3V3bKvi3LaiEhREGUKESeJn159qh3u6plqKmSekmjT6ljFIHT2Rwp5k7Rz7HOfnOTj+movbxkhuUswpJJDLFMYJJXjPCaOHAMaoSvnLHm4Zs5U8RjUy91bSZ6SajCvE7SLJ7HERHDPMCQq+c8hn2geP6+MO1GyaGKGSmXhNUySNIstT+eFPy6R8THwLYXmxZuWFOBx86S6ndXLV+u5uWXknxFBveZBkgKBmU8ZAVAMTzNbtdNMaYq3bDHh70JSdoiIIAmeIAOMkVEeo29PMDOsf0VKhLszDIkfAK8EypYAg8myOPIeGyALaq7bUUcQkmLus0zCPthkUNleDOUEneUcvdGRGDn9XziR12s9bUM1LFbHKRymDjDG7oORAZySBjnxHEYOMEZOq5aOnFXinwO1A0gBhk4zsrkj3MrqCMH4UZOC3kYzr2sdRFpsKUjeoKgIBkkEgZVCoJJA+UiJJwKlr7VoQN2wJSBunaY9CAMnMevf2qKUmzI62odJZ1NIIoauqhp5mpGncE8VYPHJxGWcKq545YHPIavaybbt0U81Lb6IU8CqoeV/HJuJMY78jqucmTyq+c5IHgak7U9L++88lQtFJUCMwwySEUxYSFSziNFfJj7aAgt55DDDzmtWDYLLF2qmZIStVGSkVKlQkqIGXBWRCZc/y8WjK5Oeefb3XOu6k60ltDL3nA2IGEzKDOBBO0cmIECYArxJd0hslZcaATyCCMGAO3ecATxNR6sO3DHWO7xLMOzOOEhgmi7YxzZzE7MUT2BpX4GAspVJOTcbopduQVkzyfTVVBcUjijpaXjmKpgbucagSSYE8KBQYAkaZ5uC/6dSOpNk2+iWqn4UFNE84j7hhMU07OrlYGp1jASF+BEg7jdzwfbwPLfu9ghWho7nPNQFY1EUEvJUahPIAQeHVjGwQdmMhccXGTnx2ado+o6o6lxwKbQryrJWkACM43QZxMz5jPM1Gdc6mtbRtbNipJUtJjaCM8nMAcSJMe9YLaAwU1NSVVu+mqA0sQranjCtXInb4hYi2EA5eW5uPcPA+NU24UCv8AkVdLFUVCgN2RcnjhWLxzlVoon75QcMoeHAkANlsjLe4ooaqhjmutjeppadD+eVcqhTgFKiLk0RrM+18SDMPuONYur4XsM0K1lr7O26xRUyVlMJJLjQwzgE8yBMiRR4UmR5o+QGSildTO36fa08JcZdSHkgeaQYJwcDJmSDEkTPFVTd63c3DSWbgFKSuVmd3cFOE7iciCIkd+9Uc0NJHBIsaxTdoBzTdwIFhOeRZ6wtx54PHtBs8Dzx7NYr3puvam3qWsltl8tVLXCnYm0TwxVVTNOfhYJIayEQFDyDl4JO7zXgECNyp+9+olosU9wjt24JLsyq6UAj+guUKxEZiRnhnMkTAkiVZYgWIHEtxbESp1rt2Xia7Xqnt85ccBFRQCmnUMSUd2QEcsIPmNvg+V1JtPtHFJLt7cDwkCSAAVKMACEk9zHsPyrraaU7tO07Fdzj854ORzVTrLhXbjqZa2vinzIFLPEsR4qCeAVO0jYODg9w/HnPjVaoqaoSnjlinkjSQMFjaihd8R8clpHkfB94+EU/Oc/bft1snSOKCnpmdIl9pkcMOIxhSwCBvv9gR9h51zbzWGy0pD0squ6KoMfHgGkBAIPI4x/kCfv8aOv+M4Le2SFIUrCRtV5UwTIckZiQTmeM5rLJ05hDe50ASnjmT6iMgT6wPasb3CVlrpOSidlPGNpIl5RsXV8xLEI1zyjQsJBIvsHgeTqbnp+60796U7s2h1W2FdHsm7dmXCmuqXKiDx1JnhX3pJGZCJ6K4QQmluVBMJKaWIxyhI2pwskIbW0tRcYXYrHK1UpAnbkG5nwuADj9jk4/YZ1Ira1IKSfsXGcQwVDt9Q8LmJVikRoWUMVIPOnnqI1YD2u6yYJTi3pvr650t2yurB5Vrc2S27hKm1lO/wdpW1iAQ4ARE8k4kmsc7pNheWt3ZXtk3eNXrarclwIUGw7/L3yZgoKp7fLA4iv0ZvQ36tdpesnoDtTq5t2akju80Zse9LJC5U2LeFshi/i1Aqsol7Ejyx1VK0qIWjnbiXVQFmKhyWOMA4IznPkecggFSGyCPPx/oPD9+Dv63LP6TvUVJ0q3jfIo+jvXu6W+1VFVKrrR7Y34maTbe4KiaRe1SUFQksVoux5RI5kS5STA0i0svt+idZAXRspgHBwWUvmU5YEgjjKoAGVAGQzBvG+Pwx61Y666ZttV8RIv2m0W97apB3NFGxIcVgA7zHEmSeAJr84vil0K70J1TdaXsV+BccXc2FwY2vNrypAP8A+KSCIEJKMyqK3tNfAwIz/XH+XnHnQHJI/bH++rD7qHdEbh3ExH9xVcyISZwrCT6/8feK+6aaaVzTTTTSlNNNNKU0000pTTTTSlNNNNKU0000pTTTTSlNNNNKU0000pTTTTXBmMCTXI/wf1BrQ4Plh4IR8MfKqcBvd8fPHx5+x15/fxGmil6+S96r506We30rxIQ/ZkNPBIUbP6CDN8Y869ALEFGznDIwI+3yME/vj9vuCRrzMer7esW8euW76oon077iusMDCTmIobbNFaoVLlE5h/oGqF8Lw75iw3DuPxc27F1YvNuKhKgkHyqJnenHHr+xyctoy3mbgPNDzI3wQQI3SO59J9xI9qjMtCtNKZIVfiXCqGAbC5/UDhfnI8eR4+f3uatlldAyr3O3DEoBXAzg5/xcsjH7Yx8+fFIDMqtznEiKylWj9uA32b5AIwMHPnyceNXLFGBS08i4ldw5CM+A6pwJy2DxK5GAQeWT5GPMV1LTGLS2t0NKCiNxUmCMFOJnvPI9O9S1nUHXFB35lIUAZPBJA5xjMg+3tVuJSxVQDytJE6ZwFUgLyx/Vc5Kj9sDPjzq+7BS5pxG05l4gkBl8j/Uv/NjP7+MfvqjuUmjAEYiDN5HHyOPyPtnP7/f9tV2jeOCImBWQuio5J+ScgMvjxgZyPvn51CG2HjdYWQ0CSRMAYjMnv/yanKHC/p6lJSAvamDInkfs/Q/bm1tPWwj2RQzRsuRyQOVz4/Vy9mf3weWB8Y821WQxw0kjVqQvFIsnNUUFo/AwBjOM5Pj748auV5ZSOPcf9Cg4bwSAceMf5kef99UKtJ7bo8YYk4AxjwfBLfIb7EfH+ufGB6uZ3W7sMIc/lEAkpUSVQBiZMkjiPXjjO9LJLa0qW+tCkuoO0FQkJUknOAIEnmOQMkVGreNqoK+kq46KlEsncCxsXMbhZCeQHtbH6V++T4+DrCFZsaVHjjEEycPc3ZOSDJg+9iD84PHwMef8hNCr27BI4YU3uc55BuIH7e3BB/2/6nVNk2pEJ2HEguYzI3ENyCcgq/q8fqYZydae9QfD7VtXfUV2paaLpPlCBCSoEGQr6DtxnFbXaN8Q9O0K2R4aw8vw0JiVEqUQlJwZPcmT6ZqL1k2DLD2YxTMXkZ5VedFKlRjIZvHEjkOOQeXnwMEG6KXp5DTyNUskHMu0zgoQG7RyI+ILcM8z7/Ix/LqQgtFvEqx1Mc8UOE49ohiWQHJJynEHK5Huzn+nnkVENLTzIyQGOEskbGRVTmn+In3jKfzfHLkPPxr2aV8ILa1Db16oDb5thUhRMjuAoz6mYzXRqPxVfuNwYbW2VwEqExJIxEd/04MYrFtL0/stShnlpaVXkiWV+b5PJ+RCpyVcMvE/GS+QMLx80iawUAqZqSGB4ZUjH0kMZihlaaIPgh3U8g5ZTjiOOMDkG8XrertRW2tj+rn7tFJKywRwAd7ki8lCqGH5f+Ns+3xkHOsW7g3ftirqFr56t4CyyLFNHKSBNTlVMFPLHjlUAlecZReWVAIKnOWf0Xp+0ZWEpaW4zCUpKSOSkGCRGO0H9TWLttZ6j1BwK/nBhwgylYyJBGArdzHAx+dWPcluMDfT3+SWiqErcl2pYpIacHK00lYy8Q0eC5DHgFAf5DeLH3ZbSexBi21S8AxeESPR3LDqe6rx5jhlj5/lcyctI2G8HFUum/IqlLiVaaqaanmpCpj7yPRyDEorJHXxUIoUxADMJMnufn7cL1VTDbjDVWfdtwieSGQLbagxyWhVhZHWOupJHDv2i7CGWKeJhzkzG/gLE37zT7MuJSBMiG0pVmCJyEwIGZJyce5lrdrfvIbU8FHHmKlCYjMAmfqInnsCKp+4tz3Ta61lNDeaOGlhM0RtdQyi5FHSMuAzGcPCoIEadoMoJw45aiZuzqfuqo+rt1iub0UcvtihIP0tZG3L6mmlSVJAjPmMIWd1bk3FFAOcvXyhuu6rlJJWQUAlnlqHgu1IGjpJkZYln7c0rGRjAEjPBokAMoCO/kjG102XHEr0tFUzVldSu1TzlhMdPLHF5qAJMyjMeU4PkY5E8Tn24teuWrbif5JSo/KVTEwDmZgepPPY4rLWukIeaU6POUFO4ERyoA4MTBPY+tR6ptsV9VNLcJrZFS1zSMXg+mp4lPc8lljhEJcEglXkLZzlVT3cuZTW2e01TP2GEjY7kciIQVYnnxw2UIyB55eSMYAJ1lGtp1o6PnHGDcFYSgzSsZGSb4Xnj81U7bcBwTiGOS3LVp3GVpcSVNLMtQqNIXgBYuq8SR2/HLA4jPLx5OCDrtGp3F0oFIlpXlICsjjaAN07ZEA5jnsSM2bdttCG9mwkDJgCUkcnA7Qat6vqEoY5ZI3ano2UmR5slYpGySBMGXgG938rZ4//AMdYRv19ku9xioLZJPWYdeUYkdopOJ8FJMHOMnIxgAjJ1q6l71qYxTWFKWSnetqULQyy8iYkKiOSRDCuO53GIXmeIUgFiRqobE29V0tQtXHEGqZGLJE6hURAMllky493Lz7P5R+4OpzZWDel6enUbwDxXU/+nQoiHJgEkpmPmOVFM7ecisC++m9u3LNlwnwI8dQBAQJlOSIVuVA8u7n2NZF2xYFjSmkmSOOclZ3DLlmeMArHlmbGCxywHnI9pxqQ9sjmnhpVqqOilVSpDHDSKhxy8BFzxCqfcDyz4xjzYtgpEaeFpJoXlj5TSwGMNkx4JjWQuoHPJBbgc4/T8av+WtCQpWSUzUkcvNadMgnC8BP4hEjnhyjIzGOXM4xjzW+tX9zcPlSRhKgUp3DICgdsSORjmJ7TisoyylpsgkKEQVckbvKFDiSCZEDt61w9x3ikNLUxKgiahPfpD9OFkMlKj1GYTGyO2ZIY4yO4rBnjkVhw4v7PPwSPxA29Xnp9fpvv6tnk60dDqe27fv8AJWyK9buTacv/AAe2tySM3B562OGL6C9OBJ+dBBXSSh68wReJDelwhkooZqYXKCOGVGMzURaGoYjEiRM8sT8WGQ5x4DKcEeNZA/Dr9c7ehX1n7F6p3eCpfpzdKyq2l1GooaiRp6nbW5AKOruRjRJleSzztR3GCmeIhhSui1MPIyC8PgJr1509rC3VOH8Hqikt3bClkoYUnzIUB6qXsHl3ESSSINUL8eunbXqXp5ISwj+IaQ34lo+mAu53KQlaSrkAIKvniYxmK/Toj8g58Eccjz4bAbHkefBXJH3yPtrdx5J/fH+2rZ2fueyb123Zt27ZuVLeNu7jtlBerLdaGVZqO4W66UsVfTVlLIjOrwzpUAhuQKOJIGUNCS1zff8A6f8AnrfsOeMBcABKX20FICgQflPYntnMHn2r8+VMlklkg7mVqCgcFPb2nOMTmaaaaaVxTTTTSlNNNNKU0000pTTTTSlNNNNKU0000pTTTTSlNNNNKU0000pTTTXwnBA/fP8AtrgkDJpW0/iLJxgFSc+AQJASP9Rkf+uvKH1iNJLvvdc0jYkpr9fKVGD8xLLDeriJJSCAVMpKnhluGP1t8j1dzYWJgSAuDlmBYAZzkgYzjz4yPt+x15NupdO8+/N4pMqcoN2bm5p5XLyX2vHE5X/w+2fOCTy+Fx56Lq6TY2LzrgyAggHMy4gAyJjmftWc0RAdeW2ScfNAMgFP0/tmrGpZJ6iNY5FjjAPkKuCyn4LHPkjHjx485OrmpJOyEQwyTBSvbCy44nzk+EbwfHgfOB51Zs9bTUThJ5Mt4ChR4AGPDfIHyPP+ePvq5KGriq0h+mfiQcu3MZHxxGABn7+cjAB/fUJvdTVdLC1nYBhPPHBn0MSYgH9KlrViykFDaiVLgnChkQRkjGe8/fFXA0jPODOwhIUtkgAYHwFX+Y4BDHIx4wPPioRXJJYVVUdir4HFMZwf3Hz8ADx4/c64UnCqCpxBMQxJJkSFueMYX8vhji2QGbOR8Y88ApLRuXWXsxll7ayuMtxJ5cVGeOOS8vnJYftqM6lcobbUplfmhMwkjO4TBjHcfWY7xLtDtHkkN3OEKMJBIMiZ7ExAHf8AWDV1/VIXClHVh2yQwwPGfAP3zkeceP2865lTFFKyS8V/NH6QQeBQDyT9y3IfYYwfnJ1QFrWndAFy3Hy2Qwc+PgkALjGM+cg/fGqzSUjkd2SRF5A5RnUccfGCWGeRP2Axj7+NQ164uHwvxHCCCnaVAkRuE4E9pHf9anCbdhhAUgSkxuCTBHEfkeYH3ql1S+5nI4IhXPnyCc+QuAWzjz5GP/tQa2rWnMspdAGCdtWcK8oXlzIGDgplMjznl5x97nucGFicPH72k9olTHFeGSfPu8N4GP38n7Y/3BapbhDOlJNCk7RmOmqGcMsbSYDERhlGRxTP5i58fGo9rl3dWzQDLSHgQmQlISSZT6xwYPpj6VmdOtbV9aS64tlUyklSlCI7xIjkQe/1rg1t7jYLG8S9zJdSX/kHliPaPPx4J8keD86xrfN9S1MdTHRq6xRyxwNIyMQjcuBP+RJPn7cfv41fFPsqshgRLjLLXVjCDJhPEIsXdJbHcbAl5rkZwAnknOvv9xoKmKoqBG1NJG6r2J4x25AWDcjhx3D7D5KjgWz55arPUP4/fId8Jpxhw7dnnTAG5M8Kjgke1WFp6tBtVsruHUupb+dPhuZ8sD+mMKjj0mo77qe6Xa60cUEMiwW8kyNGrMZy0cZxBJyQASjn3V4SceKDJz4xrerNQ07CpoKWpa3MSk8MTGU0FcrZnnNM6idZp2de1JBHMF7MnMDKAzIOyojNO8lZHGZGMsEMcY7sD8Qp7Dd0ch4HNSgB9oyPnVnVe04PrGpo6SS4M6SyzSVSCKCGaPjwaWaErPB3yzYMRbPaPL9K5iv/ANHaw64Hrq7WUqMuIk8mAOD/ALoPfufrNmeuNFsghNpZIUlKfnKYAwBwUhX/AJzUO5bbdpppIKajraiGQIIzGopeS+fdPG473dbPvkdI+5jwoKka5MvTiW6hI6ijpLc0iL+ZUYmLtH/MkMTLMzrzzlI5ApYF1wVzKun23URzwm6U1DGSxSnjhnedQrnyY3aGGokUALz78jhMrwILNmo1FBbRRzUUFqWuDzFKl6NOzdYO14MsCyMskUCvIFeWGqjMgKsyNwUDIjoq2Q0S+pW8CZKT2zPB/wCZmvCeuHr1/wDkthI3BKUCACCQIzAGDOYOOagfuDYs1oqZqVVhuc8MKyRNJXtQzyD7wwU70uKh28COJxREBSO5LyzHhPdFwehNZbpobjSStTx8uzFFDGvc5FqSRw82ZTx/MCsOOByDBgBMPq3RLSIZp66ojpqJJYJrdULHWzUUhjEimWcNTVoZ1jBjnlMghPMRq4LZgPvOf66rmSlq4zDToZmZXkwjMkUkTcJDlpDlw7mVxPxHti4YepNfZZTqAs2coSSFrhQ2lBBziTJAGJnirY0JanLJLriQlTiQrbKSCTBPBPYn04iMVb16anWOkqmiEiNA0KvBmWeNogvsqUPb44LgI4J5+8kLx84c3NX1tJS1U5eqQMVSKSMDK8uREZIbK90Aecnj2/hifGQJrhBI7z9yUyw0peSmlbC1IjBWSSBOKIh5GNWDyMSXUqfDZxJuq8yy0zQxUQqopv8An0CsyVlvqVPsZwFkE8YR+XNe1xx5HnOsvoNk6XmkbAtsKSVFSkjjbxvIyPeAc8SJ9WqOtLYWjd4Z2nzAGUqBG3gTJVA9MzgVGvcS3K87ngqbkJqiNTHDTsFCyIQQOLurOZO37CDxTPIkalvsyj+go6UTIZJWij7LuY1OSCSjCSRcKw48pAW448p5GsD2egjO4YQ8Xfj/AOZMIZOcWTgs5mYDi8fjlHxOSfLDA1JuxJQJTv8AVQzkU6rLAA6B5k9xXtBoJw4GAJE5JnKe458TXq2+U5ZWFq1ADbYBCSEhIAAGN3ciTBM8z3qJWLH4ZCnVGXnVkPHkgYKTPeSRgDvnFXzLHVPRU3Zs9DLGrOVq6Krilj5LxM6TPGvuZMoeLFcZOCcnClu0dMUNNThayISmWWjRmcBuAVQZO/HEUAY8uDdzOcLw80OesRlV7dBU0lPKFLUrqtNTxuBiWQpGBwM2VyzZ58Bxxg54F/3PXW+1SQ2mGOjftsJZ6WnWRpgeOS0zMC5T3FcBSOZ+5GK5Ngu5dSgkDesCZk5IgH5sDuAB3kmAazTZUtsnG2CZkDAEyJPfGO/YVZfUjdMSUVYZpbpOV4FTO4cLNJyHEBY4VRcr5YL9hlRgAwnro6mW5yVFVxZqkvI7hjK8MBeJlVVLIFd3EfJs5MayRYzJyXLW8twLVVAhatuNW7qn1QnIij7jH9KxqJA3HDZyy8fb48nFly2qQu0hkpUp5YhweoRhIBlWZAQ2SWPEZOCpwQGJwLu6Ws29IshuV4bi25SvaqSYBRt2jBKokxGRxmq510I1B9TLgC2kna4CJhM5JnkBMzHoczBr2m/2an1yXnfGzt2+jzqJfqituvTy2Lurpk1yqDJMdsGsqVv1igklLSGntvfoa620yyS9in+vTAQGQesMEkn/AGBGDjJGSP2Yg8TjBUAgnOvy0fw0fUJV+m31v9B+pVPOlJRUO9qC138M8zUtRt2/tHt650tSUMfchlornUMrMrCKbtSgExjP6klDVwV9JTVlJIJaSrpqaqpZR5WWnqIUmhkRvurxOhAPnHkk58bg/DTWHdV6eQi4c8S5tCEuSSShvCUGeDJIBCSfcYBrQ74q6GxovVD5tkhNpdEqtyBhSwPOI5TjPmA4MTOOZpppqwqrWmmmmlKaaaaUpppppSmmmmlKaaaaUpppppSmmmmlKaaaaUpppppSmtJ/Uv8A/b/7a1a0t8r++SPnHjBJPwc4x8ePn518r+U/b9SKATitExPbkxn/AJch+2PCnAzg4OTkeD8H5xg+Wv1JwUtg679UrJR1X10Me99yzU9TDTgROJ71XyTQgLK4VqWpM9Ix5tz7AlIj7nbT0fdZ+qlo6S7JuG5rhKjVrQvSWCg5nvXK81EbrRwJEscjNCjASVE5VkhUoGRjIuvML1xeomv8W4muP1Nwu1TX1t9KxmFhdK6s+trp8GSXjHLVVU7xpnHhgGOM6x+voI0txaxDY8IFXMEutAYEk5jgevEVKOk9itUKVAkOAhIiQo7SRk4HHeBz3rHF0hiKNJKiozePI95JwPaoPn7ZOQASDqlW+7QWmp7EsskXPiWYwdyMAE8fd3FCn3HIxn/prS9UqozxSd9zxzJM3PA8/pTwFJBIPuPwP8tUareCfMQDAHHcYMJOJOcHyFKgkNgZPgEZzqrNSuUpBS0tKlJCSUzGJTJkwJg/vNWkm2b8Qo2bVJgqkDAxHEg8isowXKRnWphkp6iI4IKyFSV+5dBnHjGPLZyfONXJFNR1MZdqZWaTj+YSXAZc5AGPb5bycnl8/bWFbJTpT1DxfWIIj2uI5NyZffyAQFvtgZyPn4OdZdt08VIg8pNA/DEIzy8cssWKkpnl/hJOMfI89LDIumlFWflKjIwAU+/9uePp7HFlop8P5gMDjMGOYjHp/wCa3qkxEBadpYnYgcgCVXHxj4Bznz+39dcGtpJSnGWqmZnxwIZvGP1e0OMZypzn4Gq9U1lK6YhjUccYTAz7vn38RkDj+w++qNNUIJlYF2YD3R8S3H4I85+/n+X4GsVqLNshaUsqkgHdgjIGMkDMgd/Q5rMaM89dNr8UYTESZyD7E8Hv61S5KSQJGO3M+WVfLSOAGPkn3e3Ixj5zj7a3Ki2rTzhFcCJlWQohbkHGTljyPHyfHjz51X1q1dUA5EsR+XxCjA+TnznAOfgfP9Rrj1gR5eScWyAMr4LePcG8+OHjz55cj8Y84cMNqlbyQog+VJAIIx39Yz9iBzWcSpSTtSSCTjnBHuJ9O/1rbpasU0vN27j8OESszKTn5IPnPHx4x5z9tc2ev7sfGWIQswAQ5zkrnkftn9SeP9z41Q1jlNcobspTIjEzSN5LDiQirjxkg+eRGcZGvlQ3OqVYhJJheTEnESBvni2CCTj48ZwMffXmUGC6E/hkhOZIj7CB7iDj19a7FKfCSreYBGZJ/qA4jOTH17ivqxiWpIkVCjKSZS3CRSD7VjY8iOeTyIHjiPnWxW0MNMJCzTFJIwC9Mwesg5/BWQsof75DRH4/lyc8lyBE04w0UbpyBPu5+7C8f2JB92T8Dx9tUidjLWGnqkdZ0hNRFKr4xHIAeKnKgugQYGGLcv5MHPY61bITLjCUpMZj1IA7HvFdranlowo94zB/LBnHb0HetlKW3njxrZ6+cIYozMAlapk+Y8Bcd+QIOyAvFu3Jzkj9vKhbmp6arts1wttbR3Kejj+nqqcMbfWtHF7qm2y85ESC6ErG9LJJOYJ2jmHcXgTrlVtYkcCmjroHnV8rVqivUQlPLRzK0kSGBjgVSmVZMKnB1PIGB/X7q5MauttNPXQ2+53BKy21Aj54kqEopltdXDNGI4o6H6qQw1NDUUc0tSamJoLpF9PIJ4L1dqltpbRCghClIGwfMTJGPLMc5mDnmKmHS+k3GoOJ279iVAqXkRtII5IMSIEcT96sj1EbkiWp+qgWqpa096jvTTP3bi8aSz0cNFco4XkoxLHFGZIJ6apquCyyq4bKs0La92qK2dqm486UQI8KMRlUWNVihJRfcYyhLOwHLmFwApLXLXVlbd5BWXmqrZqi41kNRVoJnS2QFUWOSlp0w6BVqFqFU8Y2YqSQf5eHWcKGoko4KeAxVMgRaOqjSOqZZB7Zll/OKpH8jkgDh18jjrWe/vE3d664hAlaj5gB6g4JBgyI3RAznNbM6XbCzsGm95UpKAIIJ9PzIBNWTPV1HGVhEKsBESSIUuYniXmUjaQMCObAMWXifZhlPjGLLhRT1ddLWyCW1VUpK5ZlWjnPwwgIflGeIjV43588rxZMHN93u8V9tnraaF56KppmWMRyhJ6aaJ8gY4lOQABHux28/wAxbC2BLza7UrVadyGcd2VE5vAGPEkjLEI5zlSB7T5ORjUk0ltxllS1bUbklQ4V5QEqiPlIUBkQTiOc15blfibkyYETAiMiP+OZM8Yxytq2mnFdipt31CoZRMhc0YkT28zzAqO00nyhw/d4n9HE5y/TRUtNHwQvBTsV+nidhFPTDJ/Ld27pmjyRxcLHywx4jIxbNnssMVYHpXmeOfxEk1QJBl/1LIxVPK4zD49hL/PjVwVMVjiV3kmnxC3bb6lmkljnQ/EbKfzIycgZRRGFGOfLxjNSuDdPR4qyBtEBKjkkTzxJIA29iYGIPSGgG5wAI7zGRAgGT+vuYrcvN1jgeGWoSmmjEXCWGmnZJpFUL22kRosSkZYqFKcMtknkMYr3zdmW1I1v503clKqKiUoQG45RI1Vv2wSX/wAJH7auK7OlWAJJopnTP0+H5tEh4/BVYuBcBchueeI+MeaDJZ6i6IKeWUSLkOIVpwzjhnie603jPxkID4+Dr26Ym3tnGX3TuLagVJUCd0kJAAIPqMkAT+vW8FFtTSSUlQAChI7gmftjPvg8VgQW+raVppJKdJueS0sbSI4YkgoWZc8cEn/Nf6a500MbIIa6SKdHIAeFRHxbHgAHljJxjDfbyPjNz7iNPZo5Y7nT1vJTIKPthFyfaHB/VnB7WPt5P+escL3rhF7xVUqJIJImkw7MvnJVAEzj25yR5I8ecasu0W7dsodMNNbk7VCBmRtAiDjGO361Db1lNo4qZUpYWTPJ8vcifX/it20VYs+4aW5QNLE9praWqYHi0iU9NUx1BeI5QsQ8Mb+P0lBjPLI/V/8ASlu5N++mfoLvJJZJ13F0m2Jc+9L/AM12m29QCQv+5Dqw5fLYyQCca/JUvaOwlYO0yGOaOSXLQysJFWIIqjmQFLB2JY8uAX255D9Tv8MGrkrfw+vSNUSktIeiWzoWLZLkU1EaZeTE5Y4i5ZwMcuPnHI7KfBx1Ab1FgOgrCEKUgTxuEZ45BPMnmtPPjqyRc6c8W4Di3NiyOfLP2x6gfnU8NNNNXlWvlNNNNKU0000pTTTTSlNNNNKU0000pTTTTSlNNNNKU0000pTTTTSlNbcjcePx55eTgAAIzEkkgAYByT4Bxnx5G5qPfqr3rP099PvU/dVJKaero9utQU1QisZYHv1bSWGSWBlIMdRFBcpZKeT/AMOdI5MEoFPysgJJJgCJOcZGcZr6QkrUlA5UoAR6k4/Pg+1dUHrO9RK753tcoNtVrVFg2s9Rt7bc0MqGGeqkMUV8u6RFCrK1VSpFb25NmnRatJAKrsQ9b11qpbpSXCG5GeeoMTinllIc8IgXAdlA9xaQkuR7uWMe3zzauq+uMREDB44I0WEluCxQqEik5Zy0jhXLkgMFEaFm4cmps71MNvvFfTpEn0lmuVSzSrlcUtNJKx4sx5t7QAMge4nyBjWN18l/RboA/wAs2y3ArjLKfFHvIKB2/OamWkNC0vrK3Cf5jjzSTjJK1JSBgdyQPYHOM1gg3l0JjlppYAjvEB3e4JjG2OSHghPyMgD28l8nI1S6++U9MTNLUvRg+XikYe8r+gZDDPyf5QRn758Yv2ju83CPm7xXq8XarkempEmLCmhdiXlWMRsIUg5oZ8k8vYcpg5vxNsRXcVUNUBUScvzJVBMJcBiqQEuf0HIcjGSVyMY1qSeol3bO+3eU46LhbSh5hhKiIlUAyYiMSPatmrnpRFmLZ25SWvFZaWTIVIWExhJPJIPY+xrkWneVS92pmhil4h1VeOCjAkAMzsAG+PAAHyfnIIkNBW3DMc7MCHjQlDwAOR9uJIXHnOR7sjGMaif/AAa6UkhpKcBFp3VkkdiCiKcnCj5yAP5vGAfvrJO39wzU8yQzTOyoiCSTkzh2TkAOLD2YyfIY8s/AwMzLp7VnQQzcqKVY3AyqAQIyAQTJEZPv7RfqPSk2qmnLcykjPAkKgd/rOeYwRWfI62YKDJIAzHJHHyMY8HzgjB/0/wCuvhuKGUszcCMBiG/Vj+mPt/U/c/GqHTVdNVCN45c80U+4EYY5yB5w2MD9vt4GqZeqiotySSQRrKwA4tnIwfvxKn7/ANT+w1KdTt0LaD7A3iAVEROSBwYPeDPpzFYayuDbqCEk+YmQJJ+ojEcfvi7ZruICsiTKeQYKOQJxhcg+Mp9v8/P7eaU11qPJiYxhm5E8uePPkDwuAfv5IHz9tWLDWGcwtJzMs3Iye3tonHjgHJIPLkf8PwfnOBy5bmkayQlmWRFBBChkfIOQWBHDGPBw3LkfjHmvNSvLhpLhaSolBTiCB8wkmYHB4n+0VNtNDT+zcfOZgEKA4MySPT3g59wbzlubgRnIaF2UTow5NyH6ShyOOcsWGDnC/sTr7Rz1tSKqN5e1TRSBopSwVzy5EKY/lgnED9Y/V8ax3Lc0EMcrSvLIJQViiGFUqQDzcZ+cjjlM+0/vrl3Wsam+llhnkcOpmcq4UIW4Eo6HAHHHtbPu8+0fBwTeuPglakElJEpPrgcnnJMHPY1nfwrSh4QEqPaMYIMlXA/PtWS6SskmhqPqpoQIgI0kx2y5fnxBi5MGI4/JdcfYEE4te83N4FjkkZRPTFQsMsYMjdyWNI5450mOIolMjyo0JDDgAy5J1bV3vUP8OpammrYoVLEVSl1fkyhTExUEY4HuZGTnlkkY8xt3l1KqaySWOjrKWhmpWnoaytMjCmeCq7cES1QbxDK7c5KXDHmY5kBGQy+fVes2bNoC4AJ2g7BJJiCBIkRwee3uKzGl9I3OpuoFvKCSckpwAJOJ5Int694q/d7XeSyQ1dfaXa50NYJpL9YqmVDLDGsjK9fbpYmMhZyVdIDDHEAQHqBxUt149Tty2zcm8v4nRxXCCqFE1LWvLGklMptzwz2yOWfCrJUUh+o7iRxJ4nAM0vyuXN59RJI5ljo1VNwQ22aiecxPFBd7M6xQVtDIrTOgWd6aKZapS0hL8VVeJZ4s7nkkhSCCjqWWGtnhq6pXUSyUbHmGpYZ+4C1ORIQvJA6BMsZQ3sorqjqlOvXCm0tluPKlZJ2gCJxnmMDknAq6ulumP4Sz4bzgUoiSnaZJAH9QBGOckHEQa2KqvhraH6+CpMcXakknpELKiuk7NJK6ug7jdyaR4ynEJzZSWGG1RKmrglmMsKK1Q1O1OtTPUETDmi9qYgxkOP1hEVo+0Acu/P26L3UU9NGKNe8Pp6Ng0vJZIikzJI2FWOPiZO3hsu+MA/uDZNfBU1NO9bDNGQ6Apxf3xxooCxcB+onyS2Rj/DqO2dmlSg4VFIKiAFZ8qiICikDdAIMnk5A4qW3LimES2CQgZ7HiO/vM/wB6tm8JIlXU0krqlRwXMx5OJwxYthmc+cAeB+jkMls+NmmLIFVIZESJVHCUkjKsFdxLwPIPyB48BwC45NyyKHcaxDUwQGOpkKeWeRsHm5TKq5BOPYcn/Lx58ZAsFKJJofqaqanpqlAkY7SVEYZSGkWWTuJ2yfaF9p5Zbx7MGZlvwrdAIhJSDj6ATiYmJjG0THpURXqgWtxBKQSfWOCCPcfn7GsibfoKdzBPPC1ypKfkJhQds1NPyWMiqdJZoOSQeeaI5ZwxIK491K36lLb6tfpo4Jw0ayxvRVBaCaOYKRLJyhJNSoXEsGPyDgCaXuZTUtNRvPVx1KQtTPNH9OoaT8h1VgGWWGWAyCbCl1ZQqlFHvydW9NTslRMs0s1Q0TSHhK/KNY8qVSGQKAuUEjcCrEcBljnIxTFs2t5SucmeQMTjmY9gRXmudQu7ZtTiU7vLKZUkSJT3keueTII+u2kcUlPA7QTqJWDJUPHxTAwZATnzwBXHkZycYGc8ppxCHqKGBZAcwhiWySoIZxxX2YLDx7uX7jB1uyrLOq0kNQtTQyRx1ECxyAgRkMFJYD8tiwZXjwT7ASfdjXPphLBb/p2PlDKwECIJGDccI4JOQuMGTI45OVwQB3u2IB3oWVbSkhEkD5h6+gAPPIxmsdp/UNxdJeSpuFJJEyIEHGZjtEyRzySawNuSx3GtrZZZ0lq6aWQFGCvwiZ8k8sse2oOOTeQ2ASPA1bBtUtG/BpUEqgiNWDEBRjIUZIZWGAGJUeCfOfEgautpaTnBM8jx1CItRHLwQRQScu77xywzHj2mC+/DY4484ru9VT1ElZTjvJJSsiUTmHsyNSMX4LIhLlwgX2y9xTIGOVXiMym0uX/CbaEpQkJBiAkQQAqDiSYkgCeK8CtUU7cHxkzAWADKslJjIPv7Y/KsV3eCGUxKITHMJlDD2lSO5GSwA8kHHwQCPAGc6/UP/DBRk/D/APSirfbpBtrHt4+O1JjAyfH7edfly3uaaGpgSlou/NVVMUCyCRo+Tlg3vBWTByvEY8e/PnGNfqf/AId9plsnoc9LFsnHGWm6LbJ7qYxwlntiVLr8nODMFz4zx5YHIgbM/BNlRd1J4ncjwkbTIOQsSAJJAEmQY9cTWsP+oF9Kk6O14YQsLWTEcbDBnuDjPPbsamZppprYetZaaaaaUpppppSmmmmlKaaaaUpppppSmmmmlKaaaaUpppppSmmmmlKahz6+5BH6UOqpYgJ9Lt7uM2Qip/eyxAsxCt4DFf28ZOfbqY2sYdaOnlD1Y6W756dV4Uxbr23dLZAXbisVxkpna01LHHlaW6iiqSOSZ7Q9411PpUppxKBKikxkDIzyYHau+2cS0+04sSlK0k+wkZ+1eUOKWZWkjMoLRs6lgThMu6uvL4dQykBvb4GcedcO71K022d2zPzZKTa9+qoyCGQSJbalgJASvtc+MDkMg/t55d7stZtG83Xal5Lpe9u3CaxXhO4ZEiutumkgrFjkKRmUF1E4fioKTpjIHJrD30WbYO+fpS8s42te0CopLsXopYhg81wT3CT4bPHGRnOorqlwpzQNQYK4dbtLlO2TIKm1JSBJzJMCOOcZix9Obb/jGm3ohSPxFqUpzmXGwrmMgSR3Oe9QY6QVApLcKympk/iVbIqd5VZZI6esjEtSElKkQiUNEqgBs9o4IzgSmsc8bpJSwTKa6FIzNErHENOgkKuY8eHOXMj5/NwDhAmGw10dshuNjtUlAyyRG00Jc1DohWeGlReaIASc+SwY/wCEZPknPdvsYp6xK1ooo6moj+nq6uHAWSNPCqYvjPubzz/fxrRvQ7u7t3nrdbUhu/eLhMHakqIScEzJ9PXsJrdbqNFpc2Vk8kpA/B28QOCA3zicfT9a3p6ETNzAAYxh+4V/UrA4wMjAOD9zjGfOqUaRIyrxwxxrG/KYfLNjyP5R4byfvj+pOsjUdIlTEYlBk7TrHzCFeMeTgkZJbHn7geD586t3clLJZZmniiNRQvxEzsnEq/jiFAL4/U2TnzgeNXDpr5O91SCErQnYqOSNp4AJHHp9eap/X2xcHwyU7RtyIMQUxiZ9Bj19K4tHuEQfkJTtyDZRm8AY+36fgePP+373OtVHXU7SVtQgkcoIqeMjIUZ5szZ8+SuBxGPIyc6x5Vwq8BqEkWGbttMkBlUOFAUr7SFLBz+wBTiPBz4s6pv9ypAJBIkEs0bQ07svNBKxUDj7lEjf4h7OPj7nUns9TcLagohQSQNpIyJj1EY/fpFFaQsLBQvYo/Kqe3M4mcY/5is3VFtMg/LyEcDDBgqouP1PJ8qWGSoCnlhhkY1adbStTztCk6zQoPzCJHDZYePBQcgMN+lv88fez7Pu27xVUdNcpfrKoQDjGimFA6/zOoMoP6lIBx8Hzg+LtmqJIaSpu9XM1fXJTS1X03sjjjWFC6wxRqH48wSruc54qQoxjXquGrO6ZIKEgL2hStpx5gfQ4n94z7rVm+tVIX+I3hGSkCJEDMniOe+AR6TwZ6pkSCCJkhjE6s8pU8+CnJVkwe5yzjPJeAz8g+Kbfa6prmRoEaOngZlc8G94PALgZj5huLfB9mPPLlq6bZUpc0M7fSIpDxvGpRpom5MgLowXj5QkYPnyM+0ZsbdVRWK83aMzQUkbBe0FKcpMcWLLgEngcA5II8HydVl1Vat2Vu8u1EmEqwI/rSYExH6Yx9bB6duheOtMrQIKiFKPaBx6mTE8/WsZ7+3JWUdDJDRJTURSKSYGR2CSiExhwzcTxkbuflo3hjkAnGRE663qW7R3TvotJRV8tO9ZFVt9M0zWdjOsywgO2eVSyw+5eXNnHLHHWZd6TVgoqv6t5RK5iPCbAjk7jFoh2yCT2wjDIYfr8g4xqP8AukzVU8FNMsMM8s8VZUtngy0dLGVYl2GJAomDCIKnPJBY4zrVbqHXry51E2y1FKApQUZPlCckEDkff9TWy3T2jWrFuy6kCSkSQOSUx/kVbN8rKu6TUgTgFFGHVZ5nnZaaeSQxGOpEUZUYjYPGYyVwnuOfFv3TjBDE0tM0kZRqd5oV8Kx48MAs7ORh8HKcf658VqiSogjkmStEoEzR29XCMlREzEgSR/Ma+QETk3b9/k8sClXLEn1M09M0LUhidhSz/luX7ncJhZMZj4Lxw+Pe3geNY9t3zpAG5P8AUrgySAOYJlRxAJGZEJNScsIaBWgSpIwMCZx/mateRFnaaOWnmeEQxwFEKsYyeXGSV24lu754pwzH229zcvFpXGSnt6SwLiMRhQV4E8S3LgHJKheZzhvOOJ8eRrkXO/W6JxIpqHbuOVj7nZmdjjGUHIME4+0HPyfgZzhfdO76qtll4zTGEPIlRTExCftRxs4dfcpyixuMAN5YeR95xo+lXV4W0hCkt8lRgAFMEYzkxEkDM59a96j6ibs2XkpWA7ACUgGfmSDwnsDxOaqVO0094ip6kRBe7JUZmXnG8SlMQxSKVAlcEcVI4nHukTA5ZWpVokhjt60rRzszVFNOkrLTtzAJiqEMbcZIiF/S7p7zxdvIXDW2JoLnDLRiVlWRJkV6pStVBGJGDxspJM0VZEKaV40eJxgKkwClmy/E1ZS09MlYIqme2UKyQmAAtNbgVWOMR5PimXOIi8kq9xuUjAjErvGGmmw1IlAAVgiDjEHnmMT9e9VMnULt11TyllKVLSRnBClDsP32zXIo6damlqJZe8KiGVxIsbfkgDIQxvkciQGz4HHAxnJxRxJXUNNI4cGnWcTH6gcm9pKjEhPkBHkUrjzzB8ccG4nrYKemSZiyUlRJgVEZURcpQpVJU5AxOh9rKzN5OcjBzi+/32ZkloVEqcZ3jlDBZIeDFfp5kn5IGDASF04KB497fbG2tsN5O3BmJzjMd8CeAY+tSnUrhK7RnY8TLaQoAKGZTOIOJnifXiKvGQ0lEI2t7ilpK+WN6RnlEiwzMSZoJJG7fBJXcNCeOBhxxyMniXndVJbpWjA7rcRSVsMbBlKyjD9irQ4VjxBZuycYUffWKq+vlrYEoqmRQ8boy8XJjJh/5TcVICkh28cj9vPjVr3GrmjJMMLsxZTJGjllkdQQG5FW4fJPHB+fnwdZdqwS4tKSBJkkEgYxBKiqBOQZGCADG6Rg2Lv8Ky6hA8yzhW091D279v2Kvm517NGlRIztDHMI0cBmdqUkGOnlTJ77xDPCoLx8CzHttywKZU1zws8wjlIkMZikqWV5JYfIKK65PGAHwCv/AIg+wOreoqy4IGMnJIjgmOU9xcEHI4kLyIx5IIIJBx8536muLwlEgghTzykALyHl8+GbCjI8AH48ftr2Is4UECIBEqChGSkgYjOI5MyY7E/duVr3LWCFmSO/MTn6euT6ZiqdX1Aqrtb6eEBVqKunVJAA3bn70QEgHj2py4N5XPMHIHg/qvej+kNB6V/TvSFCjxdGOm5lUrxKzS7StU8y4ychJJWQN45cS2FzgflX7D2vLvbqNsLZ1qjnqarcu8tuWZ4eXZeWOvvNDAyQSgOY3d2RD7WJDg5AXB/Wn6abYg2T092Ps2lQpS7U2jtzb1OGbm3atFopKFeR/wAQ7BU+TkgnOCANmvgjakW+qLSSQylAUSNvzqSB3IJ54PAmtb/j86PxOjJJEuBzaJydqBJjkDsZET6Ve+mmmr5rXWmmmmlKaaaaUpppppSmmmmlKaaaaUpppppSmmmmlKaaaafv86U00019bTtKsbRySQI7dzXzuT6z2wCeftTWll5FDkjg3IYPg+1lIYfcYYnH2YKftrVrSSQQApJOfj4GMfJPx8+PucHXxujjzHiE+Y+Y7eBJMTPFfceuO4JxxkcxH+K6cvxAvRNddyXK59fulcEM1xit61vUbacETxz3OK1Ivd3HYIomk79yFDzNdazAJKs0yT/XqSyr0nVlQsluvdJEkUpmoayBiSXilEkIZFj8KXR4pESV2VTDUpPTFXMBkb2aVBVkZXAwfbyPHh5wWic8XIWVQVZuBUx81YqWQ68mHXOw2K5dbes3/wALJbXdNpJv3cNJY47Kz/S05jNOblb6eNo1Aip7xPchH2w0S4btu4OEhnUduLfxVNKP823uNzZG3cS0rBkdiPz9zU26TddvHWWz/wDauGCkkjADyMTPYAkd1DjImuvP080TQ2Kjp7ifpaqnp5YnEZZ0cRpFAr/qUDkYy5TJ4c+PJscjKuno+FBHHOjIEqWVZSmDIicSDjkSeXLGMnH7nOBHPojFWR2u+W5Y6d6y3XW60EiyuxqIXoKwRzFlETdvllWCF/HkBjxJ1I641dTyiHkxBIVA5ApzSNe5gZXHypPg/bP9NSunbdt7Vb9t1AkXThUnmPMYOMHM/wDwDW4utOrTpdgQ4Qn8K3BkiSEpJgEAn7D6dqunb8AWKplQHg7AKTFjJTmMA8vPPlknxxxnBzkUndRMtA9OVSJpFnUxsAyxHirJOW9vIjiSI/bkn9Ywc3nZZHW0APxAJMiuEC8PHn4Y8/keMr8H9zqOvVnctRbqSoZKr2yGRO9jtJGkcZ5Su3JuIj5j2ee5yPuXj5uE29vb2idqBu2jbI7SJmRAhMn2qpi5cXTrpClLShfcjiR2VHEjsT+c1Ebe/VSTat6q1q7jF3Z0jpaczRFyY4++Z2hgEgA4xhS2ZPd7RkAZ1T9v9WbJvils0dtuNPUCnuIqKRC6wyV0UL4rXKBp2iCOkYCsX+fBOSBBb1OdQZLMpu/fFVXTKtJb3p1WaPEjSRvVsntJ9rhSgIPknuDAzGL0/wDWmi2FuwtdLPU3Spq56egtEFJM8UfdraiQTTVDNHUrSRRtMkjFUkDAFSRxDajyGXHi4tpUBJAISpIPPpI+uP1isn4jYQlKjCwOCk49fNEdyPsfv3zUu7bfBdZ6zyEqi6IzeSkkYQCJfaPux94xnH6PA1c67tt9d9bTUtRzDU8a1cmcFA6TrKqKQcdoEcsHL8gCE45OHLVV2e/WmhudDPTVkklLG1THQuKiGnrlMivD3R2wzREHkwjy5OMLxBaiU1tvdNW1EtOO3TTPmXJPKSNuXNAuPPIeM5HHwPOfHrTdXNujYpslIiTzyRE/njFdfioXuShYKhgiY9JiecT9wRWULjvGW3VMtTa442gaSWoflglYFkDuHfkpkaTuMEAQEcH8HlrNXfo77tinqqFYZDV0sUzx0xIdJX+08hByxIPBAg44f5Lah3fVqzBHDBC7hZg/Pg2YgmOCthhlTyfIb9eB4GPN8dGdwXiO/wA+0aqpeenrFa5UamYBllokleWmSMRnCSiVBnuEJwPtbOsdrXh3dk6hQhS0AARkklMATBycc4+k1lNKuF2l2xsPKwogER6nIOB94xjIAqp79tdNTSd24RtICkCCKXwyye7iQBkngfJz8+PgjUYd22yG63KGkkeOCo4zimdgY4pSqxlImlBIUYGCpB5FgcDHmZ/VCITwygJ/8xWsihlWZHKmFoopEaNghCmPm6kNnmQGHEDAiJfqQ19bFBSRvDNRV7P+bJyEpjA5EZRSi5z7fdnOMnWk3WNs/p+uvb0+GErUT5gcHjgmQTEgGfoa3N6WfZf0G3dKwpakICNoJkykqEgGMTz+mawnJTN9JWUMUcj1hjkanmTksVPVRswdVYj8xfCFSOHz8H5NFineKCWmu1O/dnpDFUquZZROuRDUxOvEANycyRkEeF/M1lue1u9ZUL26iImOTvQuAqM0ZLd2mYBeJfk3NcHlxTDEeRYdxmWjedoIpKqOWLtNE6Ba6Qxq5YUoYsMR8gJn5AjlGQjA4Hxp1yLlKW0JCllSVf8AcDgnJgQeY5niDXpv31sNuEyEbVGScR+/3PMXepdalpts8EIglrF7arUCEpUgSFu2MCR+BBzybJz8kADUWqWrenmvlNd4kq6ieno3gqDM6z0QFfT1VRNGAG7xkpaeWikjJjCCrWUOe32ZZe7ljiuFX/8AtjQxTwO6mXlVMsikhxI7R07MyYBAMaheRCFhkiFO8LpHR7hroKXgstMXieZlBMsMue9D2jjiQEUBi7ccnC/vsb0SA9aG2DA8QIClqG2UREZ5+aAYJ5yMGtdeqX/FvvGLp8NSlQIOSRJBHOBHI7Y4mpAWivitwt91hkapjnphmRoxxjkHtp2x3PdxixGy/LdpW5Ly4relRu6Sqs4Sl7X18MxnD8gtQGRkYgKMkwTccSQHwoRfe2fESrJd66tWnp4ZJzTxz/lrIfy0ZyPbxzgrlcZyOIzjGfOX4KG4U7RyH6aSZuDs9PkPGpAwC3JgvIE+SCPaf9WqaM2w+pbqwFSSEQYiRAVmMDBBz2A7nF2r7aUpJ8wgQIOZkDse5B+30q7r3uiqrO5LNNCsNS8TyU1IsixUk5UqzSU54gF+IIKyfKt4A8Gm090Su5UMkayrxwZUk5AMPKMVJDL9/AZvuMjAzwayncxKs88jqshkU8FbHPHJGK8eZ8AKzY4nOB519t1vp5JEVY1pwCzxyyq3IMeOQCHQMHwv9Fx8NnXg8G2bbKpG5IMQDzCRIj0z+cxPORUt5biCoED+hJIAOJyZgQf1x6VcAooJ6dS0lOrRqA0aI6TuI84wSW7hIP2K8Pvy5+KW6CSblCDHEQU/MJDBk8Zbkq5JJ9o8/B8/vV/rkggaGcyRzIcI2FOVGeXbk4gqG8c/D/ynVk1tRVXGqEEFTJ2klQrEcPIGIOWaQcCVPHz7Bj98+ddNo2t0uBRKQPlURuHYcJHBxH05zXTcXKkoUCgBWMEj1ByZgY9SKumGiXt8m5NKDgcyVHu+4Q5yPAwc+f8APVEu9AqRs4Y9zl8I5RCOLOxb5AwqHiMHlnxjHm5qOpftO1T25J4QiMEHL2pnGQB4Pk5+SSPONcK/QxzQGRaiGneWBmgDhysbqUeSWZVzmGGmWcu5I4sUQIxkyPm2dcTeBklRClhIISognGIAJAJgH0BOZFZ3RXUXFncKd2IUhClyopACUDeo7iY+UHE5OACeewT8HfoevqB9d/p82/LQyVNnsm5P773grGZu1b9qJLeo6iUho+3TtUW1YXlclUllp1CyFwuv0woCCgYE4KRFAVKsqGNSqnJOTks2fB93Ej25PlU/s2PoN3X0r2hvT1fdSbFJabn1Usv90OmVHXI8dZDsg3IV12vcMUvGSijuVXRUFPRkQBqmnjqmEqplD6sB8nyWIJ9xzkgs7Af5LniP2GP9d0/hpo38I6eQ6tKm378hbiDE7RCkSQI4HrJ7itIPijrg1vqW4Sh3xrawWtphYnaFTDgEwf6ROORAwSTq0001YVVxTTTTSlNNNNKU0000pTTTTSlNNNNKU0000pTTTTSuCQMmmmmtt5FjwWKgBXdizKvGNAObnkR7VJXkxwqg5JBKhn3A9yQB+ZgUUCUmATkDHMkgDH796+s4UqMFix+BxyAMcmwxGQuRkLybz7VOtIljb2lgGwpKEkOOfLhyQhXXmVYLzVQSp/bURetHrS6K9IorvSVN/pNy7jsriKrsVlq4pBSVZXIp7hdwslBbp1yO9FGay60iENLbF71OZOofqF+IJ1Z3xdLxPb91Q2zb88U0Vp2ntqiqbLbKGnlyI6i5X1pk3duOskC5mnFXt63syt27bIkrCLCXmu2NruQ46le0iWxuM+YDkCMc4OD6xUg0/p7ULxKFNsltCphxxSUgenlUoKM4ExkmQTBj0QVt9s9rEhuVyt9vSFGeU1lbTQ9tVGcyAyHtqR5DOQW8lQcEiLvUb1w+mvprzivfUi01lXE5ilobKWudRHUZAjgkWMxxr3SWCuHcDtuSvgA+ZDqh1h6xXayySHdV4gtwkZ5qClqJo7fOZCDI7QRyJlpMDLl2mOPzppyVKw73L1Ep6e3rNcal1qXlKMGwO5JLxA4ySLJJG6MpPJmlJ5nAXBzFtW6/ZsoFjancAYdKFbE8DMjvMCZyR9alGl9BruDN9cjZuH8oEeaSP6pKQBkxMYIB7138epf8WW2XCguW1eiiNQJW00tFNuO40R+tImVUqKeijLKlOgBzNL3JJJ1MQjamCSGbrCsfVa31NXWT0dVQ0NfSwPcPcYqUsmZKqoj9iAOzVb1EzTvykP1Sq3Ptgt1w1m6ayeV2rJEWGKRZCzNkdliTG7SDjyIA93FPeCM8cDNMu285Flp1V4oJbiP4fBLEUQVf1RSOnhDyTRENO44llWXhnJByAao1frfVLsXNxdPoAS2sJZSpJUoKTtwAScZMHsO5q4dF6D0W1t2kWxKHFOMlTsEgFDjahJAgzG3uMx71KzpFNcU/vbd6d+y18vt5q3amWORMVVYZA81Q3Hl3ObCLjHHjhIfdkcc8V8lPSUzGpCxTo0WVmjLJMZFU8o5FfGPHuHAfK4zk4xn0/oLdt7Z1pt9PGJa24NhmeQlckxTI5SHvc+KShjzki8vhScEjJN3qFMLyTUjLJCPzwG5QyRxqgWWMlT2+3huSY93NfcApzWHSLqVX13euKhTr0oBk7iVQeJjnvE4zVq9V7RZ2LKcfhGQlQBwpJCUSYwfWDkxV8yTyJYqeKBoY3aDvM0QJZlYLhWQ4PxnB5fc5X94KeoW7VlDbK4tI3BR7YvBV0kXEyOp8lmAQrjPw3g/OptwVxNlgrAY07lMVjkk4OkcaRllZ89sLyIChfP8AmMYPVp6lN4TXu5vRxVXZ+hWSqqRGA6SyI3GKFVUr3AAshY5HHmo4N86tPUr1wMtpSnCkiDjAx+WO/MxVYNbGFOKRkFWRkcqgY9JI/YqAvUO32Pd9xttdW9p6W1hqdYqeXuxBpGjaUSw5j/MTtICvIlMkknJ1i3dG0rDbKZa6201FTLNOqCaBhDXIoeJ3fuBnMXLiAAAx+cHwRrfrd0bf2y14guKzxU89XU1vAxSTzPW1jZZYyOJjiYxA54sExkA+dYCu2+LzvPc1Ntradmut6duJit9jttZX1Zyy82ndY0hCxAJlpZYQoZsBvdjG6cy7+IS8glSAVFSOxlMDB5g59oPaa7L1QNo4QAlZ27VEgEStM5kdp75OKn56ct1y0E4tD3utSgpe7OIu93YZC8zsqyZKGJm7mGlJl58M8Fxg9i1BNcmZDQrFVxNFHKXd4yoRl5N23d1EjKD7gAuPb8ZA11z9H/Tlv+nenvN9pk24Xt6uKauqysqpKyZM1NSLVGWXwuY5WpzTnwjT9x+12AbW2TfbRSCnfcAcxuggEQdIQJEUESmqgYlfapQR4z7+R/TqwbSxZeZ3uNCIBOBySIxE4gd5zzmag17ertHNyHRg+bzACTA9fUx/8VWalkl7xRHLS4V2fsxqXUMGAjSaUgKW+WK5yMDw2NnYNILf1L2lVqod3qK+J5EZVEavSnCuAx7nMj2+UwU+/LIqk+2r9DzSWmgr3YcvqaaNY1IOf1cOKkn7Mc5wfA+9JstruVv3TYal7TLAsd0iMtQxYpwaOSIkAft3Cx8jOAPvkRzWdKSXQ4hJ2JGQBgZEHtMTn9PSpJoGpB1hTri0F0FIQkKBMLISYgngKn3H0qUW/aijWx3ASAx1k8lKiyrHGvujiOJGJ5k+JAAgZScH3HxiENfbF51tbVMrFZZY5pohwqC8hApJFg5HkMrKGKv8YP7Yl51FhjqaOQzzx0tGZ6aFZkY5MghPGRkyOXmPwgceXPuOADGu8xxTwUc3bHfqaiSlLYEIaGHHGcyliEaQE8OUb5LH3ePOknxVtlOa1dhkE7doOIKYWicYPaJHY/U1uj8Oz+F6ctVLcLvjAEA528KPPYkRHacVha5x1IWX6is5z0gV3ZefcSnfPAlOPksEPPDtw4jJ8g6xDd6uKgro45FWSacS1IqKiRnpuIQLEY8Rr2plMhJUSMHOAy+wZzZfZLcazhaKm5CUU8nfir0jaVWXC1VNjKmSOTEZhqSR4DYiHnMfNySkNDBDWkdmu+ojp6imLtGwIPbV4zJ3UX7h1hHkAA+eMa6ZsloWhxSViFSZSQBIE4gDuTA9I55yfUGoK8JxtIABQQDOQTEfvmsdGlvyJX1dXVLXyRx1M4QUvcmkpU5GNVmV1X2ByOHZVo8jk0nL29d25aOqfclxqKymkgFTWTyDukLJ22fwAgJIxkg5Iznx4+Oy2ppzHQ3WeSrucUc4nkmlpgAjGRPdAkbcDAjY+QzgcfK+BnrG3VK1Pue7Kk88wjrZDBPNJyLQu5KBl5sGKFWGQVB+4GfGzXQrLgbuXUpgLbSEmIBymR2jt2M+mIrX3XHkLUhBV/MQtRUM4J8okxGQarNpjWifNOzxrlShkbIHkl8KQMFsjB5eMDwRrM9nqVNTBTdxPzo4yWPySwY+ck8gPt5GMnWB7XK9wGDIokDFWLexFA+CW84LYP2+3nydZetNBBOKeaOocVNOimQxpzSLhnjh+4vcEvuz7U7fAfr5e3Ja8ylUl0lPMmJg+WCTyQT37d68DCilAKRKhtIH3z+QM1kkUCsmJUdj3sclP2Xzkg5+QR9/scn9uBVTAf8AMPZgMghIKBjERgK4fK57hJyoH8o+dcyjqnNFITI9S+JCq0wDsmMAtICy4A8ZPkqP31ivdt6ignXvVMkKKqkKr80lcEZKOn6mj/nUqOJdcMcnERsrB66fU35ikk7SBuOBPlTkyYAwJkdsisnc6gktt7QZRCSQlUiYHZOfSR7+mciVFFU1FK4p5Vmmj5FFY45RkDDciTxzgnGG8jx99WFBV/w6sWrKt9VTswkQOpRiWVSh5Fcg+cOAQhADDDjG1Vb9twtcLwV2J+EcLpxSnJIKrx70syo7Shmxy7aJwIaT3qdcXppsrrT6jup9t6O+nnppu7qZv29VSU6WXblvgqJ1pzJEJ6q51kvOjslriLq9Vc7nNSWoRIzfxEdsjUr0Tp3U7tw27FqslSiCtQ8MYyQZIiZgRnkwaw2o6lbWbCn7x1tDYCVEKWnKSpPYmZkzBj25FXlJf5YJ5Y4YQgnJEYYxCZZHQSzMY43lMsaRgv3wyUsCI31U9M0sCzegz8GP8Je9er6+W71A9crZdrT6frHNBXbdoq2gqKCfqncaOvwsNDFUmNxthVglWqr1hqoKzuLHGhAD67Afw3v7N3QbNgsHVD8QjcNu6gbxpKuO52/oBsyv7nTGzKgSahi3re4qelrt2VkLBPq7XZKij289RCTNcr7CUjpvWFt7bNg2lZbbtza9ot237DZqSG32iz2iigoLdbKGnh7MFJRUsCrDTwxAKVjiREARRxJLM109G/Cc2r7Oo60GwpolSLfC/FJTtBwV7dsyQY+XIkyab6y+LiDZ3Gj9PgAPthty8bUUlsSlR2yAVE7dsplMKmTxW7YrNatu2uistjoKS12e10lPQW232+CGmoaKhpIlhp6SlhhVUihhVCVjVeKs7YJJJ1WPOftjxjx/3n/oP9dbaRhAR44+0IACOKKowp9xDHnzblhchgpB48jrAwSf3x/tq+kJaaZbYaQEIaEJAAA7DgRHr+la9qWtUqWS444sqcUo5BPJk8n1MyZJOa+6aaa4r5pppppSmmmmlKaaaaUpppppSmmmmlKaaaaUpppppXyoEggfvNaHYqpIAOAT7jxUYGTkgMw8ZIwjfGDjI11F/iperfb3QbaFj2XuHetFsCybnt9deNy3mpv0O3qqvs1HNFBDaKC6JUxV9LBXSmdbjJbe3XvEsUcFTBH3Uqe3ZlzjyQRkgjGQSCMjOR8E+CCPPx411I/ipfhRdN/xKtjbfgue5ZdgdVdimubZe9xbjebSaat49+w7jsjS4rLXVskDPPBG1TD2XaNQ0irrEa63dO6Xcosp/EqDfhwQk4dQVZJAHk3TJEiR3g5nQnrNjU7Zy/IFqkrLhUCoA+GsIJCQonzkcAxyeJHQfa+qe2ettkh3jsm/2Ldm27fXPRWKrtcM0G3qGeljgmlFHHU01ObjPTpLCWu9TSTmeXuSiWokaVxHO+eqLp/U9V4emVn3xteLddRPBR3kVVekRhlZZDJ2++qSV9W/bZFghMNNGQA70gkQTSx2L+Cl+Kn0V2dL0c2rv/0q7z2HRwVlNte/Vtduqw3W0RVqlZUFN/AHmlC8IGijkmYQcCkUmGJMU+lP9mP/ABENvdVLh1ZuPW702bf3PWTXES3K7LubddMsNbKjzxRw/wAFlemjqAiq/aaObCxlJRwGqsR09rilqdeZcdVB2tl5oBSiAACoupCQJBJkmRABJq3P490yGkhN22Ght3JQ27ugEQAkN7uR2HKTwat/qd1Y3hW1ctFterWsslBJHbpqeOArUGr5FZHlIMkCRydvkjd9148uDSe7EXt9bmnuBis0iVN9v1RIstPt3bVLNfL6zwPEJjT2y0pV1k/baoh7gaGEgsgj73JzH6GuiP8AZ/OpN1FytXq+9Se2r/syvkSap2/6f9sXTaV6uNMvcH8Nl3zuGSW5WmhQMOIstrSpqknnWpnhaGkL96vpn9DfpU9IW27VtvoB0U2Rsh7XRyU43R/CYLxv6vFSP+LmvW+7ulXuy4vWsivPHPdvpuav2YIlPHXdZ9BarqClG/vEWjBklgqQslIzAUglM4A5zgV49Q6/0ixaCNOtDdwAANq28ymCPESDM5Jgx7d/G50X/Di/EX65Wmkue0vT1NsWw3DtLbt19cbzbthw/wANqIwyV42vWfVbplp5IwJEYWgkhU4g9wYyD6kvwcupPpI6f7E9QfWv1F7c3fuGLqLtu0J032ptm9R7fqK25RV09PS27cNfU/mmiFFJPKG29FHOIVXnF+oe5MgRFSpOWfAH2yV9o/SxVcrjIIAZ8nOca6APx5t6LSbE9P2yY6xVS4dQL9vK40KSP9Q8G17HPbKKq+mgeB5Ioqy8z4kkmIVhxVQWYDzdY9CaFo3Smo6ghK3b1DTSWLiVeHuceabUTIxIWYnGe9fHSfWmt631RpunoUGbRx5anrdBClBLbTjw7njYCYAMiRHA6t6CrhhtFK1CyU/5McIVaeBJRwHu5QiNTGI0dIO4XJPZ58V5dtadPdoKW7Wu04lkS9NNSVDl+9DykWM5imKr3Gyx7kfBO37Pe2fGzR3BZNqUk9LQvMJAJ0mEyolPI6pJNAWaEyN+pOYkc8sALxweWH96XC62+e37oM8ixUFSJ/oYIwqp2uHJoF7h4s2QZXAPLivga1g0W7XavhoRIeJKZHGBM8Y+uIPFbS6pYfjLQuyraGUSogwIKSRkAn079wJPOVd3Xkbfst1sbRlKykgDq8jM0cNPI7GJjCoGQVjceZB8n9iNdWm6d5WSK57nrbnHT1dXNWzwUtLGCzKqqBzRWUn3FwSo/wAuXjzJXq51Za7Wi6Xq3SVUU9ytS0MrGVCQ1ISTNKCg4GPvEBPPcDH3rxGYCBzca9JZsVVTVMsqlFV5DyZVaQYYgFhgkHPkAZzq3VXZumGBAjamSIkYGIn+wP5Zqs7ixSyowSQtR2yDkgzn6Ad4/vVpQ9J//iDf0rJ+5FT10ylaVI1gJjViTzY9wAqGHD2DJZv9Owjo/wBE9r7Egp6Ww2RKOomj/PuLRoayZnBMwkq1MThPd4HF8AnHHPm2OmuyblUwxXGqoJobfR1KU5ki9tRKxHLuNhTxEePCjlnmcsNS6stkKKABUTPmIxPOxPaRA3/LUcQDJkdzJP6F/fAmOg2qAyXXE4An15wPWcn+0CoB1FfupX+DS4pAWQNyZO2FA8pBA4jMAZmqQLHFG8lHEEnqYYynCDP5SuwZTIVVGc/ltjnJJnzx7fkPVI6SslYTMjt23jHGUHt4ACkcW5cscc/I+Rn7HWQqehkaQmOLtyoqKzADJBB/VhQT8EDOcEnHzqsLaQKaRWiMkjcSmDx4k55HHFuWfGB4xj75yJOl8oTsabkeuB6esf8AP5CsANJdcQHXFKdSqDsUoCZKciSIidwHt61aDlZA0bxMRwjDKiAIuAw8cSOGcHOeXLGRgg549XDT9mIuEUQSCSFR4PIEZ5sc5/l44H+Lx+1+xWKGWGPvM8LqD3GTyW5Y4hkyOQXDYOfGc4JOrcvVPDSrJBGiu0aM/cxkE5XiPJIUkZyMnGPjXQ5DyVpU3nYsnAPyAqOcicetZ+x09i0Ww41uSoLRKZJErKUwRJnJ/MzPra2/Vjm2/TU1REav6mRaqnhiBR2mp4/CNKOeM90e7gfAPt++ou36mq+xXzSK5jkoKJKOWRiKainMtQamnmQFeIYJCn1pYdrGfp35ECS26r5GkVvhdJHangZ17UYPvdEHA5I8eBlvIGP041FrfN2igHsjrwJ454jRJ+bDKWKGWSUjiCAXQ9sqOPn3nPjRDrp8P9R6q22UBSVgBRIgedM8849P8RW83SDbyOnNNaWlSVqbBHcAbUq5TjIHrPHOKwZu+49isevYKJII05oJGE1MgQBklYDE9PMVLUlUVi73GYdlSmWjvX3ee5XRhSIYFqqyKOKplaUxRyMJDwmRXjIjk4gdwthME8T5Gsp70q6qijnoZm+pM8azySGIrWyQRZanpjGDIezSiSQRDn47rZGNYFpr3W1d1SSg+nSNG+nnjq14U8CMCoepXiWjzhisiq/Di+R5Gurp22fXtCtriQpIISBMEiYAEz6QeJxia8nULyGUrUp0DanIVIiSE/cZ984q67pRVlTbXpJI6a3zcZ5Kqpoq+eojqsRvGqFJOIIPMujo44nkpVshl67N4bMa0XCYU8r1bRuGlkkzGZHEsr8hmSbIIkAwCePEHJ54E7Oot8q7XZozcaq1SR26JI4K6xy8qRkmy7LLIRG0sgKIuGUFcNgnkcde24d8zXOvqZZXkaFKmZKcDGXTKhncjPgYTiD9mOMfOti+nrVxi0b8JhQ3JSSAIn5fpJnsO0mqJ1FxT12soUlSdyiTuSABEz5j+wMDiuFG9ZSymSlVnaNkZouIKEvk8WHIc8cTggD75GCDrLViv9xiENR/D5YJJIzE6gjtPnAxxC+3OW8+f6A6wrBf5ZalIoIPqhIc/AR/HyFyQPGT5JySPHnwb5obq0T8ZJVpwyZEEsjNM7xsMxpAAGCYb8yeLupH7DKEDJy9erWinm9q7dJKgSIMrIBTjak7uRiBOMYr7t1HYgqUEoUfmKgEiIJlRISMeqhMnHFZLutfXW63VsU0sdFySOohhjeVauZZGPeEE0UboyKDGZ1kMPENHwLcm44C3TfB9V24pCCxSFVM0fYV8xjkGLSFJpmkA4cPe6qOWSoEruiPpw9RnrP3/aum/po6Tbo6gXaavpbdWXKClqP7n2Iux51u4d2ZS1263osM8k3caWcrTSCOncq4HuF/C/8A7Oj6ffSpBZurXqloNu9f/USkouIpKyn/AIh0t2PWTGOY01m2/cYWjvVyonSKM3W4IaQtCrw0JJ5CTdGdD3t4kPvWqmkKO7xFgAAeWJBVulQGTzJ9MVDOruvbDQElpl1p+6CQEtIIWpRlIVKkApAAkmSIjEmK8rP4b34D3rF9f93sG8N62+7+nz0y/wASp6i49R97W6ai3VumgR2kaDpztGsjpq+tqKmKFkgvFZxsyCqp5gaoMex+hH6Kfw/fTD6C+nNL0+9PHTm3bZkMcL7h3lW09PcN8burwhE1fuTcdQk1XPNJK9S4t9JUQ22iFQ4paWEStympTUNPRwwU1JHHS0tLDFTUtLTRRQU9NTwoiJBTxRoFp4QkcadmARQosUYijjw3LlKoUnHwfOMYwSzMTgYXyW+ePI49zOcYvzS9AstKZQhtLTqyAVnwyDuEGZIGZzgkDitbdd6o1bXnnV3D7jbKiQllK/KUyCO8ED/ujjia21jCn5wD4Cr4UeSxwo9inJJZguW8cicDW4uPOP3/AGxj/wBf9f8Az1q/b/f+uvgz5yc/t4+P/XWcJCgBG0J+VIiPTtjgnuI+mBHQEp4SpSlfMtRBPaeTOY7CvummmvmuaaaaaUpppppSmmmmlKaaaaUpppppSmmmmlKaaaaUpppr4Tggfvn/AG1yATMdgSfoOa4Jj8wPzIA/U191tyRq5VjjKZ45UHBbAyDjkCMY9rLnPn4GHM/4f9/9f2/bzraq6qKip5qqokjhgp4pJ6iaWWKGKGGJGkllllneKGOOONWkeSV0RERmYjGvkKTsDh+TJk4Hl5/L9e01ypMykgq+UlKeckREe/pW4iKpPHyzYJxzBY/OSxLMfnwCWxnGceNGYL7xyIUHOfAJwP0s7qgx9+R/YahpuP1++lewy11PH1Ss24nt85pqmTaksV6o2nWSSN4aWvilio6srJFJFI9JPPGjxspY+C/XZ6gvxlNvWSqqtqdHrKi31wVpbvfxHMFjHAdynoxGYEdgxJSoacHCBCpD8sVd67o1qnc8+ysT8rR8QyIwfDBCeP6iO/esva6Fqt0UIt7F9O+Cha4CYiSTuPBA9OSK72xIoYL+YSQMP25ZBhsnHcVDCvwM4cgYHL5B1bN63zszbgkF+3btqytCC8n8Zv8AabcVUDlllqKqOQBB5GYjnIz+48fvWH8Rz1M7gaOSLe+6FhndhPSU9xltdNA0pj/+norcsUUcTBSCW55VVwFw3KEHUvrL1K3RTz3zcN3nqZ5CHqxNXTTStF4JkepqmlDMCcCNVhJZsEv7SkE1P4oaVZLWzb2/jKIKUphaZMAfMpMCBJEmOamunfDbVLlKHbh7wU7kgyncEhSgDwZOD2TzPavYx1Y/El9HXSeCr/jfWC03u5UzTQvY9nw1O4LlLOqYWGJqaOOk5M7L23+qC5VgPjkPNr6wPU9c/XV1nte8H2nUbP6e7Lo6iwbMoroYRd6qiqal6mtqqto2RsXOZIZRC9NGaVVMay1QkJig7042Burc8lHuO/dyjslbIz0tDWcYKyoBINPVzomO1TSYY08paTuDunCFfdneQU9sqgyUsQ7H5CdpVKmWmZEaR5FGZFHdBQtnJ5YIyc0D8TPirf6np40hhxDVq6UeMwCSqEONrTChOApI4zE8wI2F+GPwn07RNRTq7iV3tyAQ0+sbUNlxvYvykACQSJicmOVTdiLEYKwVLsttTk1RFTyNFAjq0rQqkKBu20aEJI3I9/irBYsFTiTcG5aOu21fwkUMkFOj08EjA993bmsaQK7KfcFYyuvPhxTKksMZQuk0tXStTUklPCkiN9UkbhHmlKIVbgI3z5ZxjkOPzk5OIaeoLflh6YbXt9LWTcrzBcZ7lHA2Ul7MUSF6dIk5SSfUNLFmSRFpo+0PqJ4O4herNGt3LhbTwLivFJgoStaiYJ+VIKwPXAjPtNxdQXDNpbPWwDaCEJmVoAGUxK52j09zPpFYN6pA2vZ9PbVJeoudcr9yN2INM7IZYwTxLEFlVsY4kDwQwxwOkPSu67rvNJHRRhYGYYCBhMI6dlbiJC5yW5EEhVK4Bw2fEfdtbwqOou9aC736/T1dPeJKCmoNt0fKqe3cJqsSmltdAKivramYSUy1CW6iqogYoQ9SpZM92nQrYN/2fZ4btUdGusFJRwkMl9n6Ub1/hslLMpMNUKl7RG0ccyqWBdPhc5Izq5enNJvXS3vafUkZBUhYTEeqgAIj6EzB4qg9d1VlloIDzHipJBAdbMbjEghURB4H5TV27O6a1tksUNK0TogMkhE5BZTKsavyYn88gRghsJxyQB7si9KfbMkIZ4pF8LGqR8OXFl58yG7g8NkYHHxgeTnxcNTvCllOZ+VIixnt0tfFUW6oJGO5mnrqemmUgleSmMlTgHGRmmndVBSiSonmiaLtGVIoJFeY8T5RE8CQtyUDyvjOAcnFuBtu0tQEDaQlG8rSUJBkfMpUJ/Xt71BG229y1KU3c+MqdwUla0qKgQAgFS1ZABKQRBkwATW7T2l4wXkTiVxzKgMWJB4+Cy4x5wRn5H+WuHVSrSlu40cLsyqFllUEA59wwDj5zx8ft586tG89RLfQ1cEU7tHVVEBqIaLDGURNgoWMwpo2bH6kieXt+A7LyUti+9b/ALc7u7VlEjzsWlWeshVwac5VHAeQU5HcIBLkyfZfYdeBWt2DctO3DKFGOFTkdvLPcQO30rOsaNduoCiy4kKEtjsRgn6Y9YntJrL1XuCCAusZZ5AWjLjiIgGHlixJB+PHjxgnI1jObddGbjS2cuamoramYCCJhK5jh4NI7sBmMDmOK8SCCfIC+Yub39Q+3bT9XRpcRIkfeE7xiV6anYLlVaqSJkZn4sIwAQ2GLMmBywl6eeuFL1J9RW09vW+V0mu1LfhSU3dgZ2SgonqqipKmZVmURwZVS8TqGY+45AxOodRst2l2LdxtahavlKkkbsNE4HJx9eczWU0/RF/i7ZDqVpBebHmBgqKklIJjgqj6GMipt9Qq6RZKNbRGHmYsgikUgqr4VgD/ADFe3lRgZycY+dRYrKmvqrfeEMc7xCtqqZKkj6eWOfK98EMZTGseIwnu/N5HHEp5kVvia8xV/GKONzD2xTSKrxyCvk5ukLpJEq48lS6SSr7fIHJcxt3KyLSXGouE1XF9U9U9yp0YU5NfRqGCwgGTCkzHlKFAfI9vtxrQnqVSr7UDdIdUH37txLogiPNjJAGSBwePat19DX+E0m2tVNJ8RlhKiJT5U7EgGQYOO084iaj5vy4tbkkeRahqhKaOCCQoO7Myni4EpD5DB1OeHt4fcvkYrsVjhqo6q8VT1a0NZVmkE0JT6mCWEcmlKE8ponMwEiiLCBMs4541cu67lUVQosyFvqWWWjWWbvEeWQwElEyx9p5kDJGOH3Fsbo3m+xduUd2pZ6i20dJURUV8j7cLOlZVlkpKoCanmL0tTUYp6uBfph23WVqrEaobR6NsnW3LVlCSt5RGMKyoCMCQZwO+TVX9aXDRt7q4UuWxykEidq0+okdzx2POKjD6iKy7mjq4aiKJtsCspaO23K2SLAKiqgSeSZayEMEBBEIZo5Je3zcyKMqDDt6SpkpaqZZI+7HN2kihBMhIjjcBpZTHAofuYV3lQthiiyENx7F/Tb6P/V/+Kp1Iq9n+mnprTWfZ9vvKU27eoVRS11p6f2aCr+oCXOorKpK6np7rVUkL1YpqJ5jUTK8EkkJgieX2cegH+zGekX04R2PevqSuNw9T/VOgFFWLFuGSppOndprI0PcSk29HUyJdRzEYeWvkZG+mhaOJFeUS7faD0hqTtqwHFNsKKUrIICoT5ScAkQoQCAZz25rV7WfiBpOlrdQGy88QoNoTuJUcJyQNqQMnzESRAM14RPTv6LvVl6kdwWq0dFOgfUbfNTcJoVpZ6CyVJsTAswkqqm8VAo7clNTHDSyfVjCMSgkwcev38PT+y/W+ggs3UL1/bnN9uchirj0K2VXj+BUnMmanO5t0wSiqmdMRIbXao4omIq462qmIgEfsK2nsXZuxLTR2HZW1tvbSs1vgip6O1bbs1BZbdTxwpwRYqW3wwIF44BDci2AWYsWZrnEXH9LcB49qqAvj9gMYzk/v/wCtg2XSGmMKaefQl65bBIcIJRJERtJJIgmJJ4BMwKqzWPiLrV6x+FtSpi2JO5tKhvgkQQo7UiIBMT3jAziXo70I6Q+n7aFHsHot052n032lQRRww2ja9mpLbBP21K96ukp40nr6hgSWqKyWaYlnPMB2By8qhQAAfAxkksSPkDkctxBLEAk4yceNffvn7YHj+v3Of6/tr4ARnzn9v6alTSAw14LYbS3AwlO0mCD6cY9agLiluOF11xx5xeStaiSk95kyqeJzxX3TTTX1XzTTTTSlNNNNKU0000pTTTTSlNNNNKU0000pTTTTSlNNNNKU0000pTTTWktgjx8/+3/XXCjAJzxGASc44Ge/25pgQVRAIOfYiP1rbkYR8cgH2yYLOiKWVeXAlmByVDv7VYKkbsxGAG8fH4+X4yFKdk9WPRB6Srneq/fslzXY3WLqTtsUlXb7HSsqSXrZe2rnbLlVV1PeWaOW3XyqmtidiVHoaQyf8TIPRj+IH6r6f0f+mze3U2itB3Pvuppm210y2fHVR0c25t9XmGWCzUrTyOnat1vfldbzMgkeG1UVUyxlsFfz5PRzvmj6Zbk3WOqW0K/dvWrqHvW6bv3DdauloJqihqrxea6uuVxpblVrd4K6kkuFRXntyyrUQZw8uGQGu+vuqv4LZN2Vs6lD60ndglW0wViCJG5IKcT8xJxVmfD3pU6vdrv7lBFu0obFKBLZVgAkCflMRON3aRIy76Reoe4d3bdtVm3N0j3ntey7I25bqWK53GiraKn3HJTwMaypoaWWmpBSxROEdsS10tRNUSzyyqZFjWd1h2t003DW/wB6X25IlSiycJZHlkMlOiplqhZHULPGTiFB5X3+Xz45W4Nw1ct6tlZ/FoVtzpFJHZqFDV1FWkxkLRNFSSPTRSuskcZh4QRsYh7yBiLly7d31UVsRraCxbC6ex07Vjx3K6xvu7cFYxDRrBYqKGRrfE+WVFkrp+53QSqcCNUSzqBv2N9t41opKybhDqioPFRACkkmANxkD2iO1XzdWrOnttMsoaKgkBKktyR8skkT2xz296xT1GS2UVRjbVsut3qCjyRWq10VTdK1lft4WT6ZZ2DAgiJXijijy/cnUHIvPpJ0V3JvEHcHVDZzba2fSCkrKPb15qqWqud4njNQ0clzpqGRkoqZCsZWmNRUSTiVhKIDCBLlWgoaewULybLs7Wi4VypJWVN0uUkFylVg+ViEMfNYGDMSonCkMokjIGBdO34NzRA1dddHmVivKkjeIU2DywMqFVpBk+TGXf8AmYYyT1nZJbVcXDxcWkf9MBR3FUJI3AECCeTiuq2TqDridriUtck4SBGQMwRwBxGexrYuFhzPNRUFKiUIWEtTxoyRUtH7xDR0jHJjiVVftj3GLGcNzOKVR7MpZqpy6yJFLwijgwJO0oYe4sWQyNnGTxQt4+MDWSod2UtBUGG4lUjKlA1UkcUhmk/+ng4qXyshD8JC/jBPb8+Lc3Pvu1bPo6jcFztyO1JDUVFFRQu8j1VTHH3I6OMpAczVGBIheNYljhmd3UIA0BuemNP1S/bU8lbKFLHngkAE8wATkCI59J7zu36k1DS7JbSVoWdkJAIBJISkZmMTPPA+9UDcFts+1KiugmnoYq6Ok+uSBnU1jxtHiICAB+DPL2ohycKe8Wz+WVaS/oo/CG6aes+8W/1W+qelvN/6XT1TxdNuirXKpo7Jug2eqmpZN472kompKmehSvpGgsVgglajqqf6+puUlSlRRxQdDHpk3P1/9X34jm5vTtcLZebenU2GgfbtwooJam12Taliea4V1+muFOppGs8dHVGGpnjqIGNbDS0n6qgPF+jN022Ft7pdsXanTnaNJFbdtbJsFp23ZqKFRxio7ZRxQI8mRyNTUMGnqXZnaWWQzMeUjavv4Z9A2lnePXjzaHLRhtC7RawlSXC6hI+XKpCVyoECFSDkGqF+J3Wl2m0Z05m6Uq5vTuuwhR3MJbUlafOCB5lJAwTgK+2HumPox9KHRiuiufSr07dHthXWBQIrptrYO3bfc0PEIvGvShaqHBVPDnK/bLyNHwaSUvJXsoyFDGoTiFClUYADI+CpHwcYII/YeTne01fCLe1ZT4bdowEYyltKVYjgxjjMQM1Qbj77x3u3DylDspalZxmSTxyP8Va9x2Ts+7CUXTa23bl3kaOT6+y26rDq3zyWencHP82OPL7/AAuMLbi9IXpk3QJDe+hvTetkmJaWRdsUFI7vg4Z3oY6aRgCSQC/j7EEkmR+G/wAX/wDqNfcH7nJ/fH9Pjwf38/8AYOuHLWzeQptdmytKolLoCmzBB8wAkxEj3Ar7bu7lohTVxcNrTELbdKVCMYOO2OePyrrW3d+Er6H93SPUT9Ma6wVEsryyS7W3dubb5Jk480AoLmg7a8fyVfuCAM4jA5vyxdN+B5+H9U0709Vsbf1Yss5mlebqvvsvIG+Udo71ETjzwbPtOTg5I1288TnyQf8A+oz/AOevjYXGPGf2H/sc/wC3/pjFdN6MshxWmacpePKlhxSjhM/KgnGZPpJxFZIdUa8lAQNW1JITEFVyAP6e5XGewJHp7V5+91f2bD8OrclzqrjE/X6yRVMryLbrd1r3S9DSrID3YqaG4y1wRJQF55BJCL+2R13eqL8Ez0zfh9b46ReoboPuvqYY0q947Tuu0N97pG5bMZ7xtC4wW260tVNTQ1dLNSzPVSzwIGFWxpw0sXYUt7FcDA5Y/of058D+v/eNdM3419xo7V6e9hT1DujSdR44ouC8m9m37xUPgk+OSxCLIBx3eXnhxaEfEjSdO0vonqC+tbCxZetrEu72AUuNtoW2XiRggBreSnk5SATAqc/DXWtV1Hrbp+0vNSv3rd+9CFIfWVIWSw54WIIV/NCCFAwOSYFeaTdktQlVJDDJBVSQz/UvLPLK5flFCVjjmdmjVY2V1RVQGPzyL5HCHW57rW190uf1NBItYj1CtF3R2JIXUohVQpwwAJaQgc/blRjOswS7wnRalKuXNBKzsjVDlmRp5jJCzMsRYLEJQhHjkEByuSBRr3ZLdNwqqlY6lnR4TX2qExq6zJGyPVhpnwYv/DUE8y0mWXwNfmQnUGbpTLhOHHRcpJSoHwVPBCVxtwSshJT8wmSAJr9N3LM2wdQV7Si1QhQBBhQQFZIkGEgmR6RxFdeO755aC90NAhn5vIwhVvZHT1AJlikMvI4hViVkIUBcq2DnGpV+iH0k3v8AEU9Udo9PCJcqTZtFTG5dZ7woP0dt2xbYoqrnTSqYhLPdKkChpWWaCRWZpk7pj7TRT6tRfQXyrqVmSaO1VQkgWTkZZVEiIQykrmMhsvEHbucAOagDPrC/svPTjbtT069SnWxCtVftyb/tu0zUPTCJ1tdvtstykplzLKyU/froFihUgL9O7Fn7oWPbL4N6QxqurWpUgLDSdzk4AKUqUDn0TtjHOPatTPjFrF1pGlPuML8q/ImSSCVrQjjBxMnA4r0lenn069H/AEwdNNvdJuiexbFsPZm36Omhit1jo0pHrKyOGOKouVzmjVZq6tqXjLTT1Ly8jgRiNRhs8Y/9zk+fn7fA/wBAP6k/bQBk5yfKrn/Mlj4znAGcAf65ydagCCfOc/7a3US2215GkgIS2hKSPUR2ORj+3rWlS3HXCpbqy644tSlEnKZJMZOQOBzGY71900019V800000pTTTTSlNNNNKU0000pTTTTSlNNNNKU0000pTTTTSlNNNNKU0000pTTTTSlNfCMkZ+2fH76+6a+kqKVBQIBHcif3++1cEAiFDcMY4mDI/XNRG9afo46SeuHoreeinV6grZbTWTwXixXu01FTR33a247cwe3Xuz1VNUUbrNGxenraY1UP19qnrqAMn1Jmi8ze/vwgPUj6Z4KyXpd0ft/Wywbaoqqri3FsbqFarXerrRI888jV2yN4PabtDcCjxi4Ulpv24+UkZlj7fdjWf2NMgYqWAbiSVyMgNkFWAJKckx7WKlh54lctng19KainlpvqKqA1UU0Kz0skaVNO8sZX6qmllWSQVUEfJ4W/OjUqA1PIvsMX17pHRuoUqevGlJvEAlp4eYApAMbUgzuAKczAPIBxJtF6r1nQ0eDaXCRbLWnxLcjkFSf6iRkHz4MEjAJmvztdj+rDatu3Vb9sXvbVdT9WrheblbbxaLpWwUFl6dW2hqXpJZq+e5VUdNPPBMOFVAjwzSuiCLBQdyf8ABY571aYdwVFTUPUVUYjir7fF9PRGVhI8ElLWVaTTJTTxIziYwSxThAtNIODM0I/UF+CJ657T60+rPT7pTsXdPXK0b83dWdUKfrtuq1wba2dctvbtvV1u6WG+7mvo/gkF727IHoqqkpqwSTExTQxx99Y17E4Pw2Pxe9obBotswbD9Pu+qaFkitlLdOsQsdVY6SOBI1iaplsNTTVqKvFKWCGseCn4SFZ4xPl6euekL583Nrb2S222zDbiAAFhJSoHmQSB3g1dLHWGmMNWa13zLzryQp5KyoFswJHmA47mSMRM1E3fPWqz9NIaT+OVlNa7fXVX8PjvV5EhCnhLJVT0yFDLWBo4HZjFwVe2mePdGsl129kjsW37hbBPVWncNupKykq4gUjqqWp4MtZCJTFKheKeOVQkcvbDhWIyC3Xv6jvRD+J9H1WTbfUv0qb+r910lhnounM3Tmy3DqP0zae6NFTyGl3Nt6C4WKpuCR9tZBXyW36TukzOpDqJQ2j8GT8d5OmtDcbV1C6TRVlXbrclPsGu3rQU28rDbRAhht/1Fw2+227VV2+F4466lS9hgzxLzleEqmHtOkdVeDtmpl1CyQA4oTt2kKycgTHqORAzUguOsNFZZad/E2+1QB2JWBuEp4ImYycflnO91Fu9221DdbtTVFRX7bsVK97rJ6iWRp6WGiET1FRUz8ZWCQmZFhpzGJHLN2w6rI0ePejm/uv8A65d1UPTP0z9AN7b7vNVWxQVnUavkpLb0w6d2nP0FVvPdG6R9Tb3o6aKrlMm3oWkvFZNHT0dPTyGonkpJ6eg3+zZ9a7l1Cper/wCJP1vn3TYqeoFxboPsHeN0utBf6tJGeOLem9KVbZQwWtGjhElr2lSSVtdHNV0z7gtVOphu3sA2D012D0v2vZ9l9N9obb2NtOxUdPS2jbm1bNQWSy0FLCjxwQQ2+3wU1MUUF2YvE0rysal5DUySzyzjQPhoohLmpPhKUqBiNxMEEfLmJieByDjmCdTfE1kpFvpTIcJSAXQqAmSAeYnEnB/uDUCvw9/wz+jnoR27WXO2TTdQuuG56Cnpd/8AV6/wxG51yOFrJNt7XtoZ49o7Qo6yWSWjslO89RLG8c9bcKktFDS9lwUhmJJOcAD7ADJzj45Ek5IA9oVce3JKvEfJPhR5LEDiMeORZvJySzMzkn3O2BjVq4LS0t7S3bYYQGw0kJG0AbwABmPTJz6d6pW7un7x9dxcPKdWsyd0yDz3wAMwB600001315qaaaa5CSokDsCTkDAEk5I7D/in+SB9yYFNbchChSeOCyr7mC/qYDxkgE4JOPk4wPJAOp3CKWPwM/5nALEAfLNxViFUEkj7DLDpG9d/4rmzukV/XpB0T3hs287+ehql3NeIK8Xs2BqpI46WgsFDbKrncdwxJKtVPM1NU0dq7tGtQ8b1BGox1T1ZpPSOkOaxqr7jVukJ2JYStdw8orSjY2hsKXyqFEgJSmSSBmpJ0v0prHV+qtaRo9qm4uHCSpTqkoYZShJWVurUQAAEnaBKlKwkSMdx26977S2NZqvce8b/AGbbdkoUklqrtd7lS0NvhjQvxDVNVJDGZ3VAVp05Su5McIlYZPnB/FG9XnSr1QbW2Z0/6XSX6vtW09yXLcN03dcLLWWmz15FtktMVNaaa7JQV9dEpq6idq8xQ0xEMSUv1a1Ty03V91b9Q/V/rBU8eoW6Nxbkip3pgjbgqJb1UJhW5xx0jSw22inJEcsxpqYNgwJVLMYYiMUVLRVtIIbjLNUxwxxCJqmsWnqg+XMSmmpgsMkMXkGGCmjIDYlkfKlNNevf9Qtx1fZal09ounNafot20u2vHLkFy9uEbkkKRGWwVJSVhUEpkDJFbpfDn/Tnb9NXmm9Q63qa73VbR9t9hm3hqztFKhLniJcIcuCEKUlJQNoMK2TmrDpNg1Bqah6OstdzWQqGjmqFQ9oY7bNSlZgrng/tEvtx+o6pO7LLeLZHNHQ2ytqI5W7rw0tO0sMZhVAQjoQEB5HGUbljwBxyc0UlJYbdSrXRyQUrKqtJM8bYMi55Y5Oj+7I8FfZjwW5HXPt2+aIVccImieKrDwxDknZkdOK5MhRsHLjjGR7sn3DGtUy2phxo2qQ4i3CWzJCAGkuJXPmIPOYgmYgTFbUKtPxKLjxFQtbrhHOWQ1AUCMdsAkGewzXVb1vtFHJa7tcK2jnt0cFKalp6qEiUzxRSN2EUKjIsxA5yEuRwU8Gzr1Xf2WEpJ6MOqUonp55P/jZeqeSSDBLrR26mp4ZZGBPmeJFmCYHb5lOUmOWulzrK2y4bDd5dyWGmuk01uq/+FMcJMjGAxR5iTuBELzqeZJc4PCJ8Hh21/wBly3ZtG19LfVP0ioqmSLdW3+srbjqbCKepVaSzV9npKakqIpXiFIq1U8VS6xipMhMbqyApybcr/TJq41G91BK21pUhO1JUhSRhEYJA9xIJBnECCdOv9SmkIstEsXmXQtC1jeJgz4rfKeZmDMQea9XC/b//ABX/AM9ataV/zBx7fBz8E/8AQ4wSMeD4yfnWrW6VaTU0000pTTTTSlNNNNKU0000pTTTTSlNNNNKU0000pTTTTSlNNNNKU0000pTTTTSlNNNNKU0000pTWh1DDDFsfHgkecgg+POQR4+3kggg41r0Ofscf8Af/Z1yFKSZQQlXEkSIPOPp+tcEAiFJ3CRImJggj04Oa2RCgzxARS3JlVQAze3OVIK4OPPsLZJYMGJJ0mAczIP1EoSVYqT2y5Cs68ZHQl/+XI7xjGFRQTrkef3/wC8n/2H+mmuAVoBCS2d8blFvIyCewPaIB/5oUpcIKi4iOBukduIJg4+nBrj/TIeXIA8kKkhVjkOWLDlJEIzhfAAXiccuTMTkajAhbkAFI/ThVIX3FvarAqpOcMyKruAgdm4Lje18Ofscf6Z18JAb4aacByYSEmcesRxiJrsUdwgrdgdt5z2554/T7Vp4nIJbOBjyPJznOcYX4wBhRjBJznx9AIz7iQfjOPH+oA/30w3+L/Ya+gEfJz/AKY19gyOAnM7RxwPQR9eMj0ievyggBCiYwsqBgYnkg/p6x3r7ppppXNNNNNKU18Jx+3wT/01918Iz/0Iz+2dfKgVCASJIEjECRP6TPrxXIjM5wY+vb99q6tfxkupHqO6V/h59ft6+lykdupNq2zK1fe6O40luvmzNhyutPvXem2fqlaOa/WK0zM9Mx4ChpaisuXIyUcccn50np16x0+xt8z3rd15lqaKrneu3juGC3y3K916VEztNBS3ntXKS10NVUvUVdRFQVytPSvQtNPKgp0p/wBYTdG1LBvTbV92fum10d92xue0XTb+4bJcYu/b7vY71RT2262utgLKs1LXUNTPTTo2QYpWAwTkYS2p6PfStsiwwbZ2t6deilmsdNTR0cVFS9MdmNzpo40iWOqnqbNUT1p4IsZeqkkbtLGgI7YY111z0COs0IYVfmzZZSUNgpK0+baCrbCoO2YMYOTkCLT+HPxJPQTLjjWnou7x5wKLiiElCABjdCiTgjAggxggk+EndnqB6PLYqe4Wbe+2I6Oro/qo6qe+W6athhWOOWQG2Usj3CAx0/cZ2ngaZmhVXeTkzQwV2/6qaKs6pWmrrtwWbauxDdaiCjv+45JZ6yuoYSiVlwoaamSSOnp5Z1WCnWeV5KgrzK0/bKN+gN6h/wAIn8PX1K7evNl3x6ZOmFiuN1p5kpt4dPdsWzYe7bNVvD2YLjbbptynoovqqdWkIWspKumk54aAe4v1rdM/7Lv6BLDczcesl/6odeo6Kijt1gtW4btFti0W2jjmqZv+NpLEWa61bGdFNV3qInshmQlyBSFv/potLG9WE3Qu27rf4l4fL+H8pIKWVKQVKUryCUqSkKJgGFJvVf8AqfF5Zhbtiq1umC2G2ACpL3mQFkrQFJACdx8ykkwRnivOfd+tvTihqZdx1XUrZ9RtaanqZ446q+UX1dWr8FWVKN2hkxHxDtEIzNiRRGkhDYwbD1Nuu97rb4/TNbr31+3VdKupWPaHT6w3fcNTQoi9xXqaGhpKqtpIy4MK1JozECskkzRiJRJ6iN3/ANlG/DQ3LvRdw2y4dcNpbXeqiqqrp/Zd8081jYpx5xUVXc7TWXChjYB1T8yoaJZHALHiR3e+lP0Q+l/0UdPqLpr6bOke1unNhpYglVX2+hSfc98nIUy1m4dzVAe73WpqJA8swkqY6dWkcU8FOGOfdp/+mPRUXAfvNRW4gOpUpnw4StscjBUSqYIBKYAPKq8er/6o9QXZeBpljsfW2E+KSUlB8u6dwzKZTjdk+gryv+kT8HP1neqCqtt59WFipPS70napo6i6WylvS3rrdvC1y0wqJ7RbIIoILdseCZwkFZX3tK2upwY/o7bK6VSRer70y+lTob6SunFB0w6GbJtm0dt0w7tylhSOsvW4rowAqbvuW+zR/wAQvN2qCiGomnn+nV+Yp6WniIQSKeANxAPEKAoRcrHxGMDgG45AAwSDjzjAOBuqpGcsWOABnwAoLEDiMIDljlgoLDiGJ4jF+dMdEdOdItLb0eyQ0tSUgvgQVEQFSCAcgHMZJyfTXPqvrzqTrJ/dq92pVu0oqatwTsz3ickGMqnjAGa+Irr+tw5wMnjx88mJwORwuGCqvkgL5ZicjXppqWVDqaaaaUpppppSmmmmlKaaaaUpppppSmmmmlKaaaaUpppppSmmmmlKaaaaUpppppSmmmmlKaaaaUpppppSmmmmlKaaaaUpppppSmmmmlKaaaaUpppppSmmmmlKaaaaUpppppSmmmmlKaaaaUpppppSmmmmlKaaaaUpppppSmmmmlKaaaaUpppppSmmmmlKaaaaUpppppSmmmmlKaaaaUpppppSmmmmlKaaaaUpppppSmmmmlKaaaaUpppppSmmmmlKaaaaUpppppSmmmmlKaaaaUpppppSmmmmlKaaaaUpppppSmmmmlKaaaaUpppppSmmmmlKaaaaUpppppSmmmmlKaaaaUpppppSmmmmlKaaaaUpppppSmmmmlKaaaaUpppppSmmmmlKaaaaUpppppSmmmmlKaaaaUpppppSmmmmlKaaaaUpppppSmmmmlKaaaaUpppppSmmmmlKaaaaUpppppSv/9k=;" parent="FEMFrTbNhc8YpFnRi8aE-113" vertex="1">
          <mxGeometry x="85" y="30" width="270" height="270" as="geometry" />
        </mxCell>
        <mxCell id="FEMFrTbNhc8YpFnRi8aE-111" value="" style="whiteSpace=wrap;html=1;shape=mxgraph.basic.oval_callout;rounded=1;shadow=1;strokeWidth=2;flipH=1;" parent="FEMFrTbNhc8YpFnRi8aE-113" vertex="1">
          <mxGeometry width="170" height="110" as="geometry" />
        </mxCell>
        <mxCell id="FEMFrTbNhc8YpFnRi8aE-109" value="Which model do I &lt;br style=&quot;font-size: 14px;&quot;&gt;use for my data?" style="text;html=1;strokeColor=none;fillColor=none;align=center;verticalAlign=middle;whiteSpace=wrap;rounded=0;shadow=1;strokeWidth=2;fontSize=14;fontStyle=0;fontFamily=Ubuntu;fontSource=https%3A%2F%2Ffonts.googleapis.com%2Fcss%3Ffamily%3DUbuntu;" parent="FEMFrTbNhc8YpFnRi8aE-113" vertex="1">
          <mxGeometry x="26" y="33" width="125" height="30" as="geometry" />
        </mxCell>
        <mxCell id="FEMFrTbNhc8YpFnRi8aE-116" value="Hypergeo" style="rounded=1;whiteSpace=wrap;html=1;fillColor=#d5e8d4;strokeColor=#82b366;" parent="1" vertex="1">
          <mxGeometry x="495" y="541" width="80" height="60" as="geometry" />
        </mxCell>
        <mxCell id="FEMFrTbNhc8YpFnRi8aE-117" value="" style="shape=curlyBracket;whiteSpace=wrap;html=1;rounded=1;labelPosition=left;verticalLabelPosition=middle;align=right;verticalAlign=middle;rotation=90;" parent="1" vertex="1">
          <mxGeometry x="474.5" y="438.5" width="20" height="183" as="geometry" />
        </mxCell>
        <mxCell id="FEMFrTbNhc8YpFnRi8aE-118" value="No" style="text;html=1;strokeColor=none;fillColor=none;align=center;verticalAlign=middle;whiteSpace=wrap;rounded=0;" parent="1" vertex="1">
          <mxGeometry x="427" y="481" width="60" height="30" as="geometry" />
        </mxCell>
        <mxCell id="160Blx0tnU9E2rK5-6uw-1" value="number of events in an hour" style="whiteSpace=wrap;html=1;shape=mxgraph.basic.rectCallout;dx=30;dy=15;boundedLbl=1;flipV=1;flipH=0;" parent="1" vertex="1">
          <mxGeometry x="129" y="734" width="100" height="60" as="geometry" />
        </mxCell>
        <mxCell id="160Blx0tnU9E2rK5-6uw-2" value="number of Bernoulli trials until first success" style="whiteSpace=wrap;html=1;shape=mxgraph.basic.rectCallout;dx=30;dy=15;boundedLbl=1;flipV=1;flipH=1;" parent="1" vertex="1">
          <mxGeometry x="13" y="601" width="100" height="60" as="geometry" />
        </mxCell>
        <mxCell id="160Blx0tnU9E2rK5-6uw-3" value="time between events" style="whiteSpace=wrap;html=1;shape=mxgraph.basic.rectCallout;dx=30;dy=15;boundedLbl=1;flipV=0;flipH=1;direction=south;" parent="1" vertex="1">
          <mxGeometry x="651" y="760" width="114" height="50" as="geometry" />
        </mxCell>
        <mxCell id="160Blx0tnU9E2rK5-6uw-5" value="heavy tails like stock returns" style="whiteSpace=wrap;html=1;shape=mxgraph.basic.rectCallout;dx=30;dy=15;boundedLbl=1;flipV=1;flipH=1;" parent="1" vertex="1">
          <mxGeometry x="629" y="601" width="100" height="60" as="geometry" />
        </mxCell>
      </root>
    </mxGraphModel>
  </diagram>
</mxfile>
